<svg width="128" height="133" viewBox="0 0 128 133" fill="none" xmlns="http://www.w3.org/2000/svg">
<path opacity="0.3" d="M114.717 21.3912C113.457 20.6912 112.187 20.1912 110.967 19.8212C110.457 14.9512 108.687 8.64122 102.267 5.53122C92.0969 0.481218 80.9269 7.60122 79.8869 17.1912C71.4569 16.9612 63.057 16.9912 54.757 17.3112C53.517 6.07122 39.497 -0.278778 30.007 6.94122C23.807 12.3912 24.387 16.1412 23.577 20.7312C12.897 23.0612 6.28695 33.0212 5.34695 43.8112C2.77695 63.9212 3.92695 86.6012 5.86695 104.291C6.51695 116.181 12.4369 127.131 25.5169 129.501C49.0269 133.391 77.377 132.141 100.157 130.001C105.807 129.421 112.167 129.391 117.857 124.821C128.617 115.461 126.867 95.2412 127.377 81.9112C127.447 71.4612 127.027 49.1812 124.957 37.9212C123.477 29.9112 120.027 24.3512 114.717 21.3912Z" fill="#231F20"/>
<path d="M110.857 17.5312C109.597 16.8312 108.327 16.3312 107.107 15.9612C106.597 11.0912 104.827 4.78124 98.4071 1.67124C88.2371 -3.37876 77.0671 3.74121 76.0271 13.3312C67.5971 13.1012 59.1971 13.1312 50.8971 13.4512C49.6571 2.21124 35.6371 -4.13879 26.1471 3.08121C19.9471 8.53121 20.5271 12.2812 19.7171 16.8712C9.0371 19.2012 2.42708 29.1612 1.48708 39.9512C-1.08292 60.0612 0.0670891 82.7412 2.00709 100.431C2.65709 112.321 8.5771 123.271 21.6571 125.641C45.1671 129.531 73.5171 128.281 96.2971 126.141C101.947 125.561 108.307 125.531 113.997 120.961C124.757 111.601 123.007 91.3812 123.517 78.0512C123.587 67.6012 123.167 45.3212 121.097 34.0612C119.617 26.0512 116.167 20.4912 110.857 17.5312Z" fill="white"/>
<path d="M107.257 23.9812C105.507 23.0112 103.517 22.5912 101.517 22.3512C100.317 22.2012 99.947 21.7812 99.937 20.5512C99.887 16.1012 99.557 10.4312 95.187 8.31123C92.407 6.96123 88.907 7.11122 86.407 8.99122C84.387 10.5012 83.617 12.6812 83.227 15.0812C82.917 17.0112 82.727 18.9712 82.657 20.9512C69.827 20.3912 56.947 20.4012 44.127 21.1812C44.087 16.6512 43.947 10.5312 39.367 8.31123C36.587 6.96123 33.087 7.11122 30.587 8.99122C28.567 10.5012 27.797 12.6812 27.407 15.0812C27.067 17.1612 26.877 19.2912 26.817 21.4312C26.777 23.1012 27.187 22.8412 25.307 23.1812C20.037 24.1212 15.037 25.7712 12.027 30.6812C10.107 33.8112 9.307 37.4212 8.787 41.0112C7.387 50.7012 7.347 60.6112 7.507 70.3812C7.667 80.0912 8.097 89.8613 9.317 99.5013C9.697 102.461 10.027 105.561 11.017 108.401C12.977 113.981 17.397 117.241 23.117 118.411C28.717 119.551 34.537 119.931 40.237 120.261C46.617 120.621 53.017 120.731 59.417 120.691C71.447 120.621 83.527 120.101 95.487 118.801C99.987 118.311 105.627 118.311 109.257 115.291C112.487 112.601 113.907 107.991 114.587 103.971C116.037 95.3312 116.067 86.3812 116.117 77.6512C116.197 64.6312 115.537 44.6712 113.827 35.4212C113.027 31.0512 111.327 26.2512 107.257 23.9812Z" fill="#68182B"/>
<path d="M23.1171 66.9413C23.0871 65.3513 23.1371 63.7613 23.2371 62.1713C23.3871 59.6113 23.0971 59.4912 25.0971 58.9912C27.9371 58.2912 39.8071 56.6112 41.1271 59.9612C42.2371 62.7912 41.7771 66.7512 41.7371 69.7412C41.7371 70.0012 41.7371 70.8313 41.7071 71.7013C41.6471 74.2013 40.9271 74.4212 38.4171 74.8713C34.6971 75.5413 30.0271 75.9912 26.0171 75.2712C24.7171 75.0412 23.4571 74.3712 23.2171 72.4912C22.9671 70.5912 23.1371 68.2613 23.1171 66.9413Z" fill="#FFC522"/>
<path d="M41.7469 95.9012C41.7769 97.4912 41.7269 99.0812 41.6269 100.671C41.4769 103.231 41.7669 103.351 39.7669 103.851C37.6769 104.371 30.7069 105.411 26.6369 104.591C23.8469 104.031 23.5869 103.031 23.2369 101.071C22.7869 98.5112 23.0869 95.4912 23.1169 93.1012C23.1169 92.8212 23.1269 91.8612 23.1469 90.9012C23.2069 88.6112 24.4269 88.3312 26.4369 87.9712C29.9269 87.3412 34.2469 86.9112 38.0869 87.4512C40.6969 87.8112 41.4969 88.7512 41.6969 90.8012C41.8769 92.6112 41.7269 94.6812 41.7469 95.9012Z" fill="#FFC522"/>
<path d="M52.4772 66.9413C52.4472 65.3513 52.4972 63.7613 52.5972 62.1713C52.7472 59.6113 52.4572 59.4912 54.4572 58.9912C57.2972 58.2912 69.1672 56.6112 70.4872 59.9612C71.6072 62.7912 71.1372 66.7512 71.1072 69.7412C71.0672 72.7112 70.8572 74.3213 67.7872 74.8713C64.1272 75.5212 59.5672 75.9713 55.5972 75.3113C53.2772 74.9313 52.8872 75.3212 52.5472 72.2412C52.3472 70.3812 52.4972 68.2013 52.4772 66.9413Z" fill="#FFC522"/>
<path d="M87.007 17.1712C87.297 14.5312 87.587 12.4812 89.817 11.7012C91.107 11.2512 94.457 10.8212 95.337 15.2312C95.717 17.1012 95.827 19.1912 95.867 21.3312C95.877 22.0212 95.677 27.7612 95.457 29.4312C95.107 32.0812 94.737 34.5412 92.207 35.1812C89.127 35.9612 87.827 33.5412 87.287 30.4812C86.567 26.4012 86.527 21.5212 87.007 17.1712Z" fill="#DDA96B"/>
<path d="M31.1869 17.1713C31.2169 16.8613 31.4869 13.4913 32.9569 12.2613C34.6069 10.8713 37.5169 11.6613 38.2969 12.4413C39.3169 13.4613 39.6669 15.8513 39.7969 16.8913C39.9669 18.3013 40.0369 19.8013 40.0569 21.3213C40.1069 24.0213 40.0069 26.7513 39.6469 29.4213C39.2569 32.4113 38.5569 35.4013 35.4169 35.2813C33.2169 35.1913 32.0669 33.8413 31.4769 30.4713C30.7469 26.4013 30.7069 21.5213 31.1869 17.1713Z" fill="#DDA96B"/>
<path d="M12.387 44.1712C12.947 38.2312 14.267 31.7012 19.697 28.9212C21.917 27.7912 24.467 27.3312 26.957 26.9612C27.077 28.4412 27.257 29.9012 27.497 31.3412C27.957 34.1012 28.777 36.2912 31.147 37.9612C33.227 39.4312 35.827 39.7212 38.097 38.9412C41.827 37.6612 42.9171 34.9912 43.5671 30.4412C43.8171 28.7112 43.967 26.9712 44.047 25.2312C56.897 24.4512 69.797 24.4412 82.657 25.0012C82.747 27.1412 82.967 29.2611 83.317 31.3311C83.777 34.0911 84.597 36.2812 86.967 37.9512C89.397 39.6612 92.507 39.7812 94.997 38.4712C97.937 36.9212 98.777 34.7612 99.387 30.4412C99.587 29.0312 99.7271 27.6212 99.817 26.2112C102.117 26.4112 104.557 26.7412 106.277 28.2312C108.047 29.7712 108.867 32.1912 109.447 34.4012C110.197 37.2412 110.447 39.9012 110.737 42.7812C111.017 45.6012 110.587 45.8812 108.237 45.7512C77.167 44.0212 45.937 44.0312 14.897 46.2812C12.927 46.4412 12.187 46.3412 12.387 44.1712Z" fill="#00EBED"/>
<path d="M100.477 95.9012C100.507 97.4912 100.457 99.0812 100.357 100.671C100.207 103.231 100.497 103.351 98.4972 103.851C95.6572 104.551 83.7872 106.231 82.4672 102.881C81.3572 100.051 81.8172 96.0912 81.8572 93.1012C81.9072 89.4812 82.4772 88.4512 85.1772 87.9712C88.7572 87.3312 93.2172 86.8912 97.1272 87.4912C100.307 87.9812 100.317 88.7112 100.477 91.3912C100.567 93.0512 100.457 94.8212 100.477 95.9012Z" fill="#FF2E60"/>
<path d="M81.8371 66.9413C81.8071 65.3513 81.8571 63.7613 81.9571 62.1713C82.1071 59.6113 81.8171 59.4912 83.8171 58.9912C86.6571 58.2912 98.5271 56.6112 99.8471 59.9612C100.967 62.7912 100.497 66.7512 100.467 69.7412C100.427 73.0112 100.027 74.3512 97.1471 74.8713C93.8871 75.4513 89.9071 75.8712 86.2671 75.4912C83.6371 75.2112 82.0771 74.3913 81.8671 71.8713C81.7271 70.1012 81.8571 68.1213 81.8371 66.9413Z" fill="#FFC522"/>
<path d="M112.047 70.9512C111.987 65.0512 111.857 59.1412 111.537 53.2412C111.387 50.5712 110.997 49.9812 107.877 49.8112C77.1572 48.1112 46.2972 48.1212 15.6072 50.3212C12.9572 50.5112 11.8871 51.0412 11.7671 53.7312C11.3871 61.8912 11.4972 70.0912 11.8072 78.2412C12.1272 86.4912 12.5072 94.9112 13.9272 103.021C14.4672 106.131 15.2372 109.311 17.6472 111.541C21.3572 114.981 27.5672 115.101 32.3372 115.571C44.2572 116.751 56.3072 116.791 68.2672 116.451C78.7971 116.151 89.3972 115.611 99.8472 114.201C101.867 113.921 104.127 113.791 105.907 112.711C107.967 111.471 108.957 109.081 109.677 106.891C110.627 104.031 110.947 101.311 111.227 98.4112C112.077 89.3012 112.137 80.1012 112.047 70.9512ZM21.8372 55.7512C25.6072 54.2112 30.2372 54.1412 34.2472 54.2312C36.4472 54.2812 41.6672 53.8212 43.3172 55.7712C46.2072 59.1812 45.8872 64.3012 45.8372 68.5112C45.8072 71.2712 46.3472 76.6112 43.1172 77.8712C38.0972 79.8212 30.4972 80.4712 24.7272 79.2212C21.6772 78.5612 20.4471 78.2412 19.5171 74.4512C18.8171 71.5912 19.0172 68.1212 19.0472 65.6612C19.0872 62.8512 18.5572 57.1012 21.8372 55.7512ZM43.0372 107.091C39.2672 108.631 34.6371 108.701 30.6271 108.611C29.3071 108.581 26.9072 108.731 24.8372 108.441C22.1172 108.051 20.5672 106.971 19.5672 103.021C18.8572 100.221 19.0072 97.0812 19.0372 94.3312C19.0672 91.5712 18.5272 86.2312 21.7572 84.9712C27.4772 82.7412 36.5471 82.2112 42.4471 84.2612C42.8471 84.3012 43.2572 84.4912 43.6272 84.8712C46.2972 87.7212 45.8872 93.5412 45.8372 97.1712C45.7872 99.9912 46.3072 105.751 43.0372 107.091ZM51.1971 55.7512C54.9671 54.2112 59.5971 54.1412 63.6071 54.2312C65.8071 54.2812 71.0272 53.8212 72.6772 55.7712C75.5672 59.1812 75.2471 64.3012 75.1971 68.5112C75.1671 71.2712 75.7072 76.6112 72.4772 77.8712C66.7572 80.1012 57.6872 80.6312 51.7872 78.5912C51.3872 78.5512 50.9772 78.3612 50.6172 77.9812C47.9472 75.1412 48.3572 69.3112 48.4072 65.6812C48.4472 62.8512 47.9271 57.1012 51.1971 55.7512ZM72.3972 107.091C68.6272 108.631 64.0072 108.701 59.9972 108.611C57.7972 108.561 52.5772 109.021 50.9272 107.071C48.0372 103.661 48.3572 98.5412 48.4072 94.3312C48.4372 91.5712 47.8972 86.2312 51.1272 84.9712C56.8472 82.7412 65.9172 82.2112 71.8172 84.2612C72.2172 84.3012 72.6272 84.4912 72.9872 84.8712C75.6572 87.7112 75.2471 93.5412 75.1971 97.1712C75.1471 99.9912 75.6672 105.751 72.3972 107.091ZM80.5672 55.7512C84.3372 54.2112 88.9672 54.1412 92.9672 54.2312C95.1672 54.2812 100.387 53.8212 102.037 55.7712C104.927 59.1812 104.607 64.3012 104.557 68.5112C104.527 71.2712 105.067 76.6112 101.837 77.8712C96.8272 79.8212 89.2572 80.4712 83.4972 79.2312C80.5772 78.6012 79.3772 78.5212 78.3472 74.8512C77.5172 71.9112 77.7372 68.2412 77.7772 65.6612C77.8072 62.8512 77.2872 57.1012 80.5672 55.7512ZM101.757 107.091C97.9872 108.631 93.3671 108.701 89.3571 108.611C87.1572 108.561 81.9372 109.021 80.2872 107.071C77.3972 103.661 77.7171 98.5412 77.7672 94.3312C77.7971 91.5712 77.2571 86.2312 80.4872 84.9712C86.2072 82.7412 95.2771 82.2112 101.167 84.2612C101.567 84.3012 101.977 84.4912 102.337 84.8712C105.007 87.7112 104.597 93.5412 104.547 97.1712C104.517 99.9912 105.037 105.751 101.757 107.091Z" fill="#E5E5E5"/>
<path d="M71.1169 95.9013C71.1469 97.4913 71.0969 99.0813 70.9969 100.671C70.8469 103.231 71.1369 103.351 69.1369 103.851C66.2969 104.551 54.4269 106.231 53.1069 102.881C51.9869 100.051 52.4569 96.0913 52.4869 93.1013C52.5269 89.6713 52.9469 88.4813 55.8069 87.9713C59.3169 87.3413 63.6669 86.9112 67.5269 87.4612C69.8069 87.7812 70.8769 88.8913 71.0669 90.7513C71.2369 92.5713 71.0969 94.6713 71.1169 95.9013Z" fill="#FFC522"/>
<path d="M110.747 42.7912C110.657 41.8312 110.557 40.9112 110.447 39.9912C109.597 41.3512 108.137 42.4112 105.797 42.9912C101.347 44.0912 96.407 43.3512 91.867 43.2812C81.617 43.1112 71.3671 43.1912 61.127 43.2812C51.077 43.3712 41.017 43.5012 30.967 43.7812C27.657 43.8712 24.327 44.1512 21.017 44.1412C18.547 44.1412 15.807 43.6912 14.367 41.4612C13.637 40.3312 13.457 38.9112 13.517 37.4612C12.917 39.6212 12.597 41.9412 12.387 44.1612C12.187 46.3312 12.927 46.4312 14.897 46.2912C45.937 44.0412 77.167 44.0312 108.237 45.7612C110.597 45.8912 111.027 45.6112 110.747 42.7912Z" fill="#19BFBB"/>
<path d="M27.9371 33.3012C27.7571 32.6812 27.6171 32.0312 27.5071 31.3512C27.2671 29.9112 27.0871 28.4412 26.9671 26.9712C24.4671 27.3312 21.9271 27.7912 19.7071 28.9312C17.8771 29.8712 16.5271 31.2412 15.4971 32.8612C17.3471 31.7812 19.2771 30.9112 21.4871 30.3312C24.0271 29.6412 26.1571 31.3412 27.9371 33.3012Z" fill="#6CFFFB"/>
<path d="M106.287 28.2412C104.567 26.7412 102.127 26.4212 99.827 26.2212C99.737 27.6412 99.597 29.0512 99.397 30.4512C99.147 32.1812 98.857 33.5512 98.417 34.6912C98.957 34.2012 99.447 33.6112 99.877 32.9912C101.187 31.1112 102.177 29.6512 104.707 29.6812C105.847 29.7012 106.957 30.0212 108.017 30.4912C107.567 29.6512 107.007 28.8712 106.287 28.2412Z" fill="#6CFFFB"/>
<path d="M77.537 28.2812C79.657 28.6812 81.507 29.7212 83.267 30.9212C82.957 28.9812 82.747 27.0112 82.667 25.0212C69.807 24.4612 56.907 24.4712 44.057 25.2512C43.977 26.9912 43.827 28.7312 43.577 30.4612C43.457 31.3112 43.307 32.0712 43.147 32.7912C43.347 32.5212 43.547 32.2512 43.757 31.9912C45.137 30.2812 47.187 29.4912 49.247 29.0012C53.947 27.8812 59.097 27.9012 63.907 27.8312C68.357 27.7512 73.157 27.4412 77.537 28.2812Z" fill="#6CFFFB"/>
<path d="M94.0768 28.8612C92.7068 31.2512 90.8168 32.1312 88.9268 29.6712C87.5268 27.8612 87.1968 25.6212 86.6968 23.4712C86.7168 25.9012 86.9068 28.3012 87.2868 30.4812C87.8268 33.5512 89.1268 35.9712 92.2068 35.1812C94.7368 34.5312 95.1068 32.0812 95.4568 29.4312C95.5668 28.6412 95.6668 26.9412 95.7368 25.2912C95.2468 26.5312 94.7168 27.7412 94.0768 28.8612Z" fill="#C48D51"/>
<path d="M37.7868 30.2512C35.7268 32.8612 33.7868 31.4612 32.2868 29.1012C31.5568 27.9512 31.1968 26.6712 30.9268 25.3712C31.0068 27.1412 31.1868 28.8712 31.4668 30.4812C32.0568 33.8512 33.2068 35.2012 35.4068 35.2912C38.5568 35.4112 39.2468 32.4212 39.6368 29.4312C39.7568 28.5012 39.8468 27.5712 39.9068 26.6312C39.3268 27.9012 38.6768 29.1312 37.7868 30.2512Z" fill="#C48D51"/>
<path d="M93.397 13.7112C94.347 14.2312 95.007 15.1712 95.497 16.1512C95.447 15.8412 95.407 15.5312 95.347 15.2312C94.467 10.8212 91.117 11.2512 89.827 11.7012C87.987 12.3412 87.477 13.8512 87.187 15.8412C88.557 13.6812 90.587 12.1612 93.397 13.7112Z" fill="#F4C38E"/>
<path d="M36.5171 13.5612C38.1971 13.8612 39.1371 15.2812 39.7671 16.8412C39.6371 15.7712 39.2771 13.4612 38.2771 12.4512C37.4971 11.6712 34.5971 10.8712 32.9371 12.2712C31.9571 13.0912 31.5171 14.8712 31.3271 16.0512C32.4671 14.3212 34.0371 13.1212 36.5171 13.5612Z" fill="#F4C38E"/>
<path d="M63.377 73.9912C61.537 74.0312 59.657 73.9612 57.817 73.9012C55.327 73.8112 53.487 73.1512 52.457 70.6012C52.467 71.1512 52.497 71.7112 52.557 72.2412C52.897 75.3212 53.287 74.9312 55.607 75.3112C59.577 75.9712 64.137 75.5212 67.797 74.8712C70.867 74.3212 71.077 72.7112 71.117 69.7412C71.137 68.4812 71.217 67.0412 71.237 65.5912C71.147 66.6312 71.017 67.6812 70.787 68.7212C69.927 72.6112 67.037 73.9212 63.377 73.9912Z" fill="#FFA222"/>
<path d="M34.2371 73.9912C32.3971 74.0312 30.5171 73.9612 28.6771 73.9012C26.1071 73.8112 24.2171 73.1212 23.2071 70.3612C23.1571 70.2212 23.1171 70.0812 23.0771 69.9312C23.0771 70.7912 23.1071 71.6812 23.2171 72.4912C23.4671 74.3712 24.7171 75.0412 26.0171 75.2712C30.0371 75.9812 34.6971 75.5312 38.4171 74.8712C40.9271 74.4212 41.6471 74.2012 41.7071 71.7012C41.7271 70.8312 41.7271 70.0012 41.7371 69.7412C41.7471 69.1412 41.7671 68.4912 41.7971 67.8312C41.7471 68.1312 41.6971 68.4212 41.6371 68.7212C40.7971 72.6112 37.8971 73.9212 34.2371 73.9912Z" fill="#FFA222"/>
<path d="M41.6371 97.6812C40.7971 101.571 37.8971 102.871 34.2371 102.951C32.3971 102.991 30.5171 102.921 28.6771 102.861C26.1071 102.771 24.2171 102.081 23.2071 99.3212C23.1371 99.1212 23.0771 98.9112 23.0171 98.7012C23.0471 99.5112 23.1071 100.311 23.2371 101.071C23.5871 103.031 23.8471 104.031 26.6371 104.591C30.7071 105.411 37.6771 104.361 39.7671 103.851C41.7671 103.361 41.4771 103.231 41.6271 100.671C41.6971 99.4812 41.7271 98.2912 41.7371 97.1012C41.7071 97.3012 41.6771 97.4912 41.6371 97.6812Z" fill="#FFA222"/>
<path d="M100.227 68.7212C99.3871 72.6112 96.4871 73.9112 92.8271 73.9912C90.9871 74.0312 89.1071 73.9612 87.2671 73.9012C84.7071 73.8112 82.8171 73.1312 81.8071 70.4012C81.8171 70.8912 81.8271 71.3912 81.8771 71.8812C82.0871 74.4012 83.6471 75.2312 86.2771 75.5012C89.9171 75.8812 93.8971 75.4712 97.1571 74.8812C100.037 74.3612 100.437 73.0212 100.477 69.7512C100.487 68.7912 100.547 67.7212 100.577 66.6212C100.487 67.3112 100.377 68.0212 100.227 68.7212Z" fill="#FFA222"/>
<path d="M63.3768 102.951C61.5368 102.991 59.6568 102.921 57.8168 102.861C55.3068 102.771 53.4468 102.101 52.4268 99.5012C52.5168 100.711 52.7068 101.871 53.1068 102.881C54.4268 106.231 66.2967 104.551 69.1367 103.851C71.1367 103.351 70.8468 103.231 70.9968 100.671C71.0868 99.0812 71.1368 97.4912 71.1168 95.9012C71.1168 95.8012 71.1168 95.6912 71.1168 95.5812C71.0268 96.2812 70.9268 96.9812 70.7768 97.6812C69.9268 101.571 67.0368 102.881 63.3768 102.951Z" fill="#FFA222"/>
<path d="M27.9172 60.7412C26.4572 60.9112 25.7872 61.7712 25.4872 63.1112C25.0172 65.2512 25.3972 66.9012 26.5472 67.8512C27.3072 68.4712 28.3972 68.7912 29.7872 68.7312C31.8372 68.6512 34.1272 68.6612 36.1472 68.3412C37.7672 68.0812 38.9272 66.9912 39.3172 65.3212C39.6072 64.0912 39.4672 62.8212 38.9772 61.8712C38.4172 60.7712 37.7672 60.4312 36.8772 60.3712C36.1972 60.3112 30.0472 60.4912 27.9172 60.7412Z" fill="#FBE134"/>
<path d="M27.9172 90.2212C26.4572 90.3912 25.7872 91.2512 25.4872 92.5912C25.0172 94.7312 25.3972 96.3812 26.5472 97.3312C27.3072 97.9512 28.3972 98.2712 29.7872 98.2212C31.8372 98.1412 34.1272 98.1512 36.1472 97.8312C37.7672 97.5712 38.9272 96.4812 39.3172 94.8112C39.6072 93.5812 39.4672 92.3112 38.9772 91.3612C38.4172 90.2612 37.7672 89.9212 36.8772 89.8612C36.1972 89.7812 30.0472 89.9712 27.9172 90.2212Z" fill="#FBE134"/>
<path d="M57.1672 60.7412C55.7072 60.9112 55.0372 61.7712 54.7372 63.1112C54.2672 65.2512 54.6472 66.9012 55.7972 67.8512C56.5572 68.4712 57.6472 68.7912 59.0372 68.7312C61.0872 68.6512 63.3772 68.6612 65.3972 68.3412C67.0172 68.0812 68.1772 66.9912 68.5672 65.3212C68.8472 64.0912 68.7172 62.8212 68.2272 61.8712C67.6672 60.7712 67.0172 60.4312 66.1272 60.3712C65.4572 60.3112 59.3072 60.4912 57.1672 60.7412Z" fill="#FBE134"/>
<path d="M86.7272 60.7412C85.2672 60.9112 84.5972 61.7712 84.2972 63.1112C83.8272 65.2512 84.2072 66.9012 85.3572 67.8512C86.1172 68.4712 87.2072 68.7912 88.5972 68.7312C90.6472 68.6512 92.9372 68.6612 94.9572 68.3412C96.5772 68.0812 97.7372 66.9912 98.1272 65.3212C98.4072 64.0912 98.2772 62.8212 97.7872 61.8712C97.2272 60.7712 96.5772 60.4312 95.6872 60.3712C95.0172 60.3112 88.8672 60.4912 86.7272 60.7412Z" fill="#FBE134"/>
<path d="M57.1672 90.2212C55.7072 90.3912 55.0372 91.2512 54.7372 92.5912C54.2672 94.7312 54.6472 96.3812 55.7972 97.3312C56.5572 97.9512 57.6472 98.2712 59.0372 98.2212C61.0872 98.1412 63.3772 98.1512 65.3972 97.8312C67.0172 97.5712 68.1772 96.4812 68.5672 94.8112C68.8472 93.5812 68.7172 92.3112 68.2272 91.3612C67.6672 90.2612 67.0172 89.9212 66.1272 89.8612C65.4572 89.7812 59.3072 89.9712 57.1672 90.2212Z" fill="#FBE134"/>
<path d="M98.4972 103.851C100.497 103.361 100.207 103.231 100.357 100.671C100.417 99.7213 100.447 98.7712 100.467 97.8312C99.8072 100.141 98.5072 101.741 95.5972 102.571C92.7672 103.381 89.3271 103.371 86.4271 102.851C82.6271 102.171 82.9771 97.7613 83.1071 94.8513C83.1871 93.0613 83.1872 90.0713 84.3072 88.1613C82.3372 88.7213 81.8772 89.8912 81.8372 93.0912C81.7972 96.0712 81.3371 100.041 82.4471 102.871C83.7871 106.231 95.6572 104.551 98.4972 103.851Z" fill="#EA0F4D"/>
<path d="M93.977 89.6912C92.277 89.8112 90.357 90.0012 89.517 90.0912C88.017 90.2512 87.237 91.2512 86.977 92.6612C86.737 93.9412 86.597 96.3312 87.467 97.4212C88.577 98.8212 90.697 98.7312 92.337 98.7812C93.627 98.8312 95.967 98.9612 97.057 98.0412C98.147 97.1212 98.377 95.4812 98.467 94.0212C98.677 90.6312 96.657 89.5012 93.977 89.6912Z" fill="#FF6699"/>
<path d="M46.4672 95.2212C46.5572 91.4612 46.7372 87.2412 44.3372 84.1012C41.9972 81.0412 36.7572 82.0612 33.4972 82.1512C29.5772 82.2512 23.0572 81.7212 20.1472 84.9312C17.6372 87.7012 18.6672 94.0112 18.8672 97.2812C18.9072 97.8712 18.9672 98.4413 19.0472 99.0013C18.9772 97.4113 19.0272 95.8212 19.0472 94.3512C19.0772 91.5912 18.5372 86.2512 21.7672 84.9912C27.4872 82.7612 36.5572 82.2312 42.4572 84.2812C42.8572 84.3212 43.2672 84.5112 43.6372 84.8912C46.3072 87.7412 45.8972 93.5612 45.8472 97.1912C45.8272 98.5712 45.9372 100.661 45.6772 102.581C46.5272 100.301 46.4172 97.5512 46.4672 95.2212Z" fill="#C6C6C6"/>
<path d="M44.3372 55.4412C41.9972 52.3812 36.7572 53.4012 33.4972 53.4912C29.5772 53.5912 23.0572 53.0612 20.1472 56.2712C17.6372 59.0412 18.6672 65.3512 18.8672 68.6212C18.8972 69.1412 18.9472 69.6512 19.0172 70.1512C18.9672 68.5412 19.0372 66.9712 19.0472 65.6812C19.0872 62.8712 18.5672 57.1112 21.8372 55.7712C25.6072 54.2312 30.2372 54.1612 34.2472 54.2512C36.4472 54.3012 41.6673 53.8412 43.3173 55.7912C46.2073 59.2012 45.8872 64.3212 45.8372 68.5312C45.8172 69.9712 45.9572 72.1012 45.6372 74.0012C46.5372 71.7212 46.4173 68.9312 46.4773 66.5812C46.5673 62.8012 46.7372 58.5812 44.3372 55.4412Z" fill="#C6C6C6"/>
<path d="M75.6572 95.2212C75.7472 91.4612 75.9272 87.2412 73.5272 84.1012C71.1872 81.0412 65.9472 82.0612 62.6872 82.1512C58.7672 82.2512 52.2472 81.7212 49.3372 84.9312C46.8272 87.7012 47.8572 94.0112 48.0572 97.2812C48.1172 98.3612 48.2672 99.3913 48.4972 100.371C48.3072 98.3413 48.3872 96.2512 48.4072 94.3512C48.4372 91.5912 47.8972 86.2512 51.1272 84.9912C56.8472 82.7612 65.9172 82.2312 71.8172 84.2812C72.2172 84.3212 72.6272 84.5112 72.9872 84.8912C75.6572 87.7312 75.2472 93.5612 75.1972 97.1912C75.1772 98.3912 75.2572 100.111 75.1172 101.811C75.6872 99.6913 75.6072 97.2912 75.6572 95.2212Z" fill="#C6C6C6"/>
<path d="M105.007 95.2212C105.097 91.4612 105.277 87.2412 102.877 84.1012C100.537 81.0412 95.297 82.0612 92.037 82.1512C88.117 82.2512 81.587 81.7212 78.677 84.9312C76.167 87.7012 77.197 94.0112 77.397 97.2812C77.467 98.3812 77.607 99.4412 77.857 100.431C77.657 98.3813 77.737 96.2612 77.757 94.3412C77.787 91.5812 77.247 86.2412 80.477 84.9812C86.197 82.7512 95.267 82.2212 101.157 84.2712C101.557 84.3112 101.967 84.5012 102.327 84.8812C104.997 87.7212 104.587 93.5512 104.537 97.1812C104.517 98.3612 104.597 100.061 104.457 101.741C105.037 99.6512 104.957 97.2712 105.007 95.2212Z" fill="#C6C6C6"/>
<path d="M102.877 55.4412C100.537 52.3812 95.297 53.4012 92.037 53.4912C88.117 53.5912 81.587 53.0612 78.677 56.2712C76.167 59.0412 77.197 65.3512 77.397 68.6212C77.457 69.6512 77.587 70.6312 77.797 71.5712C77.637 69.4812 77.737 67.3512 77.757 65.6812C77.797 62.8712 77.277 57.1112 80.547 55.7712C84.317 54.2312 88.947 54.1612 92.947 54.2512C95.147 54.3012 100.367 53.8412 102.017 55.7912C104.907 59.2012 104.587 64.3212 104.537 68.5312C104.517 69.7412 104.617 71.4412 104.457 73.0812C105.017 71.0012 104.937 68.6312 104.987 66.5812C105.107 62.8012 105.277 58.5812 102.877 55.4412Z" fill="#C6C6C6"/>
<path d="M73.5272 55.4412C71.1872 52.3812 65.9472 53.4012 62.6872 53.4912C58.7672 53.5912 52.2472 53.0612 49.3372 56.2712C46.8272 59.0412 47.8572 65.3512 48.0572 68.6212C48.1172 69.6412 48.2472 70.6212 48.4572 71.5512C48.2972 69.4612 48.3872 67.3412 48.4072 65.6812C48.4472 62.8712 47.9272 57.1112 51.1972 55.7712C54.9672 54.2312 59.5972 54.1612 63.6072 54.2512C65.8072 54.3012 71.0272 53.8412 72.6772 55.7912C75.5672 59.2012 75.2472 64.3212 75.1972 68.5312C75.1772 69.7512 75.2772 71.4912 75.1172 73.1512C75.6972 71.0512 75.6172 68.6512 75.6672 66.5812C75.7572 62.8012 75.9272 58.5812 73.5272 55.4412Z" fill="#C6C6C6"/>
<path d="M111.217 98.4213C112.037 89.7013 112.127 80.9013 112.047 72.1413C111.867 81.0113 111.327 89.8812 109.887 98.5812C109.217 102.601 108.467 108.871 104.927 111.261C102.957 112.591 99.7469 112.571 97.4769 112.901C93.4869 113.481 89.4468 113.831 85.4268 114.171C69.8868 115.471 54.3468 115.741 38.7768 114.681C33.5368 114.321 27.9868 114.101 22.9468 112.531C13.8968 109.701 14.2668 97.4712 13.6468 89.7812C12.8268 79.6012 12.1168 69.3713 11.5668 59.1613C11.4268 65.5213 11.5368 71.8912 11.7868 78.2412C12.1068 86.4912 12.4869 94.9112 13.9069 103.021C14.4469 106.131 15.2168 109.311 17.6268 111.541C21.3368 114.981 27.5468 115.101 32.3168 115.571C44.2368 116.751 56.2868 116.791 68.2468 116.451C78.7768 116.151 89.3768 115.611 99.8268 114.201C101.847 113.921 104.107 113.791 105.887 112.711C107.947 111.471 108.937 109.081 109.657 106.891C110.627 104.031 110.947 101.311 111.217 98.4213Z" fill="#C6C6C6"/>
</svg>
