<svg width="130" height="130" viewBox="0 0 130 130" fill="none" xmlns="http://www.w3.org/2000/svg">
<path d="M129.58 64.79C129.58 100.57 100.57 129.58 64.79 129.58C29.01 129.58 0 100.57 0 64.79C0 29.01 29.01 0 64.79 0C100.57 0 129.58 29.01 129.58 64.79Z" fill="#E5E3D0"/>
<mask id="mask0_483_330" style="mask-type:luminance" maskUnits="userSpaceOnUse" x="0" y="0" width="130" height="130">
<path d="M129.58 64.79C129.58 100.57 100.57 129.58 64.79 129.58C29.01 129.58 0 100.57 0 64.79C0 29.01 29.01 0 64.79 0C100.57 0 129.58 29.01 129.58 64.79Z" fill="white"/>
</mask>
<g mask="url(#mask0_483_330)">
<path d="M116.86 132.75C116.48 140.94 81.4 140.02 67.06 139.3C52.71 140.02 17.63 140.94 17.25 132.75C16.77 122.45 20.13 115.05 23.72 113.37C25.39 112.6 32.38 111.41 39.37 110.36C41.47 110.05 43.58 109.75 45.53 109.48C51.01 108.71 55.34 108.17 55.34 108.17L67.06 109.45L78.77 108.17C78.77 108.17 82.99 108.71 88.38 109.45C90.4 109.74 92.59 110.04 94.77 110.37C101.75 111.4 108.72 112.59 110.39 113.37C113.99 115.05 117.34 122.45 116.86 132.75Z" fill="#BF9837"/>
<path d="M94.7801 110.37L71.8801 136.31C61.7801 133.28 44.5401 115.78 39.3701 110.36C41.4701 110.05 43.5801 109.75 45.5301 109.48C51.0101 108.71 55.3401 108.17 55.3401 108.17L67.0601 109.45L78.7701 108.17C78.7701 108.17 82.9901 108.71 88.3801 109.45C90.4101 109.74 92.5901 110.05 94.7801 110.37Z" fill="white"/>
<path d="M88.38 109.45C84.22 118.14 70.91 134.16 70.91 134.16C59.43 129.68 49.21 115.26 45.52 109.48C51 108.71 55.33 108.17 55.33 108.17L67.05 109.45L78.76 108.17C78.77 108.17 83 108.71 88.38 109.45Z" fill="#CD8B6D"/>
<path d="M49.8301 95.98C49.8301 95.98 51.5101 109.56 51.7501 113.64C51.7501 113.64 67.5601 123.74 80.7401 113.2C80.7401 113.2 80.9801 102.24 80.9801 95.99H49.8301V95.98Z" fill="#CD8B6D"/>
<path d="M95.48 52.0601C95.48 52.0601 108.52 41.8501 110.38 54.4001C112.24 66.9601 95.29 70.1601 95.29 70.1601L95.48 52.0601Z" fill="#CD8B6D"/>
<path d="M96.2299 57.8401C96.2299 57.8401 103.34 49.7601 104.82 53.6701C106.3 57.5801 105.03 62.1101 105.03 62.1101C105.03 62.1101 104.64 56.8901 100.45 59.2101C100.45 59.2101 102.84 67.8301 95.8299 64.4201C95.8299 64.4101 93.1699 61.5101 96.2299 57.8401Z" fill="#B66C50"/>
<path d="M33.1403 52.0601C33.1403 52.0601 20.1003 41.8501 18.2403 54.4001C16.3803 66.9601 33.3303 70.1601 33.3303 70.1601L33.1403 52.0601Z" fill="#CD8B6D"/>
<path d="M32.39 57.8401C32.39 57.8401 25.28 49.7601 23.8 53.6701C22.32 57.5801 23.59 62.1101 23.59 62.1101C23.59 62.1101 23.98 56.8901 28.17 59.2101C28.17 59.2101 25.78 67.8301 32.79 64.4201C32.79 64.4101 35.45 61.5101 32.39 57.8401Z" fill="#B66C50"/>
<path d="M52.8302 21.11C52.8302 21.11 38.3602 17.94 34.7402 31.51C31.1202 45.08 32.4802 60.46 31.1202 66.34C29.7602 72.22 28.8602 93.03 59.6202 102.08C59.6202 102.08 66.4002 103.89 74.5502 100.27C82.6902 96.65 95.1502 88.57 95.8102 77.65C96.5502 65.4 98.5302 51.41 94.9102 40.56C91.2802 29.71 74.5402 7.09002 52.8302 21.11Z" fill="#E8B299"/>
<path d="M65.05 45.54C65.05 45.54 62.79 43.28 62.34 51.42C61.89 59.56 62.34 68.16 62.34 68.16C62.34 68.16 56.91 64.99 58.72 69.52C59.7 71.96 62 73.21 64.42 73.86C66.54 74.43 68.09 73.71 69.48 72.35C70.12 71.72 73.48 68.32 72.42 67.26C71.91 66.75 68.96 67.97 68.21 68.16C68.21 68.16 69.12 43.73 65.05 45.54Z" fill="#CD8B6D"/>
<path d="M74.4402 40.6801C74.4402 40.6801 89.4702 36.9401 92.0702 50.8401C92.0702 50.8401 76.7602 44.4401 73.2402 47.5901L74.4402 40.6801Z" fill="#141E62"/>
<path d="M57.2299 40.99C57.2299 40.99 42.8599 35.19 38.3599 48.6C38.3599 48.6 54.4099 44.39 57.4599 47.99L57.2299 40.99Z" fill="#141E62"/>
<path d="M97.7498 33.54C94.3998 28.51 80.0198 22.52 80.0198 22.52L45.0398 22.76C45.0398 22.76 44.5598 29.95 62.5298 32.58C80.4998 35.22 95.7898 30.83 95.8098 50.51C95.8098 50.51 101.1 38.57 97.7498 33.54Z" fill="#CD8B6D"/>
<path d="M73.48 56.63C73.48 61.08 77.14 64.69 81.66 64.69C86.18 64.69 89.84 61.08 89.84 56.63C89.84 52.18 86.18 48.58 81.66 48.58C77.14 48.57 73.48 52.18 73.48 56.63Z" fill="white"/>
<path d="M86.6599 56.93C86.6599 60.55 84.3699 63.49 81.5499 63.49C78.7299 63.49 76.4399 60.55 76.4399 56.93C76.4399 53.31 78.7299 50.37 81.5499 50.37C84.3699 50.37 86.6599 53.31 86.6599 56.93Z" fill="#95BCD1"/>
<path d="M81.5402 61.59C83.5449 61.59 85.1702 59.5037 85.1702 56.93C85.1702 54.3564 83.5449 52.27 81.5402 52.27C79.5354 52.27 77.9102 54.3564 77.9102 56.93C77.9102 59.5037 79.5354 61.59 81.5402 61.59Z" fill="#141E62"/>
<path d="M85.4102 52.52C85.4102 53.22 84.5702 53.79 83.5302 53.79C82.4902 53.79 81.6602 53.22 81.6602 52.52C81.6602 51.82 82.5002 51.25 83.5302 51.25C84.5702 51.25 85.4102 51.82 85.4102 52.52Z" fill="white"/>
<path d="M75.98 50.41C75.77 50.73 76.04 51.21 76.43 51.19C78.8 51.05 80.79 50.38 83.21 50.91C85.54 51.42 88.86 52.75 89.53 55.32C89.63 55.7 90.14 55.58 90.18 55.23C90.78 49.17 79.11 45.52 75.98 50.41Z" fill="#141E62"/>
<path d="M40.8999 56.6301C40.8999 61.0801 44.5599 64.6901 49.0799 64.6901C53.5999 64.6901 57.2599 61.0801 57.2599 56.6301C57.2599 52.1801 53.5999 48.5801 49.0799 48.5801C44.5599 48.5701 40.8999 52.1801 40.8999 56.6301Z" fill="white"/>
<path d="M54.0701 56.9301C54.0701 60.5501 51.7801 63.4901 48.9601 63.4901C46.1401 63.4901 43.8501 60.5501 43.8501 56.9301C43.8501 53.3101 46.1401 50.3701 48.9601 50.3701C51.7801 50.3701 54.0701 53.3101 54.0701 56.9301Z" fill="#95BCD1"/>
<path d="M52.5901 56.9301C52.5901 59.5001 50.9601 61.5901 48.9601 61.5901C46.9501 61.5901 45.3301 59.5001 45.3301 56.9301C45.3301 54.3601 46.9601 52.2701 48.9601 52.2701C50.9701 52.2701 52.5901 54.3501 52.5901 56.9301Z" fill="#141E62"/>
<path d="M52.8301 52.5201C52.8301 53.2201 51.9901 53.7901 50.9501 53.7901C49.9101 53.7901 49.0801 53.2201 49.0801 52.5201C49.0801 51.8201 49.9201 51.2501 50.9501 51.2501C51.9901 51.2501 52.8301 51.8201 52.8301 52.5201Z" fill="white"/>
<path d="M54.6598 49.45C54.8698 49.77 54.5998 50.25 54.2098 50.23C51.8398 50.09 49.8598 49.42 47.4298 49.95C45.0998 50.46 41.7698 51.79 41.1098 54.35C41.0098 54.73 40.4998 54.61 40.4598 54.26C39.8598 48.21 51.5298 44.56 54.6598 49.45Z" fill="#141E62"/>
<path d="M49.2099 23.3701C38.3599 24.7301 32.9299 55.4901 32.4799 55.4901C31.7899 54.0601 31.1199 52.7101 30.4699 51.4301C30.0499 50.6101 29.6399 49.8001 29.2399 49.0101C27.6999 45.9901 26.3699 43.2801 25.3999 40.6101C24.8699 39.1601 24.4599 37.7201 24.1799 36.2601C23.5599 32.9101 23.6499 29.4001 24.7799 25.1801C27.9499 13.4101 45.5899 17.0301 45.5899 17.0301L45.9599 17.6901L46.5199 18.6701L49.2099 23.3701Z" fill="#141E62"/>
<path d="M46.5199 18.6801C46.3899 18.8001 46.1899 18.8401 45.9899 18.7501C42.8199 17.2701 37.6199 19.4701 34.7699 21.1101C30.9999 23.2801 27.8199 26.1201 26.4699 30.3901C25.3399 33.9401 25.2099 37.2401 25.3899 40.6201C24.8599 39.1701 24.4499 37.7301 24.1699 36.2701C24.5299 32.0701 25.8499 27.9801 28.3399 25.0801C31.8499 20.9901 40.2699 15.5501 45.9599 17.7101C46.1299 17.7701 46.3099 17.8501 46.4699 17.9201C46.8399 18.0801 46.7599 18.4801 46.5199 18.6801Z" fill="#343A80"/>
<path d="M47.0701 21.4401C31.6001 20.7401 30.3101 39.2601 30.4601 51.4301C30.0401 50.6101 29.6301 49.8001 29.2301 49.0101C28.6201 36.5601 32.9101 19.9601 47.0601 20.9601C47.3701 20.9901 47.3801 21.4501 47.0701 21.4401Z" fill="#343A80"/>
<path d="M95.8102 50.51L94.9002 40.56C92.1902 27.89 80.4302 34.23 60.5302 30.15C40.6302 26.08 41.8002 18 41.9802 16.58C42.2702 14.32 42.6802 12.78 43.2202 11.75C43.3802 11.43 43.5702 11.17 43.7602 10.94C45.2402 9.19003 47.4802 9.80003 50.6302 10.37C50.6902 10.39 50.7602 10.94 50.8102 10.95C51.4702 11.07 52.1702 11.63 52.9002 11.63H53.3302C55.2902 11.63 57.5502 11.32 60.1002 10.42C60.1602 10.4 60.2202 10.11 60.2802 10.09C60.3502 10.07 60.4202 9.92003 60.5002 9.90003L60.7102 9.77003L60.7502 9.73003C60.9002 9.70003 61.0602 9.65003 61.2202 9.58003C61.2502 9.57003 61.2802 9.55003 61.3102 9.54003C62.0802 9.22003 62.8802 8.88003 63.7002 8.41003C73.7302 2.73003 83.2802 5.47003 91.2302 13.14C91.2402 13.15 91.2402 13.15 91.2502 13.16C91.6502 13.53 92.0502 13.96 92.4502 14.38L92.4602 14.39C94.0602 16.08 95.5902 17.95 97.0502 20.01C97.0502 20.01 97.0502 20.02 97.0602 20.02C97.4002 20.51 97.7302 21.01 98.0602 21.52C98.3802 21.98 98.6802 22.46 98.9802 22.94C100.24 24.95 101.08 26.94 101.61 28.86C101.71 29.2 101.79 29.55 101.86 29.89C104.35 41.34 95.8102 50.51 95.8102 50.51Z" fill="#343A80"/>
<path d="M101.85 29.8701C98.1802 29.1201 94.4202 28.8701 91.3702 28.7401C83.4902 28.4001 75.6702 28.6001 67.9202 26.9401C61.4102 25.5401 55.2402 23.5801 49.8602 19.5401C47.0502 17.4301 45.0502 14.6701 43.2202 11.7601C43.3802 11.4401 43.5702 11.1801 43.7602 10.9501C44.8302 12.6001 45.8402 14.2901 47.1802 15.7301C49.8402 18.5901 52.9802 20.9701 56.5902 22.5301C64.7002 26.0201 73.6502 27.4501 82.4202 27.6301C87.5402 27.7401 94.9402 27.5401 101.61 28.8501C101.69 29.1901 101.78 29.5301 101.85 29.8701Z" fill="#4B55AA"/>
<path d="M98.0504 21.5C94.9104 21.11 91.7604 21.1 88.5804 21.39C82.6804 21.91 76.8604 22.4 70.9404 21.79C62.9604 20.96 55.3504 16.81 50.6104 10.37C50.6704 10.39 50.7404 10.4 50.7904 10.41C51.4504 10.52 52.1504 10.54 52.8804 10.54C56.2604 13.85 59.6403 16.9 64.4903 18.5C70.5003 20.48 76.7804 20.66 83.0504 20.34C87.6204 20.1 92.4204 19.49 97.0404 20C97.3804 20.5 97.7204 21 98.0504 21.5Z" fill="#4B55AA"/>
<path d="M92.4503 14.37C83.6003 20.71 69.1803 17.23 60.0903 9.87005L60.7003 9.70005L60.7403 9.69005L61.2103 9.55005C65.1103 12.51 69.7003 14.7 73.6703 15.54C80.2903 16.95 85.8203 15.95 91.2503 13.14C91.6503 13.51 92.0503 13.94 92.4503 14.36V14.37Z" fill="#4B55AA"/>
<path d="M84.9404 74.5C84.8704 74.68 83.8204 77.23 82.0504 80.43C81.8304 80.82 81.6004 81.22 81.3604 81.63C78.8504 85.89 75.2004 90.91 70.9304 93.04C64.1604 96.42 55.2004 93.1 47.4204 82.25C47.3204 82.11 47.2204 81.96 47.1204 81.82C45.6504 79.73 44.2304 77.37 42.8804 74.75C42.8804 74.75 47.8504 75.85 58.7104 77.2C69.4004 78.54 84.4504 74.62 84.9404 74.5Z" fill="white"/>
<path d="M82.0506 80.4301C81.8306 80.8201 81.6006 81.2201 81.3606 81.6301C76.3006 82.7001 71.1706 83.4001 66.1406 83.5801C59.9806 83.8001 53.4606 83.8101 47.4206 82.2601C47.3206 82.1201 47.2206 81.9701 47.1206 81.8301C53.7906 83.5801 61.2906 83.4701 67.9206 82.8701C72.7506 82.4301 77.4106 81.5101 82.0506 80.4301Z" fill="#CD8B6D"/>
<path d="M47.1402 73.5599C44.8502 72.9199 42.2202 74.3399 40.4502 75.6799C40.1402 75.9199 40.4202 76.4499 40.7702 76.2199C41.7102 75.6099 42.7302 75.1799 43.7902 74.8099C44.8902 74.4199 46.0502 74.3799 47.1502 74.0199C47.3602 73.9499 47.3802 73.6199 47.1402 73.5599Z" fill="#CD8B6D"/>
<path d="M87.9703 75.06C87.5103 74.27 86.6003 74.01 85.7903 73.67C84.9103 73.3 84.0103 72.99 83.1203 72.66C82.6603 72.49 82.3703 73.21 82.7903 73.44C83.5803 73.88 84.3803 74.3 85.2003 74.68C85.9803 75.05 86.7803 75.62 87.6803 75.56C87.9303 75.55 88.1103 75.29 87.9703 75.06Z" fill="#CD8B6D"/>
</g>
</svg>
