<svg width="334" height="54" viewBox="0 0 334 54" fill="none" xmlns="http://www.w3.org/2000/svg">
<rect width="334" height="54" rx="27" fill="#88EAFB"/>
<path d="M120.565 41.5373V18.2646H134.611V20.7646H123.384V28.6282H133.884V31.1282H123.384V39.0373H134.793V41.5373H120.565ZM151.69 27.9919L149.281 28.6737C149.13 28.2722 148.906 27.882 148.611 27.5032C148.323 27.1169 147.929 26.7987 147.429 26.5487C146.929 26.2987 146.289 26.1737 145.509 26.1737C144.44 26.1737 143.55 26.4199 142.838 26.9123C142.134 27.3972 141.781 28.0146 141.781 28.7646C141.781 29.4312 142.024 29.9578 142.509 30.3441C142.994 30.7305 143.751 31.0525 144.781 31.31L147.372 31.9464C148.933 32.3252 150.096 32.9047 150.861 33.685C151.626 34.4578 152.009 35.454 152.009 36.6737C152.009 37.6737 151.721 38.5676 151.145 39.3555C150.577 40.1434 149.781 40.7646 148.759 41.2191C147.736 41.6737 146.547 41.9009 145.19 41.9009C143.41 41.9009 141.937 41.5146 140.77 40.7419C139.603 39.9691 138.865 38.8403 138.554 37.3555L141.1 36.7191C141.342 37.6585 141.8 38.3631 142.475 38.8328C143.156 39.3025 144.047 39.5373 145.145 39.5373C146.395 39.5373 147.387 39.2722 148.122 38.7419C148.865 38.204 149.236 37.56 149.236 36.81C149.236 36.204 149.024 35.6964 148.6 35.2873C148.175 34.8706 147.524 34.56 146.645 34.3555L143.736 33.6737C142.137 33.2949 140.963 32.7078 140.213 31.9123C139.471 31.1093 139.1 30.1055 139.1 28.9009C139.1 27.9161 139.376 27.0449 139.929 26.2873C140.49 25.5297 141.251 24.935 142.213 24.5032C143.183 24.0714 144.281 23.8555 145.509 23.8555C147.236 23.8555 148.592 24.2343 149.577 24.9919C150.569 25.7494 151.274 26.7494 151.69 27.9919ZM163.137 41.9009C161.5 41.9009 160.091 41.5146 158.909 40.7419C157.727 39.9691 156.818 38.9047 156.182 37.5487C155.546 36.1926 155.227 34.6434 155.227 32.9009C155.227 31.1282 155.553 29.5638 156.205 28.2078C156.864 26.8441 157.78 25.7797 158.955 25.0146C160.137 24.2419 161.515 23.8555 163.091 23.8555C164.318 23.8555 165.424 24.0828 166.409 24.5373C167.394 24.9919 168.201 25.6282 168.83 26.4464C169.458 27.2646 169.849 28.2191 170 29.31H167.318C167.114 28.5146 166.659 27.81 165.955 27.1964C165.258 26.5752 164.318 26.2646 163.137 26.2646C162.091 26.2646 161.174 26.5373 160.387 27.0828C159.606 27.6206 158.996 28.382 158.557 29.3669C158.125 30.3441 157.909 31.4919 157.909 32.81C157.909 34.1585 158.121 35.3328 158.546 36.3328C158.977 37.3328 159.583 38.1093 160.364 38.6623C161.152 39.2153 162.076 39.4919 163.137 39.4919C163.833 39.4919 164.466 39.3706 165.034 39.1282C165.602 38.8858 166.083 38.5373 166.477 38.0828C166.871 37.6282 167.152 37.0828 167.318 36.4464H170C169.849 37.4767 169.474 38.4047 168.875 39.2305C168.284 40.0487 167.5 40.7002 166.523 41.185C165.553 41.6623 164.424 41.9009 163.137 41.9009ZM181.012 41.9009C179.436 41.9009 178.053 41.5259 176.864 40.7759C175.682 40.0259 174.758 38.9767 174.091 37.6282C173.432 36.2797 173.102 34.704 173.102 32.9009C173.102 31.0828 173.432 29.4956 174.091 28.1396C174.758 26.7835 175.682 25.7305 176.864 24.9805C178.053 24.2305 179.436 23.8555 181.012 23.8555C182.587 23.8555 183.966 24.2305 185.148 24.9805C186.337 25.7305 187.262 26.7835 187.921 28.1396C188.587 29.4956 188.921 31.0828 188.921 32.9009C188.921 34.704 188.587 36.2797 187.921 37.6282C187.262 38.9767 186.337 40.0259 185.148 40.7759C183.966 41.5259 182.587 41.9009 181.012 41.9009ZM181.012 39.4919C182.208 39.4919 183.193 39.185 183.966 38.5714C184.739 37.9578 185.311 37.1509 185.682 36.1509C186.053 35.1509 186.239 34.0676 186.239 32.9009C186.239 31.7343 186.053 30.6472 185.682 29.6396C185.311 28.632 184.739 27.8176 183.966 27.1964C183.193 26.5752 182.208 26.2646 181.012 26.2646C179.815 26.2646 178.83 26.5752 178.057 27.1964C177.284 27.8176 176.712 28.632 176.341 29.6396C175.97 30.6472 175.784 31.7343 175.784 32.9009C175.784 34.0676 175.97 35.1509 176.341 36.1509C176.712 37.1509 177.284 37.9578 178.057 38.5714C178.83 39.185 179.815 39.4919 181.012 39.4919ZM195.696 18.2646V41.5373H193.014V18.2646H195.696ZM205.744 41.9464C204.638 41.9464 203.635 41.7381 202.733 41.3214C201.832 40.8972 201.116 40.2873 200.585 39.4919C200.055 38.6888 199.79 37.7191 199.79 36.5828C199.79 35.5828 199.987 34.7722 200.381 34.1509C200.775 33.5222 201.301 33.0297 201.96 32.6737C202.619 32.3176 203.347 32.0525 204.142 31.8782C204.945 31.6964 205.752 31.5525 206.563 31.4464C207.623 31.31 208.483 31.2078 209.142 31.1396C209.809 31.0638 210.294 30.9388 210.597 30.7646C210.907 30.5903 211.063 30.2873 211.063 29.8555V29.7646C211.063 28.6434 210.756 27.7722 210.142 27.1509C209.536 26.5297 208.616 26.2191 207.381 26.2191C206.101 26.2191 205.097 26.4994 204.369 27.06C203.642 27.6206 203.131 28.2191 202.835 28.8555L200.29 27.9464C200.744 26.8858 201.351 26.06 202.108 25.4691C202.873 24.8706 203.707 24.454 204.608 24.2191C205.517 23.9767 206.411 23.8555 207.29 23.8555C207.851 23.8555 208.494 23.9237 209.222 24.06C209.957 24.1888 210.665 24.4578 211.347 24.8669C212.036 25.2759 212.608 25.8934 213.063 26.7191C213.517 27.5449 213.744 28.6509 213.744 30.0373V41.5373H211.063V39.1737H210.926C210.744 39.5525 210.441 39.9578 210.017 40.3896C209.593 40.8214 209.029 41.1888 208.324 41.4919C207.619 41.7949 206.76 41.9464 205.744 41.9464ZM206.154 39.5373C207.214 39.5373 208.108 39.329 208.835 38.9123C209.57 38.4956 210.123 37.9578 210.494 37.2987C210.873 36.6396 211.063 35.9464 211.063 35.2191V32.7646C210.949 32.9009 210.699 33.0259 210.313 33.1396C209.934 33.2456 209.494 33.3403 208.994 33.4237C208.502 33.4994 208.021 33.5676 207.551 33.6282C207.089 33.6812 206.714 33.7267 206.426 33.7646C205.729 33.8555 205.078 34.0032 204.472 34.2078C203.873 34.4047 203.388 34.704 203.017 35.1055C202.654 35.4994 202.472 36.0373 202.472 36.7191C202.472 37.6509 202.816 38.3555 203.506 38.8328C204.203 39.3025 205.085 39.5373 206.154 39.5373Z" fill="black"/>
<path d="M38.5073 13.1716C46.6674 13.1716 53.2476 19.7433 53.2476 27.8064C53.2473 35.8693 46.6673 42.4402 38.5073 42.4402C30.3474 42.4402 23.7673 35.8693 23.7671 27.8064C23.7671 19.7433 30.3473 13.1717 38.5073 13.1716Z" stroke="white" stroke-width="7"/>
</svg>
