<svg width="334" height="54" viewBox="0 0 334 54" fill="none" xmlns="http://www.w3.org/2000/svg">
<rect width="334" height="54" rx="27" fill="#88EAFB"/>
<path d="M74.5499 41.5373V18.2646H82.4135C84.2317 18.2646 85.7241 18.5752 86.8908 19.1964C88.0574 19.81 88.9211 20.6547 89.4817 21.7305C90.0423 22.8063 90.3226 24.0297 90.3226 25.401C90.3226 26.7722 90.0423 27.9881 89.4817 29.0487C88.9211 30.1093 88.0612 30.9426 86.9021 31.5487C85.7431 32.1472 84.262 32.4464 82.459 32.4464H76.0953V29.901H82.3681C83.6105 29.901 84.6105 29.7191 85.3681 29.3555C86.1332 28.9919 86.6862 28.4767 87.0271 27.8101C87.3756 27.1358 87.5499 26.3328 87.5499 25.401C87.5499 24.4691 87.3756 23.6547 87.0271 22.9578C86.6787 22.2608 86.1218 21.7229 85.3567 21.3441C84.5915 20.9578 83.5802 20.7646 82.3226 20.7646H77.3681V41.5373H74.5499ZM85.5044 31.0828L91.2317 41.5373H87.959L82.3226 31.0828H85.5044ZM101.786 41.901C100.104 41.901 98.6531 41.5297 97.4334 40.7873C96.2213 40.0373 95.2857 38.9919 94.6266 37.651C93.9751 36.3025 93.6493 34.7343 93.6493 32.9464C93.6493 31.1585 93.9751 29.5828 94.6266 28.2191C95.2857 26.8479 96.2023 25.7797 97.3766 25.0146C98.5584 24.2419 99.9372 23.8555 101.513 23.8555C102.422 23.8555 103.32 24.007 104.206 24.31C105.092 24.6131 105.899 25.1055 106.627 25.7873C107.354 26.4616 107.933 27.3555 108.365 28.4691C108.797 29.5828 109.013 30.954 109.013 32.5828V33.7191H95.5584V31.401H106.286C106.286 30.4161 106.089 29.5373 105.695 28.7646C105.308 27.9919 104.755 27.382 104.036 26.9351C103.324 26.4881 102.483 26.2646 101.513 26.2646C100.445 26.2646 99.5205 26.5297 98.7402 27.0601C97.9675 27.5828 97.3728 28.2646 96.9561 29.1055C96.5395 29.9464 96.3311 30.8479 96.3311 31.8101V33.3555C96.3311 34.6737 96.5584 35.7911 97.0129 36.7078C97.4751 37.6169 98.1152 38.3101 98.9334 38.7873C99.7516 39.257 100.702 39.4919 101.786 39.4919C102.49 39.4919 103.127 39.3934 103.695 39.1964C104.271 38.9919 104.767 38.6888 105.183 38.2873C105.6 37.8782 105.922 37.3707 106.149 36.7646L108.74 37.4919C108.467 38.3707 108.009 39.1434 107.365 39.8101C106.721 40.4691 105.926 40.9843 104.979 41.3555C104.032 41.7191 102.967 41.901 101.786 41.901ZM125.456 27.9919L123.047 28.6737C122.896 28.2722 122.672 27.882 122.377 27.5032C122.089 27.1169 121.695 26.7987 121.195 26.5487C120.695 26.2987 120.055 26.1737 119.274 26.1737C118.206 26.1737 117.316 26.4199 116.604 26.9123C115.899 27.3972 115.547 28.0146 115.547 28.7646C115.547 29.4313 115.789 29.9578 116.274 30.3441C116.759 30.7305 117.517 31.0525 118.547 31.3101L121.138 31.9464C122.699 32.3252 123.861 32.9047 124.627 33.6851C125.392 34.4578 125.774 35.454 125.774 36.6737C125.774 37.6737 125.486 38.5676 124.911 39.3555C124.342 40.1434 123.547 40.7646 122.524 41.2191C121.502 41.6737 120.312 41.901 118.956 41.901C117.176 41.901 115.702 41.5146 114.536 40.7419C113.369 39.9691 112.63 38.8404 112.32 37.3555L114.865 36.7191C115.108 37.6585 115.566 38.3631 116.24 38.8328C116.922 39.3025 117.812 39.5373 118.911 39.5373C120.161 39.5373 121.153 39.2722 121.888 38.7419C122.63 38.204 123.002 37.5601 123.002 36.8101C123.002 36.204 122.789 35.6964 122.365 35.2873C121.941 34.8707 121.289 34.5601 120.411 34.3555L117.502 33.6737C115.903 33.2949 114.729 32.7078 113.979 31.9123C113.236 31.1093 112.865 30.1055 112.865 28.901C112.865 27.9161 113.142 27.0449 113.695 26.2873C114.255 25.5297 115.017 24.935 115.979 24.5032C116.949 24.0714 118.047 23.8555 119.274 23.8555C121.002 23.8555 122.358 24.2343 123.342 24.9919C124.335 25.7494 125.039 26.7494 125.456 27.9919ZM129.811 48.0828V24.0828H132.402V26.8555H132.72C132.917 26.5525 133.19 26.1661 133.539 25.6964C133.895 25.2191 134.402 24.7949 135.061 24.4237C135.728 24.0449 136.629 23.8555 137.766 23.8555C139.235 23.8555 140.531 24.2229 141.652 24.9578C142.773 25.6926 143.648 26.7343 144.277 28.0828C144.906 29.4313 145.22 31.0222 145.22 32.8555C145.22 34.704 144.906 36.3063 144.277 37.6623C143.648 39.0108 142.777 40.0563 141.664 40.7987C140.55 41.5335 139.266 41.901 137.811 41.901C136.69 41.901 135.792 41.7154 135.118 41.3441C134.444 40.9654 133.925 40.5373 133.561 40.0601C133.198 39.5752 132.917 39.1737 132.72 38.8555H132.493V48.0828H129.811ZM132.448 32.8101C132.448 34.1282 132.641 35.2911 133.027 36.2987C133.414 37.2987 133.978 38.0828 134.72 38.651C135.463 39.2116 136.372 39.4919 137.448 39.4919C138.569 39.4919 139.504 39.1964 140.254 38.6055C141.012 38.007 141.58 37.204 141.959 36.1964C142.345 35.1813 142.539 34.0525 142.539 32.8101C142.539 31.5828 142.349 30.4767 141.97 29.4919C141.599 28.4994 141.035 27.7154 140.277 27.1396C139.527 26.5563 138.584 26.2646 137.448 26.2646C136.357 26.2646 135.44 26.5411 134.698 27.0941C133.955 27.6396 133.395 28.4047 133.016 29.3896C132.637 30.3669 132.448 31.507 132.448 32.8101ZM156.402 41.901C154.826 41.901 153.444 41.526 152.254 40.776C151.073 40.026 150.148 38.9767 149.482 37.6282C148.823 36.2797 148.493 34.704 148.493 32.901C148.493 31.0828 148.823 29.4957 149.482 28.1396C150.148 26.7835 151.073 25.7305 152.254 24.9805C153.444 24.2305 154.826 23.8555 156.402 23.8555C157.978 23.8555 159.357 24.2305 160.539 24.9805C161.728 25.7305 162.652 26.7835 163.311 28.1396C163.978 29.4957 164.311 31.0828 164.311 32.901C164.311 34.704 163.978 36.2797 163.311 37.6282C162.652 38.9767 161.728 40.026 160.539 40.776C159.357 41.526 157.978 41.901 156.402 41.901ZM156.402 39.4919C157.599 39.4919 158.584 39.1851 159.357 38.5714C160.129 37.9578 160.701 37.151 161.073 36.151C161.444 35.151 161.629 34.0676 161.629 32.901C161.629 31.7343 161.444 30.6472 161.073 29.6396C160.701 28.632 160.129 27.8176 159.357 27.1964C158.584 26.5752 157.599 26.2646 156.402 26.2646C155.205 26.2646 154.22 26.5752 153.448 27.1964C152.675 27.8176 152.103 28.632 151.732 29.6396C151.36 30.6472 151.175 31.7343 151.175 32.901C151.175 34.0676 151.36 35.151 151.732 36.151C152.103 37.151 152.675 37.9578 153.448 38.5714C154.22 39.1851 155.205 39.4919 156.402 39.4919ZM171.087 31.0373V41.5373H168.405V24.0828H170.996V26.8101H171.223C171.632 25.9237 172.253 25.2116 173.087 24.6737C173.92 24.1282 174.996 23.8555 176.314 23.8555C177.496 23.8555 178.53 24.0979 179.416 24.5828C180.303 25.0601 180.992 25.7873 181.485 26.7646C181.977 27.7343 182.223 28.9616 182.223 30.4464V41.5373H179.541V30.6282C179.541 29.257 179.185 28.1888 178.473 27.4237C177.761 26.651 176.784 26.2646 175.541 26.2646C174.685 26.2646 173.92 26.4502 173.246 26.8214C172.579 27.1926 172.053 27.7343 171.666 28.4464C171.28 29.1585 171.087 30.0222 171.087 31.0373ZM199.487 27.9919L197.078 28.6737C196.927 28.2722 196.703 27.882 196.408 27.5032C196.12 27.1169 195.726 26.7987 195.226 26.5487C194.726 26.2987 194.086 26.1737 193.306 26.1737C192.237 26.1737 191.347 26.4199 190.635 26.9123C189.931 27.3972 189.578 28.0146 189.578 28.7646C189.578 29.4313 189.821 29.9578 190.306 30.3441C190.79 30.7305 191.548 31.0525 192.578 31.3101L195.169 31.9464C196.73 32.3252 197.893 32.9047 198.658 33.6851C199.423 34.4578 199.806 35.454 199.806 36.6737C199.806 37.6737 199.518 38.5676 198.942 39.3555C198.374 40.1434 197.578 40.7646 196.556 41.2191C195.533 41.6737 194.343 41.901 192.987 41.901C191.207 41.901 189.734 41.5146 188.567 40.7419C187.4 39.9691 186.662 38.8404 186.351 37.3555L188.896 36.7191C189.139 37.6585 189.597 38.3631 190.271 38.8328C190.953 39.3025 191.843 39.5373 192.942 39.5373C194.192 39.5373 195.184 39.2722 195.919 38.7419C196.662 38.204 197.033 37.5601 197.033 36.8101C197.033 36.204 196.821 35.6964 196.396 35.2873C195.972 34.8707 195.321 34.5601 194.442 34.3555L191.533 33.6737C189.934 33.2949 188.76 32.7078 188.01 31.9123C187.268 31.1093 186.896 30.1055 186.896 28.901C186.896 27.9161 187.173 27.0449 187.726 26.2873C188.287 25.5297 189.048 24.935 190.01 24.5032C190.98 24.0714 192.078 23.8555 193.306 23.8555C195.033 23.8555 196.389 24.2343 197.374 24.9919C198.366 25.7494 199.071 26.7494 199.487 27.9919ZM208.979 41.9464C207.873 41.9464 206.869 41.7381 205.967 41.3214C205.066 40.8972 204.35 40.2873 203.82 39.4919C203.289 38.6888 203.024 37.7191 203.024 36.5828C203.024 35.5828 203.221 34.7722 203.615 34.151C204.009 33.5222 204.536 33.0297 205.195 32.6737C205.854 32.3176 206.581 32.0525 207.377 31.8782C208.18 31.6964 208.986 31.5525 209.797 31.4464C210.858 31.3101 211.717 31.2078 212.377 31.1396C213.043 31.0638 213.528 30.9388 213.831 30.7646C214.142 30.5904 214.297 30.2873 214.297 29.8555V29.7646C214.297 28.6434 213.99 27.7722 213.377 27.151C212.771 26.5297 211.85 26.2191 210.615 26.2191C209.335 26.2191 208.331 26.4994 207.604 27.0601C206.877 27.6207 206.365 28.2191 206.07 28.8555L203.524 27.9464C203.979 26.8858 204.585 26.06 205.342 25.4691C206.108 24.8707 206.941 24.454 207.842 24.2191C208.752 23.9767 209.646 23.8555 210.524 23.8555C211.085 23.8555 211.729 23.9237 212.456 24.06C213.191 24.1888 213.899 24.4578 214.581 24.8669C215.271 25.276 215.842 25.8934 216.297 26.7191C216.752 27.5449 216.979 28.651 216.979 30.0373V41.5373H214.297V39.1737H214.161C213.979 39.5525 213.676 39.9578 213.252 40.3896C212.827 40.8214 212.263 41.1888 211.558 41.4919C210.854 41.7949 209.994 41.9464 208.979 41.9464ZM209.388 39.5373C210.449 39.5373 211.342 39.329 212.07 38.9123C212.805 38.4957 213.358 37.9578 213.729 37.2987C214.108 36.6396 214.297 35.9464 214.297 35.2191V32.7646C214.183 32.901 213.933 33.026 213.547 33.1396C213.168 33.2457 212.729 33.3404 212.229 33.4237C211.736 33.4994 211.255 33.5676 210.786 33.6282C210.324 33.6813 209.949 33.7267 209.661 33.7646C208.964 33.8555 208.312 34.0032 207.706 34.2078C207.108 34.4047 206.623 34.704 206.252 35.1055C205.888 35.4994 205.706 36.0373 205.706 36.7191C205.706 37.651 206.051 38.3555 206.74 38.8328C207.437 39.3025 208.32 39.5373 209.388 39.5373ZM209.479 21.7191L212.252 16.4464H215.388L211.842 21.7191H209.479ZM235.521 24.0828L229.067 41.5373H226.34L219.885 24.0828H222.794L227.612 37.9919H227.794L232.612 24.0828H235.521ZM245.754 41.901C244.073 41.901 242.622 41.5297 241.402 40.7873C240.19 40.0373 239.254 38.9919 238.595 37.651C237.944 36.3025 237.618 34.7343 237.618 32.9464C237.618 31.1585 237.944 29.5828 238.595 28.2191C239.254 26.8479 240.171 25.7797 241.345 25.0146C242.527 24.2419 243.906 23.8555 245.482 23.8555C246.391 23.8555 247.289 24.007 248.175 24.31C249.061 24.6131 249.868 25.1055 250.595 25.7873C251.323 26.4616 251.902 27.3555 252.334 28.4691C252.766 29.5828 252.982 30.954 252.982 32.5828V33.7191H239.527V31.401H250.254C250.254 30.4161 250.057 29.5373 249.664 28.7646C249.277 27.9919 248.724 27.382 248.004 26.9351C247.292 26.4881 246.451 26.2646 245.482 26.2646C244.414 26.2646 243.489 26.5297 242.709 27.0601C241.936 27.5828 241.342 28.2646 240.925 29.1055C240.508 29.9464 240.3 30.8479 240.3 31.8101V33.3555C240.3 34.6737 240.527 35.7911 240.982 36.7078C241.444 37.6169 242.084 38.3101 242.902 38.7873C243.72 39.257 244.671 39.4919 245.754 39.4919C246.459 39.4919 247.095 39.3934 247.664 39.1964C248.239 38.9919 248.735 38.6888 249.152 38.2873C249.569 37.8782 249.891 37.3707 250.118 36.7646L252.709 37.4919C252.436 38.3707 251.978 39.1434 251.334 39.8101C250.69 40.4691 249.895 40.9843 248.948 41.3555C248.001 41.7191 246.936 41.901 245.754 41.901ZM259.743 18.2646V41.5373H257.061V18.2646H259.743Z" fill="black"/>
<path d="M38.5073 13.1716C46.6674 13.1716 53.2476 19.7433 53.2476 27.8064C53.2473 35.8693 46.6673 42.4402 38.5073 42.4402C30.3474 42.4402 23.7673 35.8693 23.7671 27.8064C23.7671 19.7433 30.3473 13.1717 38.5073 13.1716Z" stroke="white" stroke-width="7"/>
</svg>
