<svg width="334" height="54" viewBox="0 0 334 54" fill="none" xmlns="http://www.w3.org/2000/svg">
<rect width="334" height="54" rx="27" fill="#88EAFB"/>
<path d="M97.4561 41.5373V18.2646H105.32C107.146 18.2646 108.638 18.5941 109.797 19.2532C110.964 19.9047 111.827 20.7873 112.388 21.901C112.949 23.0146 113.229 24.257 113.229 25.6282C113.229 26.9994 112.949 28.2457 112.388 29.3669C111.835 30.4881 110.979 31.382 109.82 32.0487C108.661 32.7078 107.176 33.0373 105.365 33.0373H99.7288V30.5373H105.274C106.524 30.5373 107.528 30.3214 108.286 29.8896C109.043 29.4578 109.592 28.8744 109.933 28.1396C110.282 27.3972 110.456 26.5601 110.456 25.6282C110.456 24.6964 110.282 23.8631 109.933 23.1282C109.592 22.3934 109.039 21.8176 108.274 21.401C107.509 20.9767 106.494 20.7646 105.229 20.7646H100.274V41.5373H97.4561ZM117.405 41.5373V24.0828H119.996V26.7191H120.178C120.496 25.8555 121.072 25.1547 121.905 24.6169C122.738 24.079 123.678 23.81 124.723 23.81C124.92 23.81 125.166 23.8138 125.462 23.8214C125.757 23.829 125.981 23.8404 126.132 23.8555V26.5828C126.041 26.56 125.833 26.526 125.507 26.4805C125.189 26.4275 124.852 26.401 124.496 26.401C123.647 26.401 122.89 26.579 122.223 26.9351C121.564 27.2835 121.041 27.7684 120.655 28.3896C120.276 29.0032 120.087 29.704 120.087 30.4919V41.5373H117.405ZM135.871 41.901C134.295 41.901 132.913 41.526 131.723 40.776C130.541 40.026 129.617 38.9767 128.95 37.6282C128.291 36.2797 127.962 34.704 127.962 32.901C127.962 31.0828 128.291 29.4957 128.95 28.1396C129.617 26.7835 130.541 25.7305 131.723 24.9805C132.913 24.2305 134.295 23.8555 135.871 23.8555C137.447 23.8555 138.825 24.2305 140.007 24.9805C141.197 25.7305 142.121 26.7835 142.78 28.1396C143.447 29.4957 143.78 31.0828 143.78 32.901C143.78 34.704 143.447 36.2797 142.78 37.6282C142.121 38.9767 141.197 40.026 140.007 40.776C138.825 41.526 137.447 41.901 135.871 41.901ZM135.871 39.4919C137.068 39.4919 138.053 39.1851 138.825 38.5714C139.598 37.9578 140.17 37.151 140.541 36.151C140.913 35.151 141.098 34.0676 141.098 32.901C141.098 31.7343 140.913 30.6472 140.541 29.6396C140.17 28.632 139.598 27.8176 138.825 27.1964C138.053 26.5752 137.068 26.2646 135.871 26.2646C134.674 26.2646 133.689 26.5752 132.916 27.1964C132.144 27.8176 131.572 28.632 131.2 29.6396C130.829 30.6472 130.644 31.7343 130.644 32.901C130.644 34.0676 130.829 35.151 131.2 36.151C131.572 37.151 132.144 37.9578 132.916 38.5714C133.689 39.1851 134.674 39.4919 135.871 39.4919ZM155.646 24.0828V26.3555H146.237V24.0828H155.646ZM149.056 41.5373V21.6737C149.056 20.6737 149.29 19.8404 149.76 19.1737C150.23 18.507 150.84 18.007 151.59 17.6737C152.34 17.3404 153.131 17.1737 153.965 17.1737C154.624 17.1737 155.162 17.2267 155.578 17.3328C155.995 17.4388 156.306 17.5373 156.51 17.6282L155.737 19.9464C155.601 19.901 155.412 19.8441 155.169 19.776C154.934 19.7078 154.624 19.6737 154.237 19.6737C153.351 19.6737 152.711 19.8972 152.317 20.3441C151.931 20.7911 151.737 21.4464 151.737 22.31V41.5373H149.056ZM166.004 41.901C164.323 41.901 162.872 41.5297 161.652 40.7873C160.44 40.0373 159.504 38.9919 158.845 37.651C158.194 36.3025 157.868 34.7343 157.868 32.9464C157.868 31.1585 158.194 29.5828 158.845 28.2191C159.504 26.8479 160.421 25.7797 161.595 25.0146C162.777 24.2419 164.156 23.8555 165.732 23.8555C166.641 23.8555 167.539 24.007 168.425 24.31C169.311 24.6131 170.118 25.1055 170.845 25.7873C171.573 26.4616 172.152 27.3555 172.584 28.4691C173.016 29.5828 173.232 30.954 173.232 32.5828V33.7191H159.777V31.401H170.504C170.504 30.4161 170.307 29.5373 169.914 28.7646C169.527 27.9919 168.974 27.382 168.254 26.9351C167.542 26.4881 166.701 26.2646 165.732 26.2646C164.664 26.2646 163.739 26.5297 162.959 27.0601C162.186 27.5828 161.592 28.2646 161.175 29.1055C160.758 29.9464 160.55 30.8479 160.55 31.8101V33.3555C160.55 34.6737 160.777 35.7911 161.232 36.7078C161.694 37.6169 162.334 38.3101 163.152 38.7873C163.97 39.257 164.921 39.4919 166.004 39.4919C166.709 39.4919 167.345 39.3934 167.914 39.1964C168.489 38.9919 168.985 38.6888 169.402 38.2873C169.819 37.8782 170.141 37.3707 170.368 36.7646L172.959 37.4919C172.686 38.3707 172.228 39.1434 171.584 39.8101C170.94 40.4691 170.145 40.9843 169.198 41.3555C168.251 41.7191 167.186 41.901 166.004 41.901ZM189.675 27.9919L187.266 28.6737C187.114 28.2722 186.891 27.882 186.595 27.5032C186.307 27.1169 185.914 26.7987 185.414 26.5487C184.914 26.2987 184.273 26.1737 183.493 26.1737C182.425 26.1737 181.535 26.4199 180.823 26.9123C180.118 27.3972 179.766 28.0146 179.766 28.7646C179.766 29.4313 180.008 29.9578 180.493 30.3441C180.978 30.7305 181.735 31.0525 182.766 31.3101L185.357 31.9464C186.917 32.3252 188.08 32.9047 188.845 33.6851C189.61 34.4578 189.993 35.454 189.993 36.6737C189.993 37.6737 189.705 38.5676 189.129 39.3555C188.561 40.1434 187.766 40.7646 186.743 41.2191C185.72 41.6737 184.531 41.901 183.175 41.901C181.395 41.901 179.921 41.5146 178.754 40.7419C177.588 39.9691 176.849 38.8404 176.539 37.3555L179.084 36.7191C179.326 37.6585 179.785 38.3631 180.459 38.8328C181.141 39.3025 182.031 39.5373 183.129 39.5373C184.379 39.5373 185.372 39.2722 186.107 38.7419C186.849 38.204 187.22 37.5601 187.22 36.8101C187.22 36.204 187.008 35.6964 186.584 35.2873C186.16 34.8707 185.508 34.5601 184.629 34.3555L181.72 33.6737C180.122 33.2949 178.948 32.7078 178.198 31.9123C177.455 31.1093 177.084 30.1055 177.084 28.901C177.084 27.9161 177.36 27.0449 177.914 26.2873C178.474 25.5297 179.235 24.935 180.198 24.5032C181.167 24.0714 182.266 23.8555 183.493 23.8555C185.22 23.8555 186.576 24.2343 187.561 24.9919C188.554 25.7494 189.258 26.7494 189.675 27.9919ZM206.394 27.9919L203.985 28.6737C203.833 28.2722 203.61 27.882 203.314 27.5032C203.026 27.1169 202.632 26.7987 202.132 26.5487C201.632 26.2987 200.992 26.1737 200.212 26.1737C199.144 26.1737 198.253 26.4199 197.541 26.9123C196.837 27.3972 196.485 28.0146 196.485 28.7646C196.485 29.4313 196.727 29.9578 197.212 30.3441C197.697 30.7305 198.454 31.0525 199.485 31.3101L202.075 31.9464C203.636 32.3252 204.799 32.9047 205.564 33.6851C206.329 34.4578 206.712 35.454 206.712 36.6737C206.712 37.6737 206.424 38.5676 205.848 39.3555C205.28 40.1434 204.485 40.7646 203.462 41.2191C202.439 41.6737 201.25 41.901 199.894 41.901C198.113 41.901 196.64 41.5146 195.473 40.7419C194.307 39.9691 193.568 38.8404 193.257 37.3555L195.803 36.7191C196.045 37.6585 196.503 38.3631 197.178 38.8328C197.86 39.3025 198.75 39.5373 199.848 39.5373C201.098 39.5373 202.091 39.2722 202.825 38.7419C203.568 38.204 203.939 37.5601 203.939 36.8101C203.939 36.204 203.727 35.6964 203.303 35.2873C202.878 34.8707 202.227 34.5601 201.348 34.3555L198.439 33.6737C196.841 33.2949 195.666 32.7078 194.916 31.9123C194.174 31.1093 193.803 30.1055 193.803 28.901C193.803 27.9161 194.079 27.0449 194.632 26.2873C195.193 25.5297 195.954 24.935 196.916 24.5032C197.886 24.0714 198.985 23.8555 200.212 23.8555C201.939 23.8555 203.295 24.2343 204.28 24.9919C205.272 25.7494 205.977 26.7494 206.394 27.9919ZM217.84 41.901C216.264 41.901 214.881 41.526 213.692 40.776C212.51 40.026 211.586 38.9767 210.919 37.6282C210.26 36.2797 209.931 34.704 209.931 32.901C209.931 31.0828 210.26 29.4957 210.919 28.1396C211.586 26.7835 212.51 25.7305 213.692 24.9805C214.881 24.2305 216.264 23.8555 217.84 23.8555C219.415 23.8555 220.794 24.2305 221.976 24.9805C223.165 25.7305 224.09 26.7835 224.749 28.1396C225.415 29.4957 225.749 31.0828 225.749 32.901C225.749 34.704 225.415 36.2797 224.749 37.6282C224.09 38.9767 223.165 40.026 221.976 40.776C220.794 41.526 219.415 41.901 217.84 41.901ZM217.84 39.4919C219.037 39.4919 220.021 39.1851 220.794 38.5714C221.567 37.9578 222.139 37.151 222.51 36.151C222.881 35.151 223.067 34.0676 223.067 32.901C223.067 31.7343 222.881 30.6472 222.51 29.6396C222.139 28.632 221.567 27.8176 220.794 27.1964C220.021 26.5752 219.037 26.2646 217.84 26.2646C216.643 26.2646 215.658 26.5752 214.885 27.1964C214.112 27.8176 213.54 28.632 213.169 29.6396C212.798 30.6472 212.612 31.7343 212.612 32.901C212.612 34.0676 212.798 35.151 213.169 36.151C213.54 37.151 214.112 37.9578 214.885 38.5714C215.658 39.1851 216.643 39.4919 217.84 39.4919ZM229.842 41.5373V24.0828H232.433V26.7191H232.615C232.933 25.8555 233.509 25.1547 234.342 24.6169C235.176 24.079 236.115 23.81 237.161 23.81C237.358 23.81 237.604 23.8138 237.899 23.8214C238.195 23.829 238.418 23.8404 238.57 23.8555V26.5828C238.479 26.56 238.271 26.526 237.945 26.4805C237.627 26.4275 237.289 26.401 236.933 26.401C236.085 26.401 235.327 26.579 234.661 26.9351C234.002 27.2835 233.479 27.7684 233.092 28.3896C232.714 29.0032 232.524 29.704 232.524 30.4919V41.5373H229.842Z" fill="black"/>
<path d="M38.5073 13.1716C46.6674 13.1716 53.2476 19.7433 53.2476 27.8064C53.2473 35.8693 46.6673 42.4402 38.5073 42.4402C30.3474 42.4402 23.7673 35.8693 23.7671 27.8064C23.7671 19.7433 30.3473 13.1717 38.5073 13.1716Z" stroke="white" stroke-width="7"/>
</svg>
