<svg width="104" height="343" viewBox="0 0 104 343" fill="none" xmlns="http://www.w3.org/2000/svg">
<rect width="104" height="67" fill="#006EC7"/>
<path d="M66 32.3579V34.6408C65.9687 34.9148 65.9376 35.1887 65.9067 35.4627C65.4395 39.6593 63.8368 43.3616 61.0074 46.5002C58.0057 49.8326 54.281 51.914 49.8528 52.6967C49.1187 52.8271 48.3748 52.9002 47.6342 53H45.3503C44.6977 52.9178 44.0413 52.8591 43.3926 52.7508C39.3188 52.0699 35.7683 50.3179 32.8462 47.3984C28.4631 43.023 26.5342 37.7013 27.0947 31.5394C27.4706 27.4027 29.0895 23.7468 31.8583 20.6407C35.5328 16.5152 40.156 14.293 45.6746 14.0242C49.5246 13.837 53.1403 14.7339 56.4337 16.7422C61.4975 19.8293 64.6029 24.3032 65.6959 30.1442C65.833 30.8754 65.9002 31.6196 66 32.3579ZM55.8419 29.0451C55.8758 23.9412 51.6917 19.7413 46.5261 19.695C41.4017 19.6493 37.1817 23.8414 37.1432 29.0164C37.1054 34.1125 41.3149 38.3437 46.4589 38.375C51.5886 38.4083 55.8079 34.2136 55.8419 29.0451ZM33.5471 43.2428C40.2102 52.1638 53.3739 51.6459 59.423 43.2344C50.8055 38.9682 42.1802 38.971 33.5471 43.2428Z" fill="#FFFDFD"/>
<rect width="104" height="67" transform="translate(0 69)" fill="#006EC7"/>
<path d="M65.9732 85.4694C65.9642 85.4491 65.9541 85.4293 65.9441 85.4077C65.934 85.3862 65.9307 85.3812 65.9279 85.3738C65.57 83.9189 64.5858 83.0537 63.2282 83C63.1723 83 63.1163 83 63.0604 83H53.744C46.2075 83 38.1246 83 30.0787 83.0049C29.7301 82.9969 29.382 83.0384 29.0431 83.1283C27.8341 83.4749 27.0155 84.6461 27.006 86.043C26.9982 87.158 26.9998 88.2916 27.001 89.3869C27.001 89.8462 27.001 90.3055 27.001 90.7647V96.7088C27.001 104.069 27.001 111.428 27.001 118.788C27.001 120.321 27.7838 121.502 29.0386 121.872C29.3406 121.957 29.6513 121.998 29.9629 121.995C36.3548 121.995 43.2153 122 50.9409 122H63.028C64.5378 122 65.3653 121.3 65.9815 119.504L66 119.451V85.5342L65.9732 85.4694ZM63.9422 118.684C63.9422 119.472 63.7091 119.724 62.9833 119.724H30.0295C29.2891 119.724 29.0632 119.473 29.0632 118.65V91.4277H63.9422V97.9306C63.9422 104.849 63.9422 111.767 63.9422 118.684ZM63.9422 88.4951C63.9422 88.6962 63.9422 88.8985 63.9422 89.1008H29.0688C29.0688 88.8676 29.0688 88.6351 29.0688 88.4032C29.066 87.5651 29.0632 86.7732 29.0777 85.9647C29.0833 85.6514 29.3053 85.3831 29.6173 85.3115C29.7583 85.2839 29.9014 85.2715 30.0446 85.2745C36.0613 85.2745 42.0778 85.2745 48.0941 85.2745H62.9531L62.9581 84.9662V85.2745C63.3093 85.2745 63.5508 85.2899 63.7012 85.4947C63.8366 85.6797 63.9249 85.8734 63.9249 86.0004C63.9456 86.8231 63.9422 87.6354 63.9422 88.4951Z" fill="#FFFDFD"/>
<path d="M31.7149 112.003C31.8504 112.021 31.9868 112.028 32.1231 112.025H32.2014H35.6739H41.9031C43.1601 112.025 44.417 112.025 45.6736 112.025C46.3798 112.025 46.8434 111.588 46.8546 110.915C46.8598 110.772 46.8388 110.63 46.7929 110.496C46.747 110.362 46.677 110.24 46.5873 110.137C46.3726 109.893 46.0538 109.762 45.6647 109.757C45.5651 109.757 45.4656 109.757 45.3638 109.757H45.1223V98.1933C45.1223 97.0616 44.7896 96.6983 43.7517 96.6977H40.636C39.6854 96.6977 39.3287 97.09 39.3287 98.139C39.3287 100.944 39.3287 103.748 39.3287 106.553V109.72H37.9827V107.735C37.9827 106.283 37.9827 104.831 37.9827 103.379C37.9827 102.401 37.6003 101.983 36.7061 101.979C36.1425 101.979 35.5792 101.978 35.0163 101.976C34.4907 101.976 33.9651 101.977 33.4394 101.979C32.5761 101.984 32.1914 102.411 32.1908 103.366C32.1908 104.841 32.1908 106.316 32.1908 107.79V109.742C32.0071 109.747 31.824 109.765 31.6428 109.799C31.4084 109.853 31.1988 109.997 31.0512 110.205C30.9035 110.412 30.8274 110.671 30.8361 110.935C30.8449 111.199 30.9381 111.451 31.0991 111.647C31.2601 111.842 31.4787 111.968 31.7161 112.003H31.7149ZM41.4127 98.9901H43.0343V109.721H41.4127V98.9901ZM34.272 104.277H35.8981V109.721H34.272V104.277Z" fill="#FFFDFD"/>
<path d="M55.6403 93.9304C52.3238 93.9304 49.6085 96.9043 49.5878 100.56C49.579 101.441 49.7284 102.314 50.0275 103.131C50.3265 103.947 50.7693 104.69 51.3301 105.316C51.8909 105.943 52.5588 106.441 53.295 106.781C54.0312 107.121 54.8213 107.297 55.6196 107.299H55.6414C57.2484 107.299 58.7896 106.595 59.9259 105.341C61.0622 104.088 61.7006 102.388 61.7006 100.616C61.7006 98.8434 61.0622 97.1436 59.9259 95.8903C58.7896 94.637 57.2484 93.9329 55.6414 93.9329L55.6403 93.9304ZM55.6962 105.018C54.9575 105.018 54.2423 104.819 53.6742 104.457C52.0839 103.439 51.3179 101.46 51.7685 99.531C52.1342 97.9651 53.3952 96.5941 54.6203 96.369V97.3447C54.6203 97.6327 54.6203 97.9207 54.6203 98.2081C54.6231 98.8995 54.6259 99.6136 54.6114 100.314C54.5998 100.561 54.6379 100.808 54.7229 101.037C54.8078 101.266 54.9376 101.471 55.1029 101.638C55.7739 102.356 56.4449 103.098 57.0924 103.817L57.6421 104.425C57.1623 104.8 56.4583 105.017 55.6962 105.017V105.018ZM59.0982 102.83L58.8516 102.557C58.1079 101.736 57.4056 100.96 56.6999 100.173C56.6925 100.161 56.6871 100.148 56.6837 100.134C56.6792 99.0277 56.6792 97.9367 56.6798 96.7816V96.3733C57.8289 96.7168 58.6497 97.4446 59.1832 98.5892C59.8324 99.9831 59.8044 101.373 59.0982 102.83Z" fill="#FFFDFD"/>
<path d="M60.3783 114.425H35.7248H35.5347C35.4687 114.425 35.3815 114.425 35.292 114.433C34.7586 114.476 34.3588 114.904 34.3196 115.475C34.3012 115.752 34.3763 116.026 34.5305 116.245C34.6846 116.464 34.907 116.613 35.1545 116.662C35.3081 116.691 35.4639 116.703 35.6197 116.698H52.2831H60.3861C60.853 116.698 61.2064 116.569 61.4357 116.315C61.5248 116.214 61.5945 116.094 61.6406 115.962C61.6867 115.831 61.7083 115.69 61.7041 115.55C61.7057 115.212 61.571 114.426 60.3783 114.425Z" fill="#FFFDFD"/>
<path d="M50.7459 112.024C51.4743 112.027 52.2025 112.028 52.9306 112.027H55.5028H60.3961C60.8675 112.027 61.2215 111.898 61.4479 111.644C61.5358 111.542 61.6039 111.421 61.6482 111.289C61.6925 111.157 61.7121 111.016 61.7057 110.876C61.7007 110.539 61.5598 109.755 60.3732 109.754H56.7889H50.9114H50.8963C50.7335 109.748 50.5705 109.761 50.4098 109.79C49.8898 109.903 49.5543 110.396 49.594 110.988C49.6371 111.625 50.0777 112.022 50.7459 112.024Z" fill="#FFFDFD"/>
<path d="M31.8827 114.433H31.8536C31.5896 114.433 31.3357 114.545 31.1457 114.748C30.9557 114.95 30.8446 115.226 30.8359 115.517C30.8279 115.814 30.9254 116.103 31.1077 116.322C31.29 116.541 31.5426 116.672 31.8117 116.689C31.8296 116.689 31.8469 116.689 31.8648 116.689C32.1322 116.685 32.3876 116.566 32.5762 116.357C32.7649 116.148 32.8719 115.866 32.8742 115.571C32.8766 115.276 32.7741 114.991 32.5888 114.779C32.4034 114.566 32.15 114.442 31.8827 114.433Z" fill="#FFFDFD"/>
<path d="M34.1651 86.1552H34.1187C33.5746 86.1552 33.0909 86.6782 33.0837 87.274C33.0812 87.4211 33.105 87.5674 33.1539 87.7043C33.2028 87.8412 33.2758 87.9662 33.3686 88.0719C33.4614 88.1776 33.5722 88.2621 33.6947 88.3205C33.8172 88.3788 33.9489 88.4099 34.0824 88.4119H34.1075C34.3722 88.4139 34.6272 88.3027 34.8191 88.1017C35.0109 87.9007 35.1247 87.6254 35.1364 87.3338C35.1444 87.0369 35.0476 86.7481 34.8664 86.5283C34.6853 86.3085 34.4339 86.1747 34.1651 86.1552Z" fill="#FFFDFD"/>
<path d="M31.2427 86.1497H31.2365C30.9675 86.1544 30.7109 86.2751 30.5216 86.4859C30.3323 86.6968 30.2254 86.981 30.2239 87.2777C30.221 87.4249 30.2446 87.5712 30.2935 87.7082C30.3424 87.8452 30.4155 87.9701 30.5085 88.0756C30.6015 88.1812 30.7127 88.2653 30.8355 88.323C30.9582 88.3807 31.0902 88.4109 31.2237 88.4119H31.2371C31.3742 88.4102 31.5097 88.3787 31.6357 88.3192C31.7618 88.2597 31.876 88.1734 31.9718 88.0653C32.0676 87.9602 32.1436 87.8352 32.1954 87.6976C32.2472 87.56 32.2739 87.4125 32.2738 87.2635C32.2656 86.9669 32.1537 86.6854 31.9615 86.4778C31.7693 86.2701 31.5117 86.1526 31.2427 86.1497Z" fill="#FFFDFD"/>
<path d="M37.0812 86.1663H37.0549C36.8556 86.1614 36.6595 86.2219 36.4914 86.3401C36.3232 86.4583 36.1907 86.6288 36.1107 86.8302C36.0306 87.0316 36.0065 87.2546 36.0415 87.4711C36.0765 87.6876 36.169 87.8877 36.3073 88.0461C36.4033 88.1584 36.5186 88.2483 36.6465 88.3108C36.7744 88.3733 36.9123 88.407 37.0521 88.41H37.0628C37.3287 88.4063 37.5827 88.2879 37.7705 88.0801C37.9582 87.8724 38.0647 87.5917 38.0671 87.2984C38.0695 87.0051 37.9677 86.7224 37.7834 86.5109C37.5991 86.2994 37.3471 86.1759 37.0812 86.1669V86.1663Z" fill="#FFFDFD"/>
<rect width="104" height="67" transform="translate(0 138)" fill="#006EC7"/>
<path d="M65.9993 181.613C65.9678 178.884 63.8109 176.693 61.0979 176.693H52.9949C52.9949 176.465 52.9949 176.278 52.9949 176.092C52.975 174.208 51.5789 172.8 49.7046 172.787C47.553 172.777 45.4015 172.777 43.25 172.787C41.6409 172.796 40.3439 173.899 40.0639 175.489C39.9995 175.871 40.0034 176.264 39.9738 176.691H39.529C36.9853 176.691 34.4442 176.684 31.8972 176.691C30.1555 176.698 28.8077 177.466 27.8235 178.89C27.1207 179.907 26.9829 181.058 27.0016 182.265C27.0415 184.911 29.2203 187.106 31.8554 187.106C34.4266 187.106 36.9978 187.106 39.5689 187.106H40.004C40.004 187.945 40.004 188.72 40.004 189.494C40.004 190.757 40.9296 191.342 42.0534 190.785C43.4463 190.096 44.8327 189.392 46.2314 188.715C46.3178 188.679 46.4106 188.66 46.5043 188.66C46.598 188.66 46.6908 188.679 46.7772 188.715C48.1875 189.4 49.5855 190.111 50.9906 190.808C52.0455 191.331 52.9859 190.743 52.9943 189.57C52.9981 188.77 52.9943 187.97 52.9943 187.106H53.4744C56.0181 187.106 58.5593 187.11 61.1062 187.106C62.6999 187.102 63.9808 186.439 64.9682 185.198C65.8004 184.153 66.0141 182.928 65.9993 181.613ZM39.9847 184.508H39.5734C36.9769 184.508 34.3798 184.497 31.7852 184.515C31.0283 184.52 30.4921 184.192 30.0956 183.586C29.3413 182.429 29.4867 180.746 30.4175 179.823C30.747 179.494 31.1326 179.298 31.6082 179.298H39.7627C39.827 179.298 39.8914 179.306 39.9892 179.311L39.9847 184.508ZM50.3958 187.192C50.3958 187.309 50.3855 187.425 50.3772 187.594C49.3473 187.082 48.3471 186.613 47.3752 186.09C46.7656 185.762 46.2166 185.767 45.6135 186.097C44.76 186.563 43.8756 186.976 43.006 187.409C42.8889 187.467 42.766 187.515 42.6018 187.587V176.323C42.6018 175.577 42.7898 175.39 43.5383 175.39H49.5044C50.1937 175.39 50.3965 175.593 50.3965 176.287C50.3969 179.922 50.3967 183.557 50.3958 187.192ZM62.8621 183.651C62.4759 184.207 61.9655 184.517 61.2594 184.514C58.6359 184.501 56.0124 184.508 53.3888 184.508H53.0149V179.298H53.4011C56.0111 179.298 58.6211 179.308 61.2311 179.291C61.9533 179.287 62.4753 179.591 62.8705 180.162C63.5643 181.171 63.5624 182.644 62.8621 183.651Z" fill="#FFFDFD"/>
<path d="M31.8632 159.717C32.0679 159.788 32.2713 159.859 32.4747 159.934L36.0199 161.234C36.0199 162.439 36.0199 163.618 36.0199 164.798C36.0199 165.808 36.213 166.101 37.1495 166.486C40.046 167.678 42.9508 168.865 45.8466 170.066C46.2888 170.249 46.6988 170.26 47.1378 170.075C50.0883 168.827 53.0411 167.587 55.9964 166.354C56.6806 166.069 56.9998 165.597 56.9857 164.847C56.9625 163.627 56.9792 162.407 56.9792 161.157L59.5023 160.322V164.864H62.0885V164.56C62.0885 162.606 62.0885 160.652 62.0885 158.698C62.0885 157.845 61.8311 157.472 61.0259 157.175C56.419 155.493 51.8118 153.811 47.2041 152.13C46.7613 151.957 46.2701 151.957 45.8273 152.13C42.1876 153.468 38.5448 154.798 34.8987 156.119C33.8688 156.494 32.839 156.864 31.8149 157.247C31.2421 157.461 30.9003 157.969 30.9235 158.524C30.9466 159.079 31.2878 159.519 31.8632 159.717ZM54.3576 164.223C53.1892 164.707 52.0184 165.193 50.8452 165.68C49.509 166.232 48.176 166.791 46.832 167.323C46.6256 167.399 46.3992 167.401 46.1916 167.328C43.7875 166.354 41.3944 165.354 38.9917 164.379C38.6879 164.256 38.5932 164.1 38.61 163.783C38.6383 163.27 38.6177 162.754 38.6177 162.183C40.8061 162.977 42.9418 163.698 45.0317 164.538C46.0577 164.95 46.9569 164.952 47.9803 164.538C49.9705 163.733 52.007 163.046 54.0248 162.311C54.1246 162.275 54.227 162.246 54.3576 162.205V164.223ZM36.5979 158.242C39.8059 157.069 43.0147 155.899 46.2244 154.733C46.3834 154.674 46.5571 154.668 46.72 154.715C50.046 155.92 53.369 157.131 56.6889 158.35C56.7456 158.371 56.7984 158.403 56.9354 158.471C56.127 158.767 55.3991 159.035 54.6698 159.302C52.0454 160.262 49.4202 161.219 46.7941 162.173C46.6224 162.236 46.4354 162.241 46.2605 162.189C42.9478 160.99 39.6379 159.782 36.3308 158.566C36.2709 158.544 36.2117 158.517 36.0733 158.459C36.2948 158.368 36.4422 158.299 36.5979 158.242Z" fill="#FFFDFD"/>
<path d="M43.9341 179.276H49.0711V176.708H43.9341V179.276Z" fill="#FFFDFD"/>
<rect width="104" height="67" transform="translate(0 207)" fill="#006EC7"/>
<path d="M39.9085 253.93C37.8904 253.899 35.8722 253.923 33.854 253.912C32.1544 253.902 31.3343 253.197 31.3343 251.755C31.3314 243.436 31.3314 235.118 31.3343 226.8C31.3343 225.355 32.153 224.645 33.8533 224.644C40.7963 224.638 47.739 224.638 54.6815 224.644C56.3372 224.644 57.1566 225.362 57.1617 226.764C57.1676 228.454 57.1537 230.146 57.1683 231.836C57.1764 232.778 57.7798 233.46 58.7449 233.681C60.2197 234.017 61.4624 233.153 61.4851 231.731C61.5114 230.064 61.5027 228.395 61.4895 226.727C61.4624 223.333 58.7302 221.014 54.7247 221.006C47.7275 220.996 40.7309 220.998 33.7347 221.014C33.0171 221.014 32.2701 221.072 31.5891 221.251C28.7391 221.997 27.019 224.055 27.0095 226.689C26.9941 230.871 27.0051 235.053 27.0051 239.235C27.0051 243.44 26.9911 247.644 27.0095 251.849C27.0248 255.207 29.7665 257.521 33.7201 257.546C35.6306 257.557 37.5418 257.559 39.4516 257.539C39.899 257.534 40.3808 257.492 40.7843 257.344C41.6426 257.028 42.1156 256.166 41.9428 255.411C41.748 254.561 40.9659 253.947 39.9085 253.93Z" fill="#FFFDFD"/>
<path d="M63.7422 238.563C62.6576 238.014 61.56 237.483 60.4652 236.947C57.8971 235.691 55.5121 236.23 54.0212 238.412C51.3674 242.302 48.6938 246.185 46.1016 250.102C45.6322 250.813 45.4052 251.676 45.2609 252.493C45.0866 253.482 45.1189 254.497 45.0618 255.501H45.0347C45.0347 255.911 44.9966 256.326 45.0412 256.732C45.2763 258.879 47.8693 260.53 50.2595 259.841C52.7397 259.126 54.8223 257.756 56.7584 256.26C56.8932 256.156 56.9781 256.002 57.0733 255.864C59.8428 251.793 62.6291 247.731 65.37 243.647C66.6383 241.759 65.9404 239.678 63.7422 238.563ZM58.7627 246.067C57.0982 248.519 55.4491 250.979 53.7517 253.413C53.4639 253.825 53.0194 254.192 52.5574 254.476C51.5446 255.098 50.4762 255.657 49.328 256.298C49.4173 254.917 49.492 253.667 49.5858 252.419C49.5967 252.269 49.6897 252.115 49.7813 251.98C52.4394 248.065 55.1 244.152 57.7631 240.24C57.8151 240.164 57.8847 240.096 57.9901 239.974L61.6683 241.777C60.6834 243.233 59.7241 244.65 58.7627 246.067Z" fill="#FFFDFD"/>
<path d="M52.8377 231.967C52.8413 230.891 51.9465 230.134 50.5405 230.127C46.3485 230.107 42.1559 230.107 37.9629 230.127C36.5548 230.133 35.6584 230.884 35.6562 231.96C35.6562 233.068 36.5775 233.788 38.0347 233.793C40.1041 233.801 42.1735 233.793 44.2429 233.793C46.3124 233.793 48.3818 233.799 50.4512 233.793C51.9121 233.788 52.8347 233.075 52.8377 231.967Z" fill="#FFFDFD"/>
<path d="M42.5423 237.46C41.0119 237.46 39.4814 237.448 37.951 237.464C36.5421 237.48 35.6553 238.2 35.6553 239.283C35.6553 240.366 36.5531 241.082 37.9671 241.086C40.9748 241.1 43.9818 241.1 46.988 241.086C48.405 241.079 49.2764 240.36 49.2734 239.265C49.2705 238.17 48.3947 237.475 46.9697 237.462C45.4956 237.448 44.0186 237.46 42.5423 237.46Z" fill="#FFFDFD"/>
<path d="M42.4362 244.765C41.6849 244.747 40.9321 244.765 40.18 244.765C39.4016 244.765 38.6217 244.75 37.8433 244.765C36.5904 244.792 35.7197 245.487 35.6611 246.481C35.6011 247.503 36.3348 248.327 37.5877 248.389C39.2765 248.47 40.9693 248.47 42.658 248.389C43.8927 248.332 44.666 247.487 44.614 246.492C44.5627 245.52 43.6642 244.795 42.4362 244.765Z" fill="#FFFDFD"/>
<rect width="104" height="67" transform="translate(0 276)" fill="#006EC7"/>
<path d="M27.3987 328.999L27.328 328.754C27.2987 328.652 27.2634 328.549 27.225 328.44C27.1218 328.18 27.0557 327.911 27.0281 327.637C27.0048 327.249 27.0108 326.854 27.0168 326.473C27.0221 326.116 27.0281 325.747 27.0086 325.39C26.9123 323.628 27.6257 322.534 29.2471 321.974C28.8239 320.328 29.9086 319.413 31.1594 318.672C32.8342 317.68 33.1499 315.91 33.2379 314.479C33.2314 314.406 33.1985 314.336 33.1439 314.28C31.8502 313.504 31.1895 312.614 31.2421 311.699C31.2744 311.108 31.627 310.258 33.0703 309.466C31.9427 307.992 31.5894 306.436 32.0254 304.837C32.0615 304.703 32.1066 304.573 32.1502 304.449C32.1645 304.407 32.1795 304.364 32.1938 304.32C32.384 303.753 32.7282 303.465 33.2168 303.465C33.3402 303.467 33.4627 303.484 33.5799 303.517C34.5293 303.776 34.2602 304.552 34.1587 304.845C33.6167 306.405 33.9745 307.766 35.2224 308.89C35.4334 309.064 35.708 309.17 35.9996 309.19C36.8566 309.21 37.7225 309.221 38.5742 309.221C39.4259 309.221 40.2745 309.21 41.1134 309.19C41.3555 309.185 41.6975 309.047 41.8922 308.878C43.5038 307.474 43.6211 305.221 42.1636 303.637C41.7275 303.172 41.1755 302.797 40.5485 302.54C39.9214 302.282 39.2352 302.149 38.5404 302.15C37.6966 302.149 36.8687 302.348 36.1477 302.725C35.9633 302.817 35.7874 302.921 35.6215 303.036C35.3051 303.269 35.0141 303.382 34.7338 303.382C34.524 303.382 34.2181 303.317 33.9512 303.005C33.3732 302.33 34.0956 301.819 34.3669 301.627C35.5035 300.823 36.9798 300.379 38.5238 300.379C40.0548 300.371 41.5418 300.819 42.7333 301.646C45.2575 303.427 45.9747 306.365 44.478 308.799C44.3442 309.016 44.1969 309.22 44.0405 309.435L44.0285 309.452C44.1187 309.494 44.2067 309.536 44.2961 309.581C44.7654 309.817 45.1535 310.156 45.4209 310.563C45.6883 310.97 45.8254 311.431 45.8183 311.899C45.8144 312.347 45.6722 312.786 45.4064 313.171C45.1405 313.557 44.7605 313.875 44.3051 314.093C43.8459 314.316 43.7985 314.462 43.8639 314.883C44.0097 315.823 44.2397 316.652 44.8118 317.523C44.8945 317.363 44.9757 317.208 45.0568 317.055C45.4011 316.401 45.7266 315.783 45.9589 315.16C47.015 312.316 47.2886 309.373 47.4277 306.615C47.4178 306.526 47.3749 306.441 47.3052 306.373C45.1576 305.232 44.6742 303.958 45.7371 302.157C43.7203 301.159 43.3317 299.46 43.2197 298.068C43.0904 296.411 42.8995 294.729 42.7153 293.101C42.6441 292.474 42.574 291.847 42.5048 291.22C42.462 290.82 42.5499 290.524 42.7747 290.315C42.9874 290.114 43.3069 290.012 43.7248 290.012H43.7444C44.2194 290.016 44.6998 290.017 45.1726 290.017C45.6236 290.017 46.0746 290.017 46.5257 290.012H46.5414C47.2473 290.012 47.669 290.339 47.76 290.956C47.8299 291.43 47.9103 291.913 47.9855 292.378C48.0764 292.931 48.1704 293.503 48.2501 294.068C48.3297 294.634 48.5876 294.626 48.7424 294.626H48.7575C48.9326 294.626 49.2581 294.618 49.2543 294.025C49.2543 293.664 49.2543 293.298 49.2543 292.944C49.2543 292.368 49.2611 291.771 49.2446 291.186C49.234 290.792 49.3393 290.502 49.567 290.301C49.7948 290.1 50.1225 290.005 50.5728 290.005H50.6074C51.4703 290.014 52.3498 290.019 53.221 290.019C54.0795 290.019 54.9545 290.014 55.8212 290.006H55.852C56.2902 290.006 56.6127 290.102 56.8367 290.299C57.0607 290.497 57.1742 290.799 57.1637 291.204C57.1502 291.69 57.1532 292.186 57.1562 292.667C57.1562 293.094 57.1614 293.536 57.1562 293.972C57.1442 294.587 57.4403 294.609 57.6177 294.619C57.6425 294.619 57.6658 294.619 57.6884 294.619C57.8387 294.619 58.0853 294.619 58.165 294.043C58.2266 293.6 58.3025 293.154 58.3762 292.723C58.4679 292.185 58.5634 291.629 58.6288 291.083C58.719 290.366 59.176 290 59.9968 290H60.1006C60.4689 290.012 60.8523 290.017 61.2792 290.017C61.6671 290.017 62.0873 290.013 62.6022 290.003H62.6609C63.0984 290.003 63.4306 290.107 63.6494 290.313C63.8681 290.519 63.95 290.801 63.9155 291.161C63.8478 291.797 63.7809 292.434 63.7148 293.07C63.5035 295.083 63.2855 297.165 63.0315 299.212C62.8683 300.528 62.0542 301.307 60.6914 302.142C60.7102 302.176 60.729 302.207 60.7478 302.244C60.9094 302.515 61.0374 302.799 61.1297 303.093C61.4837 304.386 60.8057 305.592 59.3158 306.312C59.161 306.387 58.9941 306.631 58.9978 306.717C59.1595 310.282 59.6323 312.961 60.5328 315.403C60.6388 315.689 60.7523 316.107 60.5215 316.429C60.4268 316.558 60.2351 316.727 59.8563 316.778C59.8265 316.782 59.7963 316.784 59.7661 316.784C59.3151 316.784 58.7295 316.308 58.5874 315.933C57.4306 312.882 57.1006 309.752 56.9337 307.094C56.9232 306.933 56.9247 306.77 56.9269 306.606H49.5415C49.5114 306.921 49.4818 307.236 49.4528 307.552C49.1138 311.216 48.7642 315 46.5384 318.435H59.9029C59.8849 318.382 59.875 318.327 59.8736 318.272C59.8638 317.918 59.8946 317.486 60.2156 317.297C60.3617 317.218 60.5323 317.178 60.7049 317.184C60.9252 317.184 61.2627 317.239 61.489 317.393C62.0646 317.79 62.6021 318.227 63.0961 318.699C63.3968 318.978 63.478 319.379 63.4998 319.539C63.5526 319.935 63.5554 320.334 63.508 320.73C63.4532 321.207 63.5794 321.391 64.0974 321.585C65.2617 322.022 65.9277 322.938 65.9713 324.165C66.0187 325.481 65.9992 326.804 65.9713 327.924C65.9661 328.161 65.8593 328.377 65.7646 328.565C65.727 328.641 65.6895 328.713 65.6639 328.781L65.5775 329L27.3987 328.999ZM40.4369 327.196V323.618H38.0119H35.1946C33.2108 323.618 31.6796 323.618 30.2296 323.629C29.6282 323.633 29.1532 323.988 29.1283 324.457C29.0908 325.158 29.099 325.851 29.1073 326.585C29.1073 326.786 29.1118 326.992 29.1133 327.199L40.4369 327.196ZM63.9042 327.185C63.9042 326.969 63.9042 326.754 63.9042 326.539C63.9042 325.828 63.9042 325.152 63.9042 324.47C63.8944 323.378 63.4314 322.99 62.1354 322.987C61.1963 322.987 60.2572 322.987 59.3181 322.987H48.986C47.0857 322.987 45.5394 322.987 44.1202 322.991C43.143 322.991 42.5635 323.397 42.5319 324.098C42.4973 324.869 42.5048 325.632 42.5131 326.44C42.5131 326.684 42.5184 326.933 42.5191 327.185H63.9042ZM31.3203 321.85H33.8986C34.8638 321.85 35.8242 321.85 36.7799 321.85C38.7185 321.85 40.2159 321.844 41.6351 321.833C41.8207 321.829 42.0032 321.791 42.1709 321.723C42.3386 321.654 42.4877 321.556 42.6086 321.435C42.6688 321.375 42.7194 321.309 42.7589 321.237H31.3203V321.85ZM61.404 321.131V320.295H45.0275V321.131H61.404ZM42.9476 319.352C42.9731 319.287 43.0002 319.222 43.0265 319.163C43.0851 319.027 43.1814 318.803 43.1768 318.722C42.2132 317.288 41.899 315.756 41.7554 314.52H35.3411C35.1765 316.078 34.7683 317.811 33.3416 319.351L42.9476 319.352ZM38.7659 310.991C37.1219 310.991 35.7493 311 34.4444 311.02C34.1384 311.024 33.713 311.192 33.5867 311.357C33.416 311.581 33.3672 312.027 33.4626 312.16C33.6491 312.419 34.1271 312.678 34.4662 312.699C34.9751 312.733 35.5358 312.749 36.2311 312.749C36.598 312.749 36.9731 312.744 37.3354 312.74C37.6977 312.736 38.0781 312.732 38.4502 312.732H38.5216C38.929 312.732 39.3379 312.732 39.7461 312.736C40.1543 312.74 40.5609 312.736 40.9683 312.736C41.599 312.736 42.1177 312.731 42.5988 312.722C42.9844 312.714 43.2941 312.616 43.4948 312.435C43.5818 312.352 43.6487 312.255 43.6914 312.15C43.7341 312.044 43.7519 311.933 43.7436 311.822C43.7233 311.11 43.0235 311.001 42.6086 310.999C41.3029 310.998 40.0272 310.993 38.7659 310.993V310.991ZM50.5442 302.639C49.8677 302.639 49.3054 302.639 48.7845 302.644C47.8464 302.649 47.2713 303.039 47.2465 303.689C47.237 303.824 47.2597 303.96 47.3134 304.087C47.367 304.215 47.4504 304.331 47.5585 304.43C47.8284 304.671 48.2606 304.805 48.7747 304.807C50.1045 304.813 51.4591 304.815 52.9158 304.815C54.3877 304.815 55.9317 304.815 57.6365 304.807C58.1522 304.807 58.5859 304.671 58.858 304.429C58.9658 304.332 59.0493 304.217 59.1035 304.09C59.1576 303.964 59.1813 303.83 59.173 303.696C59.1534 303.052 58.5716 302.649 57.6448 302.643C57.1261 302.643 56.5729 302.639 55.9031 302.639H54.4974H53.215H51.8785L50.5442 302.639ZM44.6487 291.823C44.7108 292.426 44.7717 293.028 44.8313 293.628C44.9982 295.296 45.1703 297.022 45.3816 298.713C45.5567 300.12 46.5753 300.867 48.3282 300.874C49.8647 300.879 51.4019 300.883 52.8986 300.883C54.6372 300.883 56.3767 300.878 58.068 300.87C59.9315 300.861 60.9184 300.068 61.0846 298.444C61.1632 297.676 61.2439 296.908 61.3266 296.139C61.4146 295.308 61.5055 294.449 61.592 293.603C61.6408 293.121 61.6814 292.628 61.7205 292.151C61.7288 292.044 61.7378 291.936 61.7468 291.828H60.6057C60.5719 292.038 60.5396 292.249 60.5073 292.457C60.4005 293.148 60.2998 293.8 60.1637 294.462C59.9172 295.665 58.9858 296.384 57.6734 296.384C57.5854 296.384 57.4944 296.384 57.4035 296.373C56.0587 296.277 55.1657 295.388 55.1288 294.111C55.1198 293.816 55.1228 293.518 55.1288 293.231C55.1288 292.834 55.1364 292.424 55.1101 292.027C55.0864 291.95 55.045 291.877 54.9883 291.813C54.2185 291.792 53.4646 291.79 52.8249 291.79H51.8958H51.2862C51.2862 291.991 51.2914 292.189 51.2944 292.383C51.305 293.051 51.3147 293.681 51.2719 294.323C51.1907 295.539 50.1721 296.391 48.7958 296.391C48.6132 296.391 48.431 296.376 48.2516 296.347C47.1992 296.18 46.4843 295.527 46.2844 294.557C46.1408 293.856 46.0243 293.143 45.9123 292.453C45.8777 292.243 45.8439 292.034 45.8093 291.824L44.6487 291.823Z" fill="#F5F5F5"/>
</svg>
