<svg width="126" height="110" viewBox="0 0 126 110" fill="none" xmlns="http://www.w3.org/2000/svg">
<path opacity="0.3" d="M125.797 60.8921C125.837 52.9721 125.717 43.6221 124.487 34.3521C123.987 30.5421 122.747 21.1821 114.467 17.1221C111.547 8.61211 103.207 5.9521 96.9472 5.5821C73.7172 3.0021 55.7672 3.08211 34.6372 4.40211C12.3672 4.47211 4.97717 16.1921 4.27717 35.8021C3.04717 51.1521 3.27718 66.5021 4.96718 81.3821C4.94718 85.1821 7.60717 92.0821 12.1972 94.1621C15.0472 103.452 24.4572 105.262 28.2972 105.992C37.3772 107.742 46.6172 108.262 54.5672 108.622C72.2672 109.792 97.4072 109.582 111.057 103.702C118.307 100.942 122.747 95.3421 124.237 87.0521C125.827 78.2821 125.757 69.5221 125.797 60.8921Z" fill="#231F20"/>
<path d="M8.70717 90.6621C11.5572 99.9521 20.9672 101.762 24.8072 102.492C33.8872 104.242 43.1272 104.762 51.0772 105.122C68.7772 106.292 93.9172 106.082 107.567 100.202C114.817 97.4421 119.257 91.8421 120.747 83.5521C122.317 74.7721 122.247 66.0121 122.297 57.3921C122.337 49.4721 122.217 40.1221 120.987 30.8521C120.487 27.0421 119.247 17.6821 110.967 13.6221C108.047 5.11211 99.7072 2.4521 93.4472 2.0821C70.2172 -0.4979 52.2672 -0.417893 31.1372 0.902107C8.86717 0.972107 1.47717 12.6921 0.777174 32.3021C-0.452826 47.6521 -0.222824 63.0021 1.46718 77.8821C1.44718 81.6821 4.10717 88.5821 8.70717 90.6621Z" fill="white"/>
<path d="M9.66737 82.6221C10.7774 84.3321 12.4674 85.2721 14.6174 85.8621C15.0774 92.6321 19.6574 94.6721 26.0674 95.9021C34.3774 97.5021 42.9274 98.0421 51.3674 98.4221C68.5574 99.1921 88.7774 100.172 105.177 93.9321C110.587 91.8721 113.147 87.8821 114.137 82.3621C115.607 74.2021 115.537 65.6121 115.577 57.3521C115.627 48.8221 115.447 40.192 114.327 31.722C113.547 25.802 111.907 20.2821 105.637 18.8021C105.127 16.9221 104.407 15.102 103.327 13.412C100.847 9.51205 96.0374 9.15206 91.8974 8.64206C79.2874 7.08206 66.4774 6.74207 53.7774 6.74207C47.1674 6.74207 40.5674 6.96207 33.9774 7.43207C28.6774 7.81207 21.5874 7.82207 16.8374 10.4321C8.48737 15.0321 8.02736 25.2821 7.37736 33.7721C6.29736 47.8921 6.48737 62.4521 8.05737 76.5521C8.27737 78.3821 8.36737 80.6421 9.66737 82.6221Z" fill="#68182B"/>
<path d="M103.697 37.252C103.537 31.822 103.647 25.992 102.357 20.682C100.627 13.552 95.9573 12.732 89.5673 12.082C77.6973 10.872 65.7273 10.382 53.7973 10.442C47.1973 10.472 40.5773 10.612 33.9973 11.132C28.6073 11.562 19.5773 11.212 15.7673 15.722C9.5973 23.042 10.7173 36.802 10.5973 45.722C10.4573 56.532 10.6773 67.422 11.9573 78.162C13.0073 83.942 20.4773 83.182 24.9673 83.692C29.2173 84.182 33.4773 84.632 37.7373 84.972C45.5273 85.602 53.3373 86.062 61.1573 86.152C68.9573 86.232 76.7973 86.152 84.5673 85.422C89.4473 84.962 95.0473 84.692 99.6373 82.792C103.627 81.142 103.127 76.912 103.267 73.262C103.447 68.692 103.597 64.122 103.687 59.542C103.837 52.122 103.917 44.682 103.697 37.252ZM48.8973 65.722C48.6873 68.162 48.3473 69.502 46.9173 70.622C44.8573 72.242 39.7973 71.602 37.3973 71.642C32.6173 71.732 27.7273 71.832 22.9673 71.312C19.3373 70.922 18.3873 69.222 18.1373 65.452C17.8273 60.772 16.8573 53.132 19.9973 49.162C21.9573 46.692 25.7473 47.262 28.5973 47.202C33.3773 47.102 38.2173 47.002 42.9873 47.402C45.1173 47.582 46.4373 48.462 47.2973 49.842C48.6273 51.992 48.7473 55.152 48.9973 57.762C49.1973 59.962 49.0973 63.382 48.8973 65.722ZM95.1373 39.042C93.7873 41.482 91.8373 41.972 89.2573 42.132C82.0773 42.582 74.8673 42.582 67.6773 42.632C53.7473 42.732 39.7173 42.982 25.7973 42.182C23.9073 42.072 22.1673 42.042 20.5273 40.972C18.0673 39.362 18.0173 35.022 17.9873 32.482C17.9373 26.992 17.8373 18.752 24.8073 18.472C38.4773 17.922 52.2073 18.102 65.8873 18.152C72.5873 18.182 79.2873 18.202 85.9773 18.362C87.6973 18.402 89.4273 18.422 91.1473 18.572C94.2673 18.842 95.1373 22.502 95.6873 24.982C96.3473 29.022 97.2373 35.242 95.1373 39.042Z" fill="#DDA96B"/>
<path d="M20.6171 53.3221C21.2871 48.7621 25.1071 49.5221 28.5971 49.4321C32.1271 49.3421 35.6672 49.3621 39.2072 49.4521C40.4672 49.4821 41.7272 49.5421 42.9872 49.6321C45.6272 49.8121 46.1172 52.2421 46.4572 54.5221C46.7772 58.7321 46.9672 63.0921 46.2972 67.2821C45.8472 70.0921 40.4571 69.3321 38.3371 69.4021C35.0771 69.5021 31.8072 69.4821 28.5472 69.4021C26.1672 69.3421 20.9571 70.1621 20.5871 67.2821C19.9371 62.1021 20.0071 57.4821 20.6171 53.3221Z" fill="#00EBED"/>
<path d="M106.968 73.2721C107.628 57.3221 108.198 41.112 106.718 25.192C106.578 23.632 106.868 22.912 108.308 24.732C110.858 27.982 110.918 33.5521 111.248 37.5221C111.838 44.6521 111.918 51.832 111.878 58.982C111.838 65.822 111.588 72.682 110.838 79.482C110.058 86.572 107.168 89.6721 100.318 91.6421C86.8776 95.5321 71.8276 95.162 57.9776 94.9221C50.5776 94.7921 43.1676 94.3621 35.8076 93.5921C30.6576 93.0521 21.6676 92.972 19.0276 88.072C18.3976 86.902 18.7376 86.612 20.3876 86.822C28.1676 87.832 35.9876 88.582 43.8176 89.132C59.2976 90.212 75.0576 90.452 90.4776 88.472C94.7376 87.932 99.2976 87.312 103.098 85.202C107.138 82.962 106.808 77.1521 106.968 73.2721Z" fill="#FFC522"/>
<path d="M20.2773 28.692C20.3673 26.822 20.7373 20.952 23.4973 20.752C24.3673 20.692 25.2373 20.662 26.0973 20.632C32.2273 20.422 38.3773 20.412 44.5173 20.372C58.8673 20.292 73.2373 20.202 87.5873 20.612C91.1473 20.712 92.6273 21.432 93.5373 25.562C94.0373 28.652 95.5473 39.262 90.6173 39.792C88.6173 40.012 86.5873 40.042 84.5773 40.112C77.6773 40.342 70.7773 40.392 63.8773 40.422C50.6973 40.492 37.3373 40.842 24.1873 39.852C19.2473 39.482 20.1173 32.082 20.2773 28.692Z" fill="#FF2E60"/>
<path d="M28.5574 69.4021C31.8174 69.4821 35.0874 69.5021 38.3474 69.4021C40.4674 69.3421 45.8574 70.102 46.3074 67.282C46.7374 64.602 46.8074 61.8521 46.7174 59.1221C46.4074 61.1721 45.7274 63.1121 44.3874 64.7021C42.0074 67.5321 36.7674 66.7821 33.4674 67.0121C30.0874 67.2421 26.5374 67.482 23.4974 65.752C21.4374 64.582 20.5774 62.3821 20.1274 60.0221C20.1174 62.3121 20.2674 64.7321 20.5874 67.2921C20.9674 70.1621 26.1774 69.3421 28.5574 69.4021Z" fill="#19BFBB"/>
<path d="M39.2476 51.8121C35.2876 51.6421 25.9976 51.4921 24.7776 52.6221C23.6876 53.6321 23.7376 56.0021 23.9076 57.2321C24.0576 58.3521 25.1176 58.7121 26.2476 58.9021C28.0676 59.2021 35.9676 59.2221 39.9576 58.8421C42.4376 58.6121 43.4476 58.4121 43.5576 56.7121C43.5976 56.0721 43.3776 54.7121 43.0576 53.7521C42.5276 52.1221 41.1376 51.8921 39.2476 51.8121Z" fill="#6CFFFB"/>
<path d="M48.4976 68.232C49.1676 67.022 49.5176 65.552 49.6676 64.262C50.1276 60.122 49.6076 55.3021 48.6576 51.2421C47.8476 47.7321 44.8376 46.792 41.6476 46.602C36.9076 46.312 32.1176 46.3721 27.3776 46.5621C24.5076 46.6821 21.8276 46.602 19.8476 48.972C18.9776 50.012 18.4876 51.462 18.2676 53.042C18.6076 51.572 19.1476 50.2321 19.9976 49.1721C21.9576 46.7021 25.7476 47.2721 28.5976 47.2121C33.3776 47.1121 38.2176 47.012 42.9876 47.412C45.1176 47.592 46.4376 48.472 47.2976 49.852C48.6276 52.002 48.7476 55.1621 48.9976 57.7721C49.2076 59.9621 49.1076 63.382 48.9076 65.722C48.8176 66.732 48.6976 67.542 48.4976 68.232Z" fill="#C48D51"/>
<path d="M28.3376 17.5121C25.9976 17.6421 22.8776 17.3321 20.8976 18.9021C18.6876 20.6621 18.1776 22.9421 17.8876 25.6721C17.6576 27.8121 17.4576 30.8821 18.0076 33.5721C17.9976 33.1821 17.9875 32.8121 17.9875 32.4721C17.9375 26.9821 17.8376 18.7421 24.8076 18.4621C38.4776 17.9121 52.2076 18.0921 65.8876 18.1421C72.5876 18.1721 79.2876 18.1921 85.9776 18.3521C87.6976 18.3921 89.4276 18.4121 91.1476 18.5621C94.2676 18.8321 95.1375 22.4921 95.6875 24.9721C96.3175 28.8121 97.1475 34.6421 95.4075 38.4621C96.1475 37.5021 96.5975 36.3521 96.8775 34.6821C97.4875 31.0021 97.0975 27.1421 96.2876 23.5321C95.8276 21.5121 94.9176 19.3821 93.0476 18.3321C91.3176 17.3521 88.8076 17.6321 86.8976 17.5721C76.3776 17.2521 65.8275 17.2521 55.3075 17.2321C46.3375 17.2221 37.2976 17.0021 28.3376 17.5121Z" fill="#C48D51"/>
<path d="M103.808 51.172C103.548 55.382 103.228 59.592 102.778 63.782C102.408 67.302 101.908 70.812 101.348 74.312C100.918 77.022 100.018 79.292 97.5175 80.672C93.2875 83.002 87.5475 83.082 82.8775 83.512C75.9275 84.152 68.9575 84.482 61.9775 84.512C53.9475 84.542 45.9175 84.202 37.9075 83.682C33.4975 83.392 29.0975 83.022 24.6975 82.602C21.9575 82.342 18.6575 82.482 16.2075 80.992C14.3075 79.842 13.7475 77.352 13.3475 75.342C12.6075 71.632 12.4575 67.772 12.1575 64.012C11.6875 58.042 11.2275 52.082 10.9775 46.102C10.7175 39.932 10.6775 33.732 11.2075 27.582C10.3175 33.802 10.6475 40.582 10.5875 45.732C10.4475 56.542 10.6675 67.432 11.9475 78.172C12.9975 83.952 20.4675 83.192 24.9575 83.702C29.2075 84.192 33.4675 84.642 37.7275 84.982C45.5175 85.612 53.3276 86.072 61.1476 86.162C68.9476 86.242 76.7875 86.162 84.5575 85.432C89.4375 84.972 95.0375 84.702 99.6275 82.802C103.618 81.152 103.118 76.922 103.258 73.272C103.438 68.702 103.588 64.132 103.678 59.552C103.748 56.762 103.788 53.972 103.808 51.172Z" fill="#C48D51"/>
<path d="M103.668 36.2021C103.548 31.0721 103.558 25.6521 102.358 20.6721C100.628 13.5421 95.9576 12.7221 89.5676 12.0721C77.6976 10.8621 65.7276 10.3721 53.7976 10.4321C47.1976 10.4621 40.5776 10.6021 33.9976 11.1221C28.6076 11.5521 19.5776 11.2021 15.7676 15.7121C14.8876 16.7621 14.1676 17.9521 13.5576 19.2321C16.3276 16.3721 19.8376 14.5321 24.1176 13.7021C27.4576 13.0521 30.9376 12.9121 34.3276 12.6721C47.2676 11.7721 60.2776 11.7021 73.2376 12.2421C79.8976 12.5221 87.0576 12.5021 93.5576 14.1521C98.9476 15.5221 100.718 19.7321 101.788 24.6421C102.598 28.4521 103.198 32.3121 103.668 36.2021Z" fill="#F4C38E"/>
<path d="M107.927 26.992C107.857 25.972 107.777 24.972 107.627 23.992C106.787 23.232 106.597 23.922 106.717 25.192C108.207 41.112 107.637 57.322 106.967 73.272C106.807 77.162 107.137 82.962 103.087 85.212C99.2872 87.322 94.7172 87.932 90.4672 88.482C75.0472 90.462 59.2872 90.212 43.8072 89.142C35.9772 88.592 28.1672 87.842 20.3772 86.832C19.1172 86.672 18.6272 86.802 18.7372 87.382C29.1072 89.802 40.0472 90.4221 50.5972 90.872C64.0672 91.452 77.6772 91.532 91.1072 90.162C95.3672 89.722 101.017 89.582 104.567 86.822C107.667 84.412 108.107 80.412 108.357 76.752C109.127 65.272 108.747 53.622 108.497 42.122C108.397 37.072 108.257 32.022 107.927 26.992Z" fill="#FFA222"/>
<path d="M24.1873 39.8521C37.3473 40.8421 50.6973 40.4921 63.8773 40.4221C70.7773 40.3921 77.6773 40.3421 84.5773 40.1121C86.5873 40.0421 88.6173 40.0121 90.6173 39.7921C92.9573 39.5421 93.8373 37.0221 94.0773 34.1221C90.7473 36.9821 86.0773 37.9921 81.0473 38.2621C73.0373 38.6821 64.9573 38.7221 56.9473 38.6721C48.5973 38.6221 40.0973 39.1321 31.7673 38.4921C27.6173 38.1721 22.6773 37.5721 20.5673 33.4821C20.3873 33.1321 20.2473 32.7721 20.1173 32.4021C20.1073 35.8021 20.6873 39.5921 24.1873 39.8521Z" fill="#EA0F4D"/>
<path d="M84.7576 22.7121C76.4576 22.2221 68.0376 22.362 59.7376 22.322C50.5076 22.272 41.2776 22.2221 32.0576 22.3621C30.2876 22.3921 28.3176 22.3621 26.6076 22.7321C24.9976 23.0821 23.8576 24.3321 23.4276 25.6421C22.5676 28.2721 24.3176 29.5321 27.3976 29.6221C38.4476 29.9321 73.1576 29.742 85.1676 29.602C88.9376 29.562 91.0376 29.0721 90.0376 25.9621C89.5376 24.4021 87.8876 22.9021 84.7576 22.7121Z" fill="#FF6699"/>
<path d="M95.0973 60.742C81.7373 61.082 68.3673 61.032 55.0173 61.032C53.5873 61.032 53.5873 58.812 55.0173 58.812C68.3773 58.812 81.7473 58.862 95.0973 58.522C96.5273 58.492 96.5273 60.712 95.0973 60.742Z" fill="#68182B"/>
<path d="M95.0975 78.3921C69.9675 79.4721 44.1775 80.8921 19.0875 78.6821C17.6775 78.5621 17.6575 76.3421 19.0875 76.4621C44.1875 78.6721 69.9675 77.2521 95.0975 76.1721C96.5275 76.1121 96.5275 78.3321 95.0975 78.3921Z" fill="#68182B"/>
<path d="M95.0973 51.732C81.7373 52.072 68.3673 52.022 55.0173 52.022C53.5873 52.022 53.5873 49.802 55.0173 49.802C68.3773 49.802 81.7473 49.852 95.0973 49.512C96.5273 49.472 96.5273 51.692 95.0973 51.732Z" fill="#68182B"/>
<path d="M95.0973 69.7621C81.7373 70.1021 68.3673 70.0521 55.0173 70.0521C53.5873 70.0521 53.5873 67.8321 55.0173 67.8321C68.3773 67.8321 81.7473 67.882 95.0973 67.542C96.5273 67.512 96.5273 69.7321 95.0973 69.7621Z" fill="#68182B"/>
</svg>
