<svg width="510" height="372" viewBox="0 0 510 372" fill="none" xmlns="http://www.w3.org/2000/svg">
<g clip-path="url(#clip0_487_884)">
<path fill-rule="evenodd" clip-rule="evenodd" d="M254.068 12.8755C277.102 12.9372 295.891 33.501 295.834 58.6962C295.805 83.243 276.586 103.56 253.436 103.467C227.964 103.344 211.154 80.4641 211.642 57.2759C212.158 32.6673 230.746 12.8446 254.068 12.8755ZM253.895 74.505C254.641 74.5976 255.444 74.5667 256.133 74.8137C258.657 75.7709 260.464 75.0299 261.813 72.4362C260.35 72.5597 258.743 73.0538 257.309 72.7141C255.559 72.2819 254.584 72.8685 253.723 74.2888C253.494 74.4741 253.264 74.6594 253.035 74.8446C253.35 74.752 253.637 74.6285 253.895 74.505ZM270.045 73.2082C270.648 73.3008 271.623 73.6713 271.767 73.4243C273.172 71.1394 274.434 68.7619 275.725 66.3845C273.086 66.1374 270.533 65.1185 269.988 68.3297C269.73 69.9044 270.017 71.5717 270.074 73.2082L269.759 73.4243C269.816 73.4243 269.873 73.4243 269.902 73.3934C269.959 73.3934 269.988 73.3008 270.045 73.2082ZM249.248 60.7958C250.425 60.24 251.629 59.6843 252.805 59.1285C253.064 59.499 253.322 59.8695 253.58 60.24C252.748 61.7839 251.916 63.3277 251.084 64.8406C252.662 65.7669 257.481 64.3157 257.911 62.0309C258.284 59.9621 257.911 57.4303 257.08 55.4851C256.448 54.0339 254.613 53.1693 253.465 52.1813C252.203 52.9532 251.17 53.3546 250.425 54.1265C249.048 55.5159 247.011 56.8745 249.191 59.3446C249.449 59.6225 249.248 60.3327 249.277 60.8267C249.162 60.9193 249.076 60.9811 248.962 61.0737C249.019 61.0737 249.134 61.0737 249.134 61.0428C249.22 60.9811 249.22 60.8884 249.248 60.7958ZM257.424 22.2619C258.571 22.4163 259.747 22.4163 260.809 22.7868C263.534 23.744 266.288 25.9362 268.869 25.6892C272.971 25.257 274.836 27.6345 276.614 30.259C277.877 28.993 278.995 27.8197 280.143 26.6773C274.32 20.0388 261.669 14.5428 255.072 15.9323V20.8108C255.846 21.2739 256.621 21.7679 257.424 22.2619ZM224.55 29.4253C218.211 36.3416 213.248 49.8038 214.482 56.8436H220.247C220.419 47.8894 223.632 40.3247 228.796 33.748C227.304 32.2351 225.984 30.9074 224.55 29.4253ZM293.309 59.746H287.486C286.999 68.6076 283.987 76.1414 279.053 82.1932C280.372 83.9532 281.577 85.5279 282.868 87.2878C289.351 79.2291 293.08 70.4293 293.309 59.746ZM278.049 33.8098C284.589 39.6763 286.54 47.8586 287.63 56.4113H293.309C292.936 45.5428 288.92 36.7121 282.552 28.7769C281.003 30.506 279.626 32.0498 278.049 33.8098ZM251.974 15.4382C242.192 16.2102 233.844 19.9153 226.587 27.0478C228.136 28.5916 229.484 29.9811 230.603 31.0617C234.217 28.7769 237.373 26.3376 240.844 24.7629C244.343 23.1574 248.158 22.4472 251.974 21.3048V15.4382ZM226.558 89.5418C233.988 96.1494 242.077 100.441 252.031 100.719V94.5747C243.856 93.8954 236.684 90.8078 231.004 85.1574C229.427 86.7012 228.107 88.0289 226.558 89.5418ZM276.643 84.4472C273.975 87.1335 271.508 89.8197 268.841 92.1972C267.378 93.494 264.681 95.5936 264.079 95.1305C261.038 92.6912 258.17 94.6364 255.158 94.4512V100.719C265.312 100.379 273.717 96.3346 281.175 89.0478C279.598 87.4422 278.278 86.1145 276.643 84.4472ZM230.918 35.3227C225.612 41.745 223.116 48.7231 222.628 56.8127H228.308C228.796 50.2978 230.832 44.6474 234.619 40.0777C233.385 38.503 232.295 37.0827 230.918 35.3227ZM235.996 36.9592C241.561 34.4582 246.638 32.1733 251.916 29.7958V24.7012C244.429 25.3187 238.147 28.1285 232.611 33.5319C234.016 34.9522 235.307 36.249 235.996 36.9592ZM277.59 79.8157C282.179 74.3815 284.474 67.5269 285.019 59.7769H279.368C279.426 66.4153 276.328 71.51 273.057 76.4811C274.492 77.5617 275.926 78.5807 277.59 79.8157ZM271.222 34.5508C270.877 34.8287 270.504 35.1066 270.16 35.3845C274.692 41.8994 279.655 48.26 279.167 56.6892H284.905C284.991 50.2669 283.183 45.1414 278.106 41.745C275.897 40.2629 273.459 39.0588 272.828 35.8476C272.742 35.3227 271.795 34.9831 271.222 34.5508ZM252.031 91.7958V86.4542C248.847 85.4044 245.519 85.0339 242.938 83.3356C239.467 81.0508 236.856 82.749 233.443 83.8914C239.151 88.6155 245.06 91.2709 252.031 91.7958ZM269.328 34.9213C268.869 27.9741 261.669 23.4353 255.158 25.257V30.259C259.317 31.6484 263.19 32.9452 267.062 34.2111C267.148 33.748 267.234 33.1613 267.32 32.5438C267.521 32.4203 267.751 32.2968 267.951 32.1733C268.41 33.0996 268.869 33.995 269.328 34.9213ZM255.072 39.0588C258.514 40.51 261.755 41.8685 264.739 43.1345C265.972 42.0229 267.263 40.8496 268.64 39.6145C264.624 35.7858 260.178 34.0259 255.043 33.5936V39.0588H255.072ZM252.031 33.6245C246.868 34.0259 242.593 36.1564 238.577 39.6763C239.581 40.8187 240.356 41.8994 241.303 42.6713C241.848 43.1036 242.88 43.4123 243.454 43.1345C246.322 41.8376 249.105 40.3556 252.031 38.8735V33.6245ZM217.522 73.1464C217.178 73.5169 216.834 73.8874 216.49 74.258C219.071 78.6424 221.653 83.0578 224.177 87.2878C226.099 85.5896 227.505 84.3546 229.455 82.6564C225.181 79.2599 221.337 76.2032 217.522 73.1464ZM236.168 74.4432C237.516 73.239 238.979 71.9422 240.212 70.8307C238.836 67.743 237.631 65.0568 236.455 62.4014C236.053 62.8028 235.623 63.2351 235.192 63.6673C234.934 63.4512 234.705 63.2351 234.447 62.988C235.135 62.1235 236.024 61.3207 236.426 60.3327C236.856 59.3137 236.914 58.0478 236.856 56.9054C236.856 56.6584 235.795 56.4113 235.824 56.4113C234.992 58.1096 234.447 59.2829 233.902 60.4253C233.471 61.3516 232.582 62.4631 232.754 63.2042C233.758 67.0946 235.049 70.8924 236.168 74.4432ZM236.856 41.5289C233.271 45.6972 231.664 50.2052 230.947 55.1454C230.861 55.7012 231.492 56.3496 231.808 56.9671C232.181 56.4113 232.611 55.8864 232.955 55.2998C233.787 53.9412 234.389 52.3665 235.422 51.1932C237.057 49.3098 238.979 47.7042 240.327 46.3765C239.094 44.6783 238.118 43.2888 236.856 41.5289ZM215.744 70.9851C216.002 71.0468 216.289 71.1394 216.547 71.2012C215.887 67.0637 219.53 68.0827 220.936 66.4153C220.62 64.1305 220.333 61.9382 220.075 59.8695H213.822C214.51 63.7599 215.113 67.3725 215.744 70.9851ZM237.832 76.9442C241.561 79.0129 244.573 80.6803 247.47 82.2858C247.814 79.9084 248.044 78.2101 248.273 76.6354C246.236 75.3695 244.171 74.0727 242.134 72.8068C240.958 73.9183 239.782 75.0607 237.832 76.9442ZM243.741 70.491C246.552 71.9422 248.646 72.992 251.142 74.2888C251.859 72.1584 252.433 70.4293 252.949 68.8546C250.826 67.9592 249.277 67.3107 247.958 66.755C246.695 67.8665 245.548 68.8854 243.741 70.491ZM270.849 41.2201C269.242 43.1036 267.894 44.6474 266.402 46.4074C268.238 46.9014 270.39 46.8705 270.791 47.7351C271.91 50.1743 274.09 49.8964 276.184 51.6255C274.205 47.7968 272.627 44.74 270.849 41.2201ZM257.797 49.5259C260.034 50.6683 261.985 48.9084 262.329 44.8944C260.092 44.0607 257.739 43.1962 254.842 42.1155C255.043 44.4004 255.158 45.6972 255.33 47.3337C256.764 46.7161 257.739 46.3147 259.489 45.5737C258.743 47.3028 258.313 48.3217 257.797 49.5259ZM252.06 46.253V41.992C249.048 43.4432 246.495 44.6783 243.97 45.8825C246.695 51.0697 249.334 47.9821 252.06 46.253ZM222.514 59.9313C222.944 62.6175 223.345 65.1494 223.776 68.0518C224.521 66.1066 224.923 64.6245 225.64 63.3894C226.329 62.2161 227.39 61.2898 228.279 60.24C226.845 60.0239 225.382 59.8078 223.948 59.6225C223.69 59.6225 223.403 59.746 222.514 59.9313ZM258.399 91.3944C257.825 89.7888 257.338 88.3685 256.764 86.7321C253.58 87.4113 255.444 89.9123 254.986 91.8884C256.391 91.6723 257.481 91.5179 258.399 91.3944ZM270.992 78.488C270.533 78.7042 270.074 78.9203 269.615 79.1364C272.426 80.7729 272.742 82.8725 271.738 85.5896C272.656 84.8486 273.574 84.0767 274.75 83.0886C273.402 81.3904 272.197 79.9392 270.992 78.488ZM239.467 62.6175C240.557 64.8715 241.36 66.5388 242.22 68.3605C244.515 65.8287 243.97 64.6862 239.467 62.6175Z" fill="#558FCC"/>
<path fill-rule="evenodd" clip-rule="evenodd" d="M129.544 177.231C137.432 180.411 140.731 186.556 140.616 194.769C140.473 204.125 135.568 211.103 127.335 214.098C124.897 214.993 122.286 215.364 119.762 215.827C118.442 216.074 117.065 216.012 115.746 216.012C107.886 216.012 99.9975 216.012 91.9082 216.012V142.063C92.0516 141.97 92.1951 141.754 92.3385 141.754C102.12 141.877 111.959 141.445 121.712 142.31C133.732 143.39 140.645 154.321 137.92 166.455C136.801 171.365 133.789 174.514 129.544 177.231ZM105.62 203.414C110.439 203.075 115.029 203.106 119.504 202.365C123.749 201.654 126.216 198.104 126.216 193.966C126.216 189.705 123.95 185.876 119.905 185.135C115.258 184.302 110.468 184.394 105.591 184.086V203.414H105.62ZM105.706 154.66V172.383C110.124 172.044 114.369 172.167 118.442 171.303C122.716 170.407 124.839 166.702 124.495 162.441C124.151 158.211 121.397 155.093 117.094 154.753C113.422 154.413 109.665 154.66 105.706 154.66Z" fill="#4E8DCB"/>
<path fill-rule="evenodd" clip-rule="evenodd" d="M52.6953 217.34C35.3693 217.34 21.5141 203.754 19.5348 185.166C18.2727 173.341 20.1659 162.379 27.2226 153.055C35.8569 141.63 47.3885 138.327 60.4117 141.291C73.3202 144.224 81.0653 153.425 84.7084 166.733C87.3474 176.336 86.8311 185.938 83.3028 195.263C77.996 209.219 66.7225 217.34 52.6953 217.34ZM72.3736 178.59C71.3122 174.143 70.7098 169.481 69.0748 165.282C66.3783 158.427 61.387 154.382 54.2443 153.858C46.8722 153.333 40.9056 156.142 37.3486 163.182C32.0417 173.649 31.8696 184.487 37.578 194.738C44.6921 207.583 61.5305 206.965 68.415 193.966C70.8819 189.273 71.7712 184.147 72.3736 178.59Z" fill="#4E8DCB"/>
<path fill-rule="evenodd" clip-rule="evenodd" d="M480.856 161.175H467.402C464.103 153.765 458.739 151.295 451.396 154.074C448.585 155.124 446.519 157.13 446.146 160.434C445.802 163.645 447.15 166.363 449.761 167.598C454.293 169.759 459.083 171.395 463.759 173.217C466.111 174.143 468.521 174.884 470.787 175.934C486.163 183.036 484.298 201.809 476.18 210.145C466.542 220.088 445.056 219.779 436.02 209.219C432.406 205.02 431.058 199.833 431.086 193.874H444.483C447.638 203.847 456.071 207.459 464.562 202.488C466.943 201.099 468.435 199.061 468.435 196.097C468.435 193.225 467.001 191.064 464.62 190.014C458.108 187.204 451.539 184.611 444.999 181.955C433.754 177.385 429.164 165.313 434.299 153.641C437.512 146.324 442.991 142.279 450.277 140.889C457.162 139.593 463.931 140.087 470.242 143.421C476.811 146.91 480.225 152.777 480.856 161.175Z" fill="#4E8DCB"/>
<path fill-rule="evenodd" clip-rule="evenodd" d="M226.042 202.519V215.827H182.498V141.877H225.985V155.031H196.353V171.859H225.239V184.981H196.353V202.519H226.042Z" fill="#4E8DCB"/>
<path fill-rule="evenodd" clip-rule="evenodd" d="M301.399 141.63C305.902 141.63 310.32 141.507 314.709 141.754C315.483 141.785 316.545 143.267 316.832 144.317C320.733 158.366 324.519 172.445 328.334 186.525C329.138 189.489 329.97 192.422 330.974 196.066C333.871 185.166 336.567 174.946 339.264 164.726C341.1 157.779 342.935 150.832 344.714 143.854C345.144 142.186 345.833 141.538 347.496 141.6C351.598 141.754 355.729 141.661 360.319 141.661C359.458 144.595 358.712 147.126 357.967 149.627C351.541 171.056 345.087 192.453 338.69 213.881C338.202 215.549 337.456 216.135 335.821 216.074C332.35 215.95 328.908 216.135 325.437 215.95C324.577 215.919 323.228 215.055 322.97 214.283C315.684 190.446 308.484 166.61 301.284 142.742C301.255 142.557 301.341 142.31 301.399 141.63Z" fill="#4E8DCB"/>
<path fill-rule="evenodd" clip-rule="evenodd" d="M245.95 155.124H228.107V141.816H277.819V155.093H259.834V215.765H245.95V155.124Z" fill="#4E8DCB"/>
<path fill-rule="evenodd" clip-rule="evenodd" d="M243.31 278.29C246.552 278.29 249.736 278.105 252.834 278.413C253.752 278.506 254.699 279.957 255.33 281.038C260.636 290.393 265.857 299.78 271.107 309.166C271.738 310.278 272.398 311.359 273.43 313.119V278.537H282.925V331.027C279.827 331.027 276.844 331.212 273.918 330.903C273 330.811 271.939 329.514 271.336 328.464C265.57 318.337 259.891 308.147 254.154 297.989C253.867 297.464 253.522 297.001 252.719 295.766V330.842H243.282V278.29H243.31Z" fill="#47AEE4"/>
<path fill-rule="evenodd" clip-rule="evenodd" d="M141.792 141.785H172.887C172.974 142.588 173.146 143.36 173.146 144.131C173.146 160.558 173.232 177.015 173.117 193.441C173.06 201.191 171.138 208.231 164.597 212.708C160.151 215.734 155.016 216.166 149.939 216.506C147.386 216.66 144.804 216.537 142.079 216.537V203.692C144.718 203.692 147.271 203.723 149.824 203.692C156.594 203.63 159.291 200.728 159.291 193.534C159.291 180.936 159.291 168.308 159.291 155.34H141.764V141.785H141.792Z" fill="#4E8DCB"/>
<path fill-rule="evenodd" clip-rule="evenodd" d="M447.494 330.903H416.428V278.444H447.465V287.923H426.582V299.378H446.978V309.043H426.64V321.517H447.494V330.903Z" fill="#47AEE3"/>
<path fill-rule="evenodd" clip-rule="evenodd" d="M69.8777 278.444H79.5448V281.902C79.5448 291.536 79.4587 301.138 79.5734 310.772C79.6595 318.46 83.7042 322.567 90.5887 322.351C96.4692 322.196 100.17 318.059 100.313 310.957C100.514 301.355 100.399 291.721 100.428 282.088C100.428 280.976 100.428 279.834 100.428 278.506H110.066C110.124 279.432 110.238 280.42 110.238 281.377C110.238 290.887 110.238 300.428 110.238 309.938C110.238 318.398 107.771 325.623 100.399 329.483C92.7688 333.497 84.9376 333.219 77.5941 328.31C72.9184 325.191 70.2506 320.251 70.0212 314.662C69.5622 302.713 69.8777 290.733 69.8777 278.444Z" fill="#46ADE3"/>
<path fill-rule="evenodd" clip-rule="evenodd" d="M50.6589 292.308C48.5648 286.843 43.4301 284.836 38.5823 287.46C34.8245 289.498 34.5089 294.284 38.2093 296.569C40.5902 298.051 43.3441 298.823 45.9544 299.842C47.5895 300.49 49.2533 300.984 50.8883 301.602C58.6048 304.504 61.7888 309.475 61.1865 317.657C60.6988 324.327 55.4207 330.193 48.6222 331.521C43.6309 332.509 38.6683 332.262 33.8778 330.348C28.1694 328.063 24.8132 322.536 24.9853 315.558C28.0547 315.342 31.1814 315.126 34.1647 314.94C37.0332 322.412 42.5695 325.006 48.278 321.517C49.6262 320.683 51.1178 318.615 51.1465 317.102C51.1752 315.589 49.7409 313.366 48.3927 312.655C44.4341 310.587 40.2173 309.105 36.0866 307.468C29.2881 304.813 25.3295 299.533 25.5877 293.234C25.8746 285.638 30.5503 279.556 37.7217 277.919C43.717 276.53 49.5975 276.993 54.847 280.822C57.7442 282.952 59.4366 286.009 60.0677 289.776C60.3546 291.505 59.7522 292.339 58.1171 292.339C55.6501 292.308 53.2406 292.308 50.6589 292.308Z" fill="#46ADE3"/>
<path fill-rule="evenodd" clip-rule="evenodd" d="M144.518 292.308C142.366 286.904 137.748 284.836 132.929 287.398C131.437 288.201 129.687 290.208 129.572 291.814C129.458 293.419 130.863 295.828 132.24 296.754C134.535 298.298 137.346 298.977 139.957 299.965C142.108 300.799 144.346 301.447 146.468 302.404C156.078 306.696 158.201 319.356 150.628 327.106C143.628 334.269 128.339 333.744 121.942 326.025C119.561 323.153 118.414 319.726 118.901 315.558C122.028 315.342 125.04 315.156 127.995 314.971C129.945 323.833 137.318 324.08 141.735 321.702C143.198 320.899 144.891 318.769 144.948 317.225C144.977 315.65 143.399 313.335 141.965 312.594C138.006 310.525 133.761 309.105 129.63 307.468C122.43 304.658 118.643 298.884 119.475 291.845C120.364 284.156 125.987 278.475 133.33 277.549C137.92 276.993 142.338 277.394 146.497 279.525C150.369 281.501 152.693 284.897 153.812 289.344C154.299 291.351 153.668 292.308 151.775 292.308C149.423 292.339 147.042 292.308 144.518 292.308Z" fill="#46ADE3"/>
<path fill-rule="evenodd" clip-rule="evenodd" d="M203.839 278.444H234.619V287.892H213.65V299.471H234.045V309.135H213.65V321.455H234.648V330.842H203.839V278.444Z" fill="#46ADE3"/>
<path fill-rule="evenodd" clip-rule="evenodd" d="M370.674 330.996C367.232 330.996 364.277 331.089 361.323 330.934C360.634 330.903 359.716 330.039 359.401 329.329C358.712 327.754 358.053 326.056 357.852 324.358C357.393 320.652 355.643 319.479 352.23 319.819C348.701 320.189 345.116 320.066 341.587 319.85C339.378 319.695 338.661 320.714 338.059 322.752C335.42 332.046 335.362 332.015 325.265 330.718C325.781 328.927 326.212 327.198 326.757 325.531C331.748 310.803 336.797 296.075 341.702 281.316C342.476 279 343.452 278.166 345.804 278.228C353.262 278.413 353.262 278.29 355.787 285.916C360.376 299.718 364.966 313.52 369.556 327.291C369.871 328.31 370.187 329.39 370.674 330.996ZM353.951 311.451C351.857 304.658 349.935 298.36 348.013 292.061C347.812 292.061 347.611 292.061 347.41 292.061C345.488 298.421 343.538 304.813 341.53 311.451H353.951Z" fill="#46ADE3"/>
<path d="M297.412 141.785H283.671V215.827H297.412V141.785Z" fill="#5791CD"/>
<path fill-rule="evenodd" clip-rule="evenodd" d="M368.552 278.29C371.879 278.29 374.949 278.166 377.961 278.413C378.592 278.475 379.452 279.772 379.71 280.667C382.808 291.845 385.849 303.022 388.89 314.199C389.033 314.755 389.291 315.249 389.722 316.268C392.934 304.133 396.09 292.586 399.044 281.007C399.561 278.938 400.307 278.074 402.343 278.228C404.896 278.413 407.478 278.259 410.433 278.259C409.371 281.902 408.453 285.144 407.478 288.356C403.462 301.694 399.36 315.033 395.401 328.402C394.799 330.44 393.967 331.089 391.988 331.058C384.099 330.996 384.128 331.058 381.661 322.845C377.473 308.919 373.285 294.963 369.097 281.038C368.896 280.297 368.781 279.494 368.552 278.29Z" fill="#46ADE3"/>
<path fill-rule="evenodd" clip-rule="evenodd" d="M325.839 278.444V287.954H313.361V330.78H303.149V288.139H290.499V278.444H325.839Z" fill="#49AFE3"/>
<path fill-rule="evenodd" clip-rule="evenodd" d="M173.376 287.985H160.639V278.537H196.008V287.892H183.473V330.811H173.376V287.985Z" fill="#49AFE3"/>
<path fill-rule="evenodd" clip-rule="evenodd" d="M484.614 320.992V330.749H456.1V278.506H466.054V320.992H484.614Z" fill="#47AEE4"/>
<path fill-rule="evenodd" clip-rule="evenodd" d="M342.993 231.296C349.505 230.555 349.505 230.555 351.857 236.576C353.836 241.609 355.815 246.641 358.053 252.323C359.659 248.309 361.094 244.82 362.471 241.3C363.159 239.602 363.79 237.873 364.479 236.143C366.745 230.37 366.945 230.277 373.199 231.419V262.852H367.663V243.461C367.49 243.43 367.318 243.399 367.118 243.338C365.024 248.957 363.016 254.577 360.778 260.104C360.29 261.308 359.143 262.605 358.053 262.975C356.16 263.624 355.844 261.586 355.299 260.196C353.205 254.762 351.14 249.328 348.615 243.924V262.913H342.964V231.296H342.993Z" fill="#46ADE3"/>
<path fill-rule="evenodd" clip-rule="evenodd" d="M403.605 231.45C409.429 230.308 409.716 230.462 412.498 235.464C415.395 240.682 418.321 245.9 421.735 250.995V231.265H427.357C427.357 241.732 427.357 252.199 427.357 262.697C422.595 263.932 421.849 263.623 419.44 259.424C416.342 253.99 413.273 248.556 409.543 243.245V257.85C409.543 263.778 409.543 263.778 403.605 262.79V231.45Z" fill="#47AEE3"/>
<path fill-rule="evenodd" clip-rule="evenodd" d="M196.267 231.419C202.061 230.431 202.061 230.431 204.729 235.248C207.655 240.528 210.638 245.777 214.052 251.829V231.296H219.703V262.574C215.199 264.025 214.08 263.562 211.757 259.393C208.687 253.928 205.618 248.463 202.032 243.091V262.852H196.267V231.419Z" fill="#47AEE4"/>
<path fill-rule="evenodd" clip-rule="evenodd" d="M26.7924 230.771C32.2713 231.111 37.6929 230.956 42.8849 231.975C45.2945 232.438 47.9623 234.723 49.4539 237.008C55.3631 245.962 51.3759 259.949 42.1104 262.265C37.2626 263.469 32.0418 263.099 26.7637 263.469V230.771H26.7924ZM32.8163 257.047C37.2339 257.356 41.422 258.097 44.1471 253.403C46.2411 249.76 46.1264 243.307 43.9176 240.096C41.7949 237.008 37.406 235.835 32.8163 237.224V257.047Z" fill="#49AFE3"/>
<path fill-rule="evenodd" clip-rule="evenodd" d="M468.177 263.376C459.714 263.346 454.092 256.645 454.121 246.703C454.149 237.317 460.231 230.462 468.492 230.462C476.868 230.462 483.007 237.625 482.921 247.352C482.835 256.831 476.782 263.407 468.177 263.376ZM460.403 248.216C460.518 251.026 461.407 254.546 464.792 256.676C467.345 258.282 470.041 258.127 472.451 256.491C475.692 254.268 476.639 250.655 476.581 246.796C476.495 242.936 475.405 239.447 472.049 237.317C471.418 236.915 470.615 236.699 469.869 236.607C464.132 235.742 460.374 239.972 460.403 248.216Z" fill="#46ADE3"/>
<path fill-rule="evenodd" clip-rule="evenodd" d="M265.485 263.376C256.994 263.376 251.027 256.584 251.056 246.981C251.084 237.471 257.223 230.431 265.513 230.431C273.889 230.462 279.856 237.348 279.856 247.012C279.856 256.862 274.119 263.376 265.485 263.376ZM274.062 247.012C273.287 244.634 272.885 242.103 271.738 240.065C268.898 235.001 262.186 235.094 259.145 240.034C256.678 244.079 256.707 250.13 259.26 254.144C262.358 259.023 269.042 258.992 271.795 253.867C272.885 251.86 273.287 249.482 274.062 247.012Z" fill="#46ADE3"/>
<path fill-rule="evenodd" clip-rule="evenodd" d="M91.9082 231.296C96.6126 231.296 101.26 230.74 105.763 231.419C114.226 232.685 118.7 240.713 116.922 250.377C115.574 257.695 111.529 261.925 104.415 262.697C100.342 263.129 96.211 262.79 91.9082 262.79V231.296ZM97.6453 246.888C97.6453 249.667 97.5593 252.477 97.7027 255.256C97.7314 256.028 98.1903 257.17 98.7354 257.417C102.407 258.992 108.087 256.398 109.751 252.477C111.472 248.371 111.414 244.171 109.206 240.312C106.939 236.421 103.124 236.421 99.4238 236.761C98.7927 236.823 97.8174 238.058 97.7601 238.83C97.5306 241.485 97.6453 244.202 97.6453 246.888Z" fill="#46ADE3"/>
<path fill-rule="evenodd" clip-rule="evenodd" d="M190.874 256.923V262.913H172.228V231.265H190.788V237.008H178.453V243.986H190.644V249.667H178.481V256.923H190.874Z" fill="#49AFE3"/>
<path fill-rule="evenodd" clip-rule="evenodd" d="M379.825 262.728V231.296H398.413V236.946H386.165V243.893H397.983V249.636H386.107V257.047H398.499V262.728H379.825Z" fill="#49AFE3"/>
<path fill-rule="evenodd" clip-rule="evenodd" d="M165.86 239.478C163.479 239.416 160.983 240.682 159.119 237.409C158 235.433 154.214 235.649 152.55 237.255C150.943 238.799 151.402 241.392 153.669 242.535C155.591 243.492 157.656 244.017 159.664 244.758C165.458 246.858 167.638 250.161 166.749 255.688C166.032 260.258 162.16 263.5 156.939 263.315C154.242 263.222 151.402 262.697 148.907 261.617C146.01 260.381 144.891 257.232 145.235 253.527C147.788 253.558 150.456 252.137 152.062 256.182C153.009 258.591 158.402 258.467 160.123 256.398C161.528 254.731 161.127 252.755 158.918 251.705C156.652 250.624 154.242 249.853 151.919 248.895C147.272 247.043 145.12 243.863 145.493 239.478C145.866 235.032 148.763 231.728 153.296 230.771C156.824 230.03 160.352 230.308 163.135 232.871C164.741 234.353 165.659 236.668 166.864 238.614C166.462 238.891 166.147 239.2 165.86 239.478Z" fill="#47AEE4"/>
<path fill-rule="evenodd" clip-rule="evenodd" d="M122.459 231.234H141.219C141.219 232.5 141.162 233.612 141.219 234.723C141.334 236.483 140.588 237.101 139.01 237.07C135.568 237.008 132.097 237.039 128.425 237.039V243.893H140.559V249.698C137.605 249.698 134.65 249.945 131.724 249.636C128.712 249.328 127.708 250.532 128.11 253.62C128.253 254.608 128.138 255.657 128.138 256.923H141.162C141.162 258.591 141.334 260.011 141.076 261.37C140.961 262.018 140.1 263.006 139.555 263.037C133.904 263.16 128.253 263.129 122.401 263.129V231.234H122.459Z" fill="#47AEE3"/>
<path fill-rule="evenodd" clip-rule="evenodd" d="M75.8443 231.296C75.9017 232.284 75.9017 233.087 76.0164 233.889C76.332 236.298 75.4714 237.224 73.1192 237.101C69.8777 236.915 66.6076 237.07 63.1653 237.07V243.986H75.3854V249.729C72.2299 249.729 69.1606 249.914 66.1486 249.667C63.6243 249.482 62.5629 250.347 62.9358 253.126C63.0793 254.237 62.9645 255.379 62.9645 256.923H75.7296C75.8443 258.097 75.9017 258.869 76.0164 259.671C76.3893 262.327 75.5001 263.346 72.861 263.222C67.6976 263.006 62.5342 263.16 57.1987 263.16V231.296H75.8443Z" fill="#47AEE3"/>
<path fill-rule="evenodd" clip-rule="evenodd" d="M313.992 253.125C315.311 248.124 316.631 243.183 317.95 238.274C318.122 237.564 318.323 236.884 318.495 236.174C320.102 230.37 320.102 230.37 325.954 231.388C325.896 232.068 325.982 232.809 325.781 233.426C322.999 242.658 320.245 251.89 317.319 261.092C317.032 261.956 315.77 263.006 314.996 262.975C313.361 262.944 310.607 262.666 310.291 261.709C306.964 251.829 304.038 241.794 301.026 231.821C305.558 229.752 307.423 230.647 308.685 235.248C310.291 241.084 311.869 246.919 313.475 252.755C313.504 252.878 313.59 252.878 313.992 253.125Z" fill="#47AEE4"/>
<path fill-rule="evenodd" clip-rule="evenodd" d="M289.15 111.186C284.79 116.281 277.848 117.948 271.48 115.015C268.698 113.718 266.231 111.588 263.534 110.075C261.784 109.087 259.862 108.469 258.026 107.697C257.94 107.944 257.854 108.16 257.797 108.407C261.813 111.495 265.8 114.583 270.16 117.917C269.013 119.122 268.296 119.832 267.607 120.542C264.137 117.392 260.809 114.459 257.568 111.433C255.129 109.148 252.806 109.241 250.396 111.464C247.183 114.397 243.971 117.3 240.471 120.449C239.983 120.048 239.18 119.399 237.774 118.288C242.163 114.768 246.179 111.588 250.195 108.376C250.109 108.16 250.023 107.944 249.937 107.697C248.101 108.531 246.208 109.21 244.458 110.229C241.877 111.773 239.524 113.842 236.857 115.2C230.747 118.319 223.948 116.96 219.014 111.927C219.301 111.866 219.588 111.68 219.817 111.742C226.386 113.903 232.238 111.495 238.119 108.624C242.852 106.308 247.814 105.412 253.007 106.956C253.609 107.141 254.326 107.172 254.928 106.987C260.58 105.351 265.915 106.308 271.164 108.871C275.812 111.124 280.516 113.378 285.851 111.773C286.855 111.464 287.888 111.186 288.921 110.908C288.949 110.97 289.036 111.094 289.15 111.186Z" fill="#5791CD"/>
<path fill-rule="evenodd" clip-rule="evenodd" d="M223.718 231.08C225.64 231.08 227.304 230.802 228.824 231.203C229.627 231.419 230.459 232.685 230.746 233.642C232.611 240.126 234.332 246.611 236.369 254.021C238.118 247.506 239.61 241.856 241.13 236.236C242.679 230.524 242.679 230.524 248.703 231.388C248.56 232.16 248.474 232.932 248.273 233.673C245.605 242.627 242.823 251.52 240.27 260.536C239.61 262.852 238.491 263.346 236.541 263.222C234.734 263.099 233.156 263.438 232.381 260.721C229.857 251.736 227.046 242.813 224.349 233.889C224.062 233.056 223.948 232.284 223.718 231.08Z" fill="#47AEE4"/>
<path fill-rule="evenodd" clip-rule="evenodd" d="M211.154 39.0896C211.269 40.1703 211.814 41.5289 211.384 42.2699C208.515 47.4263 208.458 53.1693 207.999 58.8815C207.741 62.0309 206.565 65.0876 205.933 68.2062C205.274 71.51 204.786 74.8137 204.27 77.8396C196.811 70.6763 191.906 60.0548 196.611 48.0438C195.664 55.8247 200.254 61.1046 201.401 67.1255C203.495 62.2161 205.647 57.1833 207.798 52.1504C207.454 51.9651 207.081 51.749 206.737 51.5637C204.929 54.9602 203.122 58.3257 201.401 61.5368C199.881 55.0219 195.721 48.5378 197.93 40.8187C198.705 38.0707 200.053 35.508 201.602 33.1613V50.9771C201.86 51.0697 202.118 51.1315 202.376 51.2241C203.008 49.8655 203.639 48.507 204.27 47.1484L204.241 47.1793C206.364 44.8944 208.486 42.6096 210.609 40.3247L210.58 40.3556C210.781 39.9233 210.982 39.491 211.183 39.0588L211.154 39.0896Z" fill="#5992CD"/>
<path fill-rule="evenodd" clip-rule="evenodd" d="M439.692 262.944V237.131H431.947V231.327H453.26V236.977H446.003V262.944H439.692Z" fill="#52B1E4"/>
<path fill-rule="evenodd" clip-rule="evenodd" d="M285.191 231.234H290.9V235.742C290.9 241.856 290.986 247.969 290.842 254.052C290.785 256.398 291.531 257.17 293.654 257.016C296.407 256.862 299.19 256.985 302.116 256.985V262.913H285.191V231.234Z" fill="#47AEE4"/>
<path d="M336.022 231.141H330.314V262.882H336.022V231.141Z" fill="#52B1E4"/>
<path fill-rule="evenodd" clip-rule="evenodd" d="M308.685 83.1504C307.337 86.3616 306.448 89.9741 304.526 92.6912C300.854 97.8476 295.719 100.843 289.667 101.738C287.687 102.047 285.737 102.541 282.983 103.127C289.294 95.8715 288.519 85.4044 295.777 79.1673C294.428 84.5398 293.08 89.9124 291.732 95.3157C291.675 95.5627 291.617 95.8406 291.531 96.0877C291.761 96.0259 291.99 95.9641 292.22 95.9333C295.547 94.0807 299.075 92.5677 302.087 90.2829C304.612 88.3994 306.534 85.5896 308.685 83.1504Z" fill="#5992CD"/>
<path fill-rule="evenodd" clip-rule="evenodd" d="M216.432 96.7669C213.42 91.4253 213.248 85.3117 212.359 79.4143L212.302 79.4761C214.424 83.4283 216.719 87.2878 218.67 91.3635C220.563 95.3466 222.141 99.4841 223.718 103.189C209.404 102.51 200.999 94.4203 199.164 84.8486C203.438 91.7032 210.466 93.3088 216.145 97.0757C216.346 97.1683 216.518 97.2301 216.69 97.3227C216.604 97.1374 216.518 96.9522 216.432 96.7669Z" fill="#5791CD"/>
<path fill-rule="evenodd" clip-rule="evenodd" d="M286.74 91.8267C285.449 96.8287 283.642 101.491 279.339 104.517C279.426 104.764 279.54 105.011 279.626 105.289C285.822 104.177 292.018 103.066 298.272 101.923C295.69 105.845 291.961 108.531 287.429 109.118C283.9 109.581 280.2 108.994 276.614 108.531C273.803 108.16 271.049 107.203 268.095 106.246C275.381 105.104 279.053 98.6504 284.015 94.1116C284.876 93.3088 285.851 92.6604 286.798 91.9502L286.74 91.8267Z" fill="#5992CD"/>
<path fill-rule="evenodd" clip-rule="evenodd" d="M212.932 93.0926C208.515 89.6962 203.81 86.6394 199.708 82.8416C195.721 79.1364 194.602 73.8257 194.66 68.8237C198.303 73.4861 202.118 78.4263 205.991 83.3974C206.622 77.4382 207.167 71.9731 207.74 66.508C208.027 66.4462 208.314 66.4153 208.601 66.3536C209.232 70.7689 209.834 75.1843 210.552 79.5996C211.269 84.1384 212.101 88.6464 212.875 93.1544L212.932 93.0926Z" fill="#5791CD"/>
<path fill-rule="evenodd" clip-rule="evenodd" d="M294.887 92.506C296.293 83.4283 297.727 74.3506 299.133 65.3038C299.305 65.3346 299.506 65.3346 299.678 65.3655C300.051 68.1135 300.481 70.8307 300.739 73.5787C301.026 76.4193 301.141 79.3217 301.342 82.7181C305.071 77.1604 310.894 73.6713 312.414 66.3536C313.533 72.8068 311.123 79.7231 305.702 84.4472C302.288 87.4113 298.444 89.7888 294.801 92.4442L294.887 92.506Z" fill="#5791CD"/>
<path fill-rule="evenodd" clip-rule="evenodd" d="M221.309 92.7838C223.231 94.4512 225.325 95.9641 227.074 97.8476C230.689 101.738 234.361 105.443 239.811 106.246C239.782 106.555 239.753 106.864 239.725 107.141C234.074 108.068 228.423 109.457 222.743 109.766C217.092 110.075 212.646 106.74 209.261 102.448C215.285 103.498 221.395 104.548 227.419 105.567C225.066 101.09 223.001 97.1374 220.936 93.1852C221.05 93.0617 221.165 92.9382 221.309 92.7838Z" fill="#5791CD"/>
<path fill-rule="evenodd" clip-rule="evenodd" d="M299.448 50.8536C300.022 52.3665 300.481 53.9104 301.169 55.3616C302.833 58.9124 304.583 62.4014 306.333 66.0139C308.14 60.3018 309.976 54.4353 311.582 49.3406C314.824 57.2141 312.615 67.2181 303.608 77.006C302.202 70.5219 300.596 63.6673 299.276 56.7819C298.932 54.8984 299.391 52.8606 299.477 50.8845L299.448 50.8536Z" fill="#5791CD"/>
<path fill-rule="evenodd" clip-rule="evenodd" d="M299.477 50.8845C299.133 49.8347 298.788 48.7849 298.444 47.7659C297.44 44.8635 296.436 41.9612 295.461 39.0588L295.432 39.0896C298.932 42.2699 302.46 45.4502 305.357 48.0747V31.7719C308.914 36.4034 310.406 41.2201 309.746 46.3765C309.086 51.3476 307.509 56.1335 306.333 61.012C304.726 58.0478 303.206 55.1454 301.542 52.3357C301.141 51.6564 300.165 51.3476 299.477 50.8536V50.8845Z" fill="#5992CD"/>
<path fill-rule="evenodd" clip-rule="evenodd" d="M356.274 178.065C361.839 178.59 366.974 179.115 372.138 179.609C372.338 181.585 372.539 183.406 372.769 185.568C367.72 187.142 362.729 188.686 357.164 190.384C356.848 186.123 356.561 182.264 356.274 178.065Z" fill="#478143"/>
<path fill-rule="evenodd" clip-rule="evenodd" d="M385.132 219.254C381.46 217.772 378.133 216.413 374.375 214.9C377.358 209.713 380.083 204.927 382.866 200.08C384.587 200.759 386.165 201.407 388.087 202.179C387.169 207.521 386.222 212.955 385.132 219.254Z" fill="#DD1D64"/>
<path fill-rule="evenodd" clip-rule="evenodd" d="M387.226 219.254C388.23 213.511 389.177 208.138 390.152 202.612H395.688C396.635 207.984 397.582 213.326 398.614 219.254H387.226Z" fill="#EC6829"/>
<path fill-rule="evenodd" clip-rule="evenodd" d="M425.808 164.232C426.869 168.184 427.845 171.889 428.906 175.934C423.312 176.521 418.178 177.046 412.9 177.602C412.383 175.78 411.896 174.051 411.351 172.013C416.026 169.512 420.702 166.98 425.808 164.232Z" fill="#C92427"/>
<path fill-rule="evenodd" clip-rule="evenodd" d="M412.469 185.506C412.727 183.406 412.928 181.708 413.158 179.825C418.378 179.3 423.484 178.775 429.021 178.219C428.705 182.264 428.418 186 428.103 190.292C422.681 188.625 417.69 187.112 412.469 185.506Z" fill="#E73C25"/>
<path fill-rule="evenodd" clip-rule="evenodd" d="M362.901 203.661C361.122 199.833 359.544 196.467 357.708 192.546C363.13 190.878 368.121 189.335 373.227 187.729C374.117 189.613 374.891 191.218 375.78 193.071C371.621 196.529 367.548 199.864 362.901 203.661Z" fill="#CE9F1E"/>
<path fill-rule="evenodd" clip-rule="evenodd" d="M404.896 143.668C402.831 149.411 400.995 154.568 399.102 159.878C397.294 159.508 395.631 159.168 393.881 158.798V141.476C397.581 142.186 401.052 142.896 404.896 143.668Z" fill="#E42C39"/>
<path fill-rule="evenodd" clip-rule="evenodd" d="M378.362 165.035C377.215 166.64 376.211 167.999 375.006 169.666C370.359 167.227 365.683 164.757 360.491 162.04C362.843 158.674 364.995 155.618 367.404 152.19C371.22 156.636 374.691 160.712 378.362 165.035Z" fill="#68B439"/>
<path fill-rule="evenodd" clip-rule="evenodd" d="M404.495 198.628C405.814 197.301 406.99 196.097 408.453 194.584C412.613 197.949 416.772 201.315 421.39 205.02C418.522 207.891 415.911 210.547 413.014 213.449C410.002 208.231 407.248 203.445 404.495 198.628Z" fill="#FCC804"/>
<path fill-rule="evenodd" clip-rule="evenodd" d="M418.091 152.499C420.472 155.895 422.566 158.921 424.89 162.256C419.87 164.973 415.194 167.474 410.49 170.006C409.342 168.4 408.338 166.949 407.191 165.313C410.691 161.206 414.162 157.13 418.091 152.499Z" fill="#539F3A"/>
<path fill-rule="evenodd" clip-rule="evenodd" d="M400.737 219.161C399.647 213.079 398.7 207.644 397.725 202.056C399.388 201.315 400.937 200.635 402.773 199.833C405.47 204.526 408.195 209.219 411.264 214.561C407.707 216.074 404.38 217.556 400.737 219.161Z" fill="#A92540"/>
<path fill-rule="evenodd" clip-rule="evenodd" d="M381.145 198.906C378.362 203.754 375.695 208.416 372.683 213.604C369.814 210.856 367.146 208.324 364.134 205.452C368.667 201.716 372.826 198.32 376.985 194.892C378.362 196.22 379.624 197.455 381.145 198.906Z" fill="#F6A322"/>
<path fill-rule="evenodd" clip-rule="evenodd" d="M416.571 151.017C412.728 155.525 409.257 159.631 405.7 163.831C404.179 162.812 402.745 161.885 401.024 160.743C402.888 155.525 404.753 150.307 406.847 144.502C410.232 146.787 413.273 148.794 416.571 151.017Z" fill="#E8BA27"/>
<path fill-rule="evenodd" clip-rule="evenodd" d="M391.701 141.322V158.767C389.98 159.107 388.259 159.415 386.394 159.786C384.472 154.475 382.636 149.35 380.571 143.668C384.357 142.866 387.857 142.125 391.701 141.322Z" fill="#20486B"/>
<path fill-rule="evenodd" clip-rule="evenodd" d="M359.544 163.954C364.737 166.733 369.269 169.172 373.945 171.704C373.457 173.588 372.998 175.317 372.453 177.385C367.261 176.891 362.069 176.367 356.36 175.811C357.45 171.704 358.426 168.092 359.544 163.954Z" fill="#3999D5"/>
<path fill-rule="evenodd" clip-rule="evenodd" d="M384.443 160.558C382.894 161.608 381.517 162.503 379.94 163.584C376.44 159.477 372.94 155.371 369.068 150.801C372.223 148.67 375.235 146.663 378.62 144.378C380.628 150.029 382.521 155.247 384.443 160.558Z" fill="#2069A2"/>
<path fill-rule="evenodd" clip-rule="evenodd" d="M422.624 203.291C417.92 199.462 413.875 196.189 409.888 192.947C411.551 187.482 411.551 187.482 416.428 189.026C419.899 190.107 423.37 191.187 427.501 192.484C425.866 196.097 424.374 199.4 422.624 203.291Z" fill="#49C0E8"/>
<path fill-rule="evenodd" clip-rule="evenodd" d="M211.183 24.7629C210.495 25.3187 209.433 25.751 209.204 26.4612C208.085 29.8884 207.196 33.4084 206.22 36.8974C206.45 37.0209 206.679 37.1444 206.909 37.2679C210.208 34.3964 213.507 31.494 216.863 28.5608C216.777 33.0996 213.449 35.7859 211.126 39.0896L211.154 39.0588C210.954 39.491 210.753 39.9233 210.552 40.3556L210.581 40.3247C207.827 40.6335 204.413 44.3386 204.213 47.1793L204.241 47.1484C203.84 46.6853 203.122 46.253 203.122 45.8207C203.036 41.8376 202.864 37.8237 203.151 33.8715C203.438 29.5797 205.819 26.492 209.175 24.3615C209.605 24.0837 210.466 24.6703 211.154 24.8556L211.183 24.7629ZM206.278 38.2868C206.335 38.2251 206.421 38.1633 206.421 38.1016C206.421 38.0398 206.335 37.9781 206.307 37.8855C206.249 37.9472 206.163 38.009 206.163 38.0707C206.134 38.1633 206.221 38.2251 206.278 38.2868Z" fill="#5992CD"/>
<path fill-rule="evenodd" clip-rule="evenodd" d="M290.211 27.9123C291.875 29.3944 293.482 30.9691 295.231 32.3586C295.719 32.76 296.522 32.7291 297.182 32.8835L297.153 32.8526L300.051 36.8048C300.452 36.5578 300.825 36.3416 301.227 36.0946C299.649 31.9263 298.1 27.7888 296.522 23.6205C296.608 23.5279 296.723 23.4353 296.809 23.3118C301.485 25.1952 303.636 29.1474 304.038 34.2112C304.325 37.8855 304.095 41.6215 304.095 45.4193C300.481 41.992 296.694 38.9044 293.482 35.1992C291.846 33.3157 291.301 30.3825 290.24 27.9123H290.211Z" fill="#5791CD"/>
<path fill-rule="evenodd" clip-rule="evenodd" d="M342.735 275.758C344.886 272.022 346.464 269.212 348.128 266.433C348.415 265.97 348.96 265.414 349.419 265.383C351.943 265.291 354.467 265.322 357.737 265.322C354.381 268.965 351.799 272.269 348.701 274.955C347.554 275.974 345.317 275.48 342.735 275.758Z" fill="#52B1E4"/>
<path fill-rule="evenodd" clip-rule="evenodd" d="M297.182 32.8835C293.051 27.9432 288.949 23.003 284.589 17.8157C288.117 17.6305 292.65 20.0697 294.772 23.5279C296.178 25.8128 297.067 28.4681 298.014 31.0309C298.157 31.4323 297.44 32.2351 297.124 32.8526L297.182 32.8835Z" fill="#5992CD"/>
<path fill-rule="evenodd" clip-rule="evenodd" d="M211.154 24.7938C216.318 19.9153 217.867 18.8964 221.969 17.9701C217.522 23.5279 214.711 29.9193 208.859 33.4392L208.888 33.501C209.663 30.5986 210.408 27.6653 211.183 24.763L211.154 24.7938Z" fill="#5992CD"/>
<path fill-rule="evenodd" clip-rule="evenodd" d="M220.907 93.1853L220.477 92.0737C220.764 92.3207 221.022 92.5677 221.309 92.8147C221.166 92.9382 221.051 93.0617 220.907 93.1853Z" fill="#5791CD"/>
<path fill-rule="evenodd" clip-rule="evenodd" d="M286.769 91.8884C286.97 91.7649 287.142 91.6106 287.343 91.487C287.372 91.5797 287.372 91.6414 287.4 91.7341C287.171 91.7649 286.942 91.7958 286.741 91.8267L286.769 91.8884Z" fill="#5992CD"/>
<path fill-rule="evenodd" clip-rule="evenodd" d="M290.24 27.8815C290.125 27.6962 289.982 27.511 290.154 27.7888C290.068 27.4801 290.125 27.6962 290.183 27.9432L290.24 27.8815Z" fill="#5791CD"/>
<path fill-rule="evenodd" clip-rule="evenodd" d="M212.359 79.4143C212.216 79.3526 212.072 79.2908 211.958 79.2599C212.072 79.3217 212.187 79.4143 212.33 79.4761L212.359 79.4143Z" fill="#5791CD"/>
<path fill-rule="evenodd" clip-rule="evenodd" d="M212.875 93.1235C212.99 93.1853 213.076 93.247 213.191 93.3396C213.134 93.3396 213.048 93.3705 213.019 93.3396C212.962 93.2779 212.933 93.1853 212.904 93.0926L212.875 93.1235Z" fill="#5791CD"/>
<path fill-rule="evenodd" clip-rule="evenodd" d="M296.522 23.5896C296.379 23.4661 296.235 23.3426 296.092 23.2191C296.321 23.25 296.551 23.2809 296.809 23.3117C296.723 23.4044 296.608 23.497 296.522 23.5896Z" fill="#5791CD"/>
<path fill-rule="evenodd" clip-rule="evenodd" d="M308.714 83.1808L308.771 83.0887L308.685 83.1501L308.714 83.1808Z" fill="#5992CD"/>
<path fill-rule="evenodd" clip-rule="evenodd" d="M304.927 31.5249L304.841 31.3088H305.042L304.927 31.5249Z" fill="#5992CD"/>
<path fill-rule="evenodd" clip-rule="evenodd" d="M295.461 39.0588C295.375 39.0279 295.289 38.997 295.231 38.9661C295.289 39.0279 295.375 39.0588 295.432 39.0896L295.461 39.0588Z" fill="#5992CD"/>
<path fill-rule="evenodd" clip-rule="evenodd" d="M294.83 92.4751C294.744 92.5986 294.658 92.7221 294.572 92.8456C294.658 92.7221 294.773 92.6295 294.859 92.506L294.83 92.4751Z" fill="#5791CD"/>
<path fill-rule="evenodd" clip-rule="evenodd" d="M288.863 110.877L289.552 110.785C289.408 110.908 289.294 111.032 289.15 111.186C289.035 111.094 288.949 110.97 288.863 110.877Z" fill="#5791CD"/>
<path fill-rule="evenodd" clip-rule="evenodd" d="M208.859 33.4392C208.831 33.5319 208.802 33.6245 208.744 33.6863C208.716 33.7171 208.63 33.7171 208.601 33.7171C208.716 33.6554 208.802 33.5627 208.917 33.501L208.859 33.4392Z" fill="#5992CD"/>
<path fill-rule="evenodd" clip-rule="evenodd" d="M224.55 29.4253C225.985 30.9074 227.304 32.2351 228.767 33.748C223.604 40.3247 220.42 47.8894 220.247 56.8436H214.482C213.248 49.8038 218.211 36.3416 224.55 29.4253Z" fill="#FDFEFF"/>
<path fill-rule="evenodd" clip-rule="evenodd" d="M293.309 59.746C293.08 70.4293 289.351 79.2291 282.868 87.3187C281.548 85.5588 280.372 83.9841 279.053 82.2241C283.987 76.1723 286.999 68.6384 287.486 59.7769H293.309V59.746Z" fill="#FDFEFF"/>
<path fill-rule="evenodd" clip-rule="evenodd" d="M278.078 33.8098C279.627 32.0807 281.004 30.5368 282.581 28.7769C288.949 36.7121 292.965 45.5428 293.338 56.4114H287.659C286.569 47.8586 284.589 39.6454 278.078 33.8098Z" fill="#FDFEFF"/>
<path fill-rule="evenodd" clip-rule="evenodd" d="M251.974 15.4382V21.3048C248.159 22.4472 244.315 23.1882 240.844 24.7629C237.373 26.3377 234.217 28.8078 230.603 31.0618C229.513 29.9811 228.136 28.5916 226.616 27.0478C233.873 19.9153 242.192 16.2102 251.974 15.4382Z" fill="#FBFCFE"/>
<path fill-rule="evenodd" clip-rule="evenodd" d="M226.558 89.5418C228.078 88.0289 229.398 86.7012 231.004 85.1265C236.713 90.7769 243.855 93.8645 252.031 94.5438V100.688C242.106 100.441 233.988 96.1494 226.558 89.5418Z" fill="#FDFEFF"/>
<path fill-rule="evenodd" clip-rule="evenodd" d="M276.643 84.4472C278.278 86.1145 279.569 87.4422 281.175 89.0478C273.717 96.3038 265.312 100.379 255.158 100.719V94.4512C258.17 94.6364 261.038 92.6912 264.079 95.1305C264.681 95.6245 267.406 93.494 268.841 92.1972C271.508 89.8197 273.975 87.1335 276.643 84.4472Z" fill="#FDFEFF"/>
<path fill-rule="evenodd" clip-rule="evenodd" d="M255.072 20.8108V15.9014C261.669 14.5428 274.32 20.008 280.143 26.6773C279.024 27.8197 277.877 28.993 276.615 30.259C274.865 27.6345 272.972 25.257 268.87 25.6892C266.288 25.9671 263.534 23.744 260.809 22.7868C259.748 22.4163 258.543 22.4472 257.424 22.2619C257.338 22.0767 257.309 21.8914 257.367 21.7062C259.116 21.3357 260.838 20.9651 263.19 20.4402C260.522 18.001 258.657 18.7729 256.793 19.9771C256.191 20.255 255.617 20.5329 255.072 20.8108Z" fill="#FBFCFE"/>
<path fill-rule="evenodd" clip-rule="evenodd" d="M230.919 35.3227C232.295 37.0827 233.385 38.503 234.619 40.0777C230.832 44.6474 228.767 50.2978 228.308 56.8127H222.628C223.116 48.754 225.612 41.745 230.919 35.3227Z" fill="#FBFCFE"/>
<path fill-rule="evenodd" clip-rule="evenodd" d="M236.025 36.9592C235.336 36.249 234.045 34.9522 232.64 33.501C238.147 28.0976 244.458 25.3187 251.916 24.7012V29.8267C246.638 32.1733 241.59 34.4582 236.025 36.9592Z" fill="#FBFCFE"/>
<path fill-rule="evenodd" clip-rule="evenodd" d="M277.59 79.8157C275.926 78.6115 274.521 77.5617 273.058 76.4811C276.328 71.51 279.426 66.4153 279.368 59.7769H285.019C284.446 67.5269 282.18 74.3815 277.59 79.8157Z" fill="#FDFEFF"/>
<path fill-rule="evenodd" clip-rule="evenodd" d="M271.222 34.5508C271.795 34.9831 272.742 35.3227 272.857 35.8476C273.488 39.0588 275.926 40.263 278.135 41.745C283.212 45.1723 285.019 50.2669 284.933 56.6892H279.196C279.684 48.2291 274.721 41.8994 270.189 35.3845C270.505 35.1066 270.877 34.8287 271.222 34.5508Z" fill="#F6F8FD"/>
<path fill-rule="evenodd" clip-rule="evenodd" d="M252.031 91.7649C245.061 91.2709 239.123 88.6155 233.472 83.8297C236.857 82.6873 239.496 80.989 242.938 83.2739C245.52 84.9721 248.818 85.3735 252.031 86.3924V91.7649Z" fill="#FBFCFE"/>
<path fill-rule="evenodd" clip-rule="evenodd" d="M269.328 34.9213C268.869 34.0259 268.41 33.1305 267.951 32.2042C267.751 32.3277 267.521 32.4512 267.32 32.5747C267.234 33.1614 267.12 33.7789 267.062 34.242C263.19 32.9452 259.317 31.6484 255.158 30.2898V25.257C261.669 23.4044 268.869 27.9741 269.328 34.9213Z" fill="#FBFCFE"/>
<path fill-rule="evenodd" clip-rule="evenodd" d="M249.277 60.8267C249.249 60.3327 249.421 59.6225 249.191 59.3446C247.011 56.8745 249.019 55.5159 250.425 54.1265C251.171 53.3855 252.203 52.9841 253.465 52.1813C254.613 53.1693 256.477 54.0339 257.08 55.4851C257.912 57.4303 258.256 59.9622 257.912 62.0309C257.51 64.3157 252.662 65.7669 251.085 64.8406C251.916 63.3277 252.748 61.7839 253.58 60.24C253.322 59.8695 253.064 59.499 252.806 59.1285C251.63 59.6843 250.453 60.24 249.249 60.7958L249.277 60.8267Z" fill="#F6F8FD"/>
<path fill-rule="evenodd" clip-rule="evenodd" d="M255.101 39.0588V33.5936C260.235 34.0259 264.653 35.7859 268.698 39.6145C267.321 40.8496 266.03 42.0229 264.796 43.1345C261.784 41.8685 258.514 40.51 255.101 39.0588Z" fill="#FDFEFF"/>
<path fill-rule="evenodd" clip-rule="evenodd" d="M252.06 33.6245V38.8735C249.134 40.3556 246.352 41.8376 243.483 43.1345C242.909 43.3815 241.877 43.1036 241.332 42.6713C240.356 41.8994 239.61 40.8187 238.606 39.6763C242.594 36.1255 246.868 34.0259 252.06 33.6245Z" fill="#FDFEFF"/>
<path fill-rule="evenodd" clip-rule="evenodd" d="M217.522 73.1464C221.366 76.2032 225.181 79.26 229.456 82.6872C227.505 84.3855 226.128 85.6205 224.177 87.3187C221.682 83.0578 219.071 78.6733 216.49 74.2888C216.834 73.8874 217.178 73.5169 217.522 73.1464Z" fill="#F6F8FD"/>
<path fill-rule="evenodd" clip-rule="evenodd" d="M236.168 74.4432C235.049 70.8924 233.758 67.0946 232.754 63.2351C232.554 62.494 233.472 61.3825 233.902 60.4562C234.447 59.2829 234.992 58.1404 235.824 56.4422C235.824 56.4422 236.856 56.6584 236.856 56.9363C236.885 58.0787 236.828 59.3446 236.426 60.3635C236.025 61.3825 235.135 62.1544 234.447 63.0189C234.705 63.2351 234.934 63.4512 235.193 63.6982C235.623 63.2659 236.053 62.8337 236.455 62.4323C237.631 65.0876 238.836 67.7739 240.213 70.8616C238.979 71.9422 237.545 73.239 236.168 74.4432Z" fill="#F6F8FD"/>
<path fill-rule="evenodd" clip-rule="evenodd" d="M236.857 41.5289C238.119 43.2888 239.094 44.6783 240.328 46.3765C238.951 47.7042 237.057 49.3098 235.422 51.1932C234.39 52.3665 233.787 53.9412 232.955 55.2998C232.611 55.8865 232.21 56.4114 231.808 56.9671C231.492 56.3496 230.861 55.7012 230.947 55.1454C231.665 50.2052 233.271 45.6972 236.857 41.5289Z" fill="#F6F8FD"/>
<path fill-rule="evenodd" clip-rule="evenodd" d="M215.744 70.9542C215.113 67.3416 214.51 63.76 213.851 59.8386H220.075C220.362 61.9074 220.649 64.0996 220.936 66.3845C219.53 68.0518 215.887 67.002 216.547 71.1703C216.289 71.1086 216.002 71.0468 215.744 70.9542Z" fill="#F6F8FD"/>
<path fill-rule="evenodd" clip-rule="evenodd" d="M237.832 76.9442C239.782 75.0607 240.958 73.9183 242.134 72.8068C244.171 74.0727 246.236 75.3695 248.273 76.6354C248.044 78.2101 247.814 79.9084 247.47 82.2858C244.573 80.6803 241.561 79.0129 237.832 76.9442Z" fill="#FBFCFE"/>
<path fill-rule="evenodd" clip-rule="evenodd" d="M243.741 70.491C245.52 68.8854 246.696 67.8665 247.929 66.755C249.249 67.3108 250.798 67.9592 252.921 68.8546C252.404 70.4293 251.831 72.1584 251.113 74.2888C248.646 72.992 246.552 71.9422 243.741 70.491Z" fill="#FBFCFE"/>
<path fill-rule="evenodd" clip-rule="evenodd" d="M270.849 41.2201C272.627 44.7092 274.205 47.7968 276.156 51.6564C274.09 49.9273 271.882 50.2052 270.763 47.7659C270.361 46.9014 268.21 46.9323 266.374 46.4382C267.923 44.6783 269.243 43.1036 270.849 41.2201Z" fill="#F6F8FD"/>
<path fill-rule="evenodd" clip-rule="evenodd" d="M257.826 49.5259C258.342 48.3217 258.772 47.3028 259.489 45.5428C257.74 46.2839 256.764 46.6853 255.33 47.3028C255.187 45.6972 255.072 44.3695 254.871 42.0847C257.768 43.1653 260.092 44.0299 262.358 44.8635C261.985 48.9084 260.034 50.6683 257.826 49.5259Z" fill="#F6F8FD"/>
<path fill-rule="evenodd" clip-rule="evenodd" d="M252.06 46.253C249.306 47.9512 246.695 51.0697 243.97 45.8825C246.495 44.6783 249.048 43.4432 252.06 41.992V46.253Z" fill="#F6F8FD"/>
<path fill-rule="evenodd" clip-rule="evenodd" d="M270.074 73.2699C270.017 71.6335 269.73 69.9661 269.988 68.3914C270.533 65.1803 273.086 66.1992 275.726 66.4462C274.435 68.7928 273.173 71.2012 271.767 73.4552C271.623 73.7022 270.648 73.3317 270.046 73.239L270.074 73.2699Z" fill="#F6F8FD"/>
<path fill-rule="evenodd" clip-rule="evenodd" d="M222.514 59.9313C223.403 59.7769 223.69 59.6534 223.977 59.6843C225.411 59.8695 226.874 60.0857 228.308 60.3018C227.419 61.3207 226.358 62.247 225.669 63.4203C224.952 64.6554 224.55 66.1375 223.805 68.0827C223.317 65.1494 222.944 62.6175 222.514 59.9313Z" fill="#F6F8FD"/>
<path fill-rule="evenodd" clip-rule="evenodd" d="M253.752 74.2888C254.613 72.8994 255.588 72.2819 257.338 72.745C258.743 73.1155 260.378 72.5906 261.841 72.4671C260.493 75.0608 258.657 75.8018 256.162 74.8446C255.473 74.5667 254.67 74.6285 253.924 74.5359L253.752 74.2888Z" fill="#F6F8FD"/>
<path fill-rule="evenodd" clip-rule="evenodd" d="M258.399 91.3944C257.51 91.5179 256.391 91.7032 254.985 91.8884C255.444 89.9432 253.58 87.4113 256.764 86.7321C257.338 88.3685 257.825 89.7888 258.399 91.3944Z" fill="#F6F8FD"/>
<path fill-rule="evenodd" clip-rule="evenodd" d="M270.992 78.488C272.197 79.9392 273.402 81.4213 274.75 83.0886C273.545 84.0767 272.627 84.8177 271.738 85.5896C272.742 82.8725 272.426 80.7729 269.615 79.1364C270.074 78.9203 270.533 78.7042 270.992 78.488Z" fill="#F6F8FD"/>
<path fill-rule="evenodd" clip-rule="evenodd" d="M239.467 62.6175C243.97 64.6554 244.515 65.8287 242.221 68.3606C241.331 66.5388 240.528 64.8715 239.467 62.6175Z" fill="#F6F8FD"/>
<path fill-rule="evenodd" clip-rule="evenodd" d="M257.367 21.7062C257.309 21.8914 257.338 22.0767 257.424 22.2619C256.649 21.7679 255.846 21.2739 255.072 20.8108C255.645 20.5329 256.219 20.2859 256.793 20.008C256.965 20.5637 257.166 21.1195 257.367 21.7062Z" fill="#5992CD"/>
<path fill-rule="evenodd" clip-rule="evenodd" d="M253.896 74.505C253.609 74.6285 253.322 74.7211 253.064 74.8446C253.293 74.6594 253.523 74.4741 253.752 74.2888L253.896 74.505Z" fill="#F6F8FD"/>
<path fill-rule="evenodd" clip-rule="evenodd" d="M270.046 73.2082C269.988 73.2699 269.96 73.3625 269.902 73.4243C269.874 73.4552 269.816 73.4552 269.759 73.4552C269.874 73.3934 269.96 73.3317 270.074 73.239L270.046 73.2082Z" fill="#F6F8FD"/>
<path fill-rule="evenodd" clip-rule="evenodd" d="M249.248 60.7958C249.22 60.8885 249.22 60.9811 249.162 61.0737C249.134 61.1046 249.048 61.1046 248.99 61.1046C249.076 61.012 249.191 60.9502 249.306 60.8576L249.248 60.7958Z" fill="#F6F8FD"/>
<path fill-rule="evenodd" clip-rule="evenodd" d="M204.241 47.1484C204.442 44.3078 207.884 40.6026 210.609 40.2938C208.487 42.5787 206.364 44.8635 204.241 47.1484Z" fill="white"/>
<path fill-rule="evenodd" clip-rule="evenodd" d="M292.22 95.9642C291.99 96.0259 291.761 96.0877 291.531 96.1185C291.589 95.8715 291.675 95.5936 291.732 95.3466C291.904 95.5628 292.076 95.748 292.22 95.9642Z" fill="white"/>
<path fill-rule="evenodd" clip-rule="evenodd" d="M216.432 96.7669C216.518 96.9522 216.604 97.1375 216.691 97.3227C216.518 97.2301 216.318 97.1683 216.146 97.0757C216.232 96.9831 216.318 96.8596 216.432 96.7669Z" fill="white"/>
<path fill-rule="evenodd" clip-rule="evenodd" d="M206.278 38.2869C206.22 38.2251 206.134 38.1633 206.134 38.1016C206.134 38.0398 206.22 37.9781 206.278 37.9163C206.306 37.9781 206.392 38.0398 206.392 38.1325C206.421 38.1633 206.306 38.2251 206.278 38.2869Z" fill="white"/>
<path fill-rule="evenodd" clip-rule="evenodd" d="M257.367 21.7062C257.166 21.1504 256.965 20.5637 256.793 19.9771C258.658 18.7729 260.551 18.001 263.19 20.4402C260.838 20.9651 259.088 21.3357 257.367 21.7062Z" fill="#558FCC"/>
</g>
<defs>
<clipPath id="clip0_487_884">
<rect width="510" height="372" fill="white"/>
</clipPath>
</defs>
</svg>
