<svg width="98" height="660" viewBox="0 0 98 660" fill="none" xmlns="http://www.w3.org/2000/svg">
<rect width="98" height="660" rx="20" fill="url(#paint0_linear_483_2536)"/>
<path d="M81 45C81 62.6719 66.6719 77 49 77C31.3281 77 17 62.6719 17 45C17 27.3281 31.3281 13 49 13C66.6719 13 81 27.3281 81 45Z" fill="#E5E3D0"/>
<mask id="mask0_483_2536" style="mask-type:luminance" maskUnits="userSpaceOnUse" x="17" y="13" width="64" height="64">
<path d="M81 45C81 62.6719 66.6719 77 49 77C31.3281 77 17 62.6719 17 45C17 27.3281 31.3281 13 49 13C66.6719 13 81 27.3281 81 45Z" fill="white"/>
</mask>
<g mask="url(#mask0_483_2536)">
<path d="M74.7175 78.5657C74.5298 82.6108 57.2037 82.1564 50.1211 81.8008C43.0336 82.1564 25.7074 82.6108 25.5198 78.5657C25.2827 73.4785 26.9422 69.8236 28.7153 68.9938C29.5401 68.6135 32.9925 68.0258 36.4449 67.5072C37.4821 67.3541 38.5242 67.2059 39.4873 67.0726C42.1939 66.6922 44.3325 66.4255 44.3325 66.4255L50.1211 67.0577L55.9047 66.4255C55.9047 66.4255 57.989 66.6922 60.6511 67.0577C61.6488 67.201 62.7304 67.3491 63.8071 67.5121C67.2546 68.0208 70.6971 68.6086 71.5219 68.9938C73.3 69.8236 74.9545 73.4785 74.7175 78.5657Z" fill="#BF9837"/>
<path d="M63.812 67.5121L52.5016 80.324C47.5132 78.8275 38.9983 70.1841 36.4448 67.5072C37.482 67.3541 38.5242 67.2059 39.4873 67.0726C42.1939 66.6922 44.3325 66.4255 44.3325 66.4255L50.121 67.0577L55.9046 66.4255C55.9046 66.4255 57.9889 66.6922 60.651 67.0577C61.6537 67.201 62.7304 67.3541 63.812 67.5121Z" fill="white"/>
<path d="M60.6511 67.0577C58.5965 71.3498 52.0226 79.2621 52.0226 79.2621C46.3526 77.0494 41.3049 69.9273 39.4824 67.0726C42.189 66.6922 44.3276 66.4255 44.3276 66.4255L50.1162 67.0577L55.8998 66.4255C55.9047 66.4255 57.9939 66.6922 60.6511 67.0577Z" fill="#CD8B6D"/>
<path d="M41.6113 60.4049C41.6113 60.4049 42.4411 67.1121 42.5596 69.1272C42.5596 69.1272 50.3682 74.1157 56.8779 68.9099C56.8779 68.9099 56.9964 63.4967 56.9964 60.4098H41.6113V60.4049Z" fill="#CD8B6D"/>
<path d="M64.1578 38.7126C64.1578 38.7126 70.5983 33.6698 71.517 39.8683C72.4356 46.0717 64.064 47.6522 64.064 47.6522L64.1578 38.7126Z" fill="#CD8B6D"/>
<path d="M64.5283 41.5674C64.5283 41.5674 68.04 37.5766 68.771 39.5078C69.5019 41.439 68.8747 43.6763 68.8747 43.6763C68.8747 43.6763 68.682 41.0982 66.6126 42.244C66.6126 42.244 67.793 46.5015 64.3308 44.8173C64.3308 44.8123 63.017 43.38 64.5283 41.5674Z" fill="#B66C50"/>
<path d="M33.3681 38.7126C33.3681 38.7126 26.9276 33.6698 26.0089 39.8683C25.0902 46.0717 33.4619 47.6522 33.4619 47.6522L33.3681 38.7126Z" fill="#CD8B6D"/>
<path d="M32.9976 41.5674C32.9976 41.5674 29.486 37.5766 28.755 39.5078C28.024 41.439 28.6513 43.6763 28.6513 43.6763C28.6513 43.6763 28.8439 41.0982 30.9134 42.244C30.9134 42.244 29.7329 46.5015 33.1952 44.8173C33.1952 44.8123 34.509 43.38 32.9976 41.5674Z" fill="#B66C50"/>
<path d="M43.0926 23.4263C43.0926 23.4263 35.9458 21.8606 34.1579 28.5628C32.37 35.2651 33.0417 42.8614 32.37 45.7655C31.6983 48.6697 31.2537 58.9478 46.4462 63.4176C46.4462 63.4176 49.7949 64.3116 53.8202 62.5236C57.8406 60.7357 63.9946 56.745 64.3206 51.3516C64.6861 45.3012 65.664 38.3915 63.8761 33.0327C62.0832 27.6738 53.8152 16.5017 43.0926 23.4263Z" fill="#E8B299"/>
<path d="M49.1282 35.4924C49.1282 35.4924 48.012 34.3762 47.7897 38.3965C47.5675 42.4169 47.7897 46.6645 47.7897 46.6645C47.7897 46.6645 45.1078 45.0988 46.0018 47.3362C46.4858 48.5413 47.6218 49.1587 48.817 49.4797C49.8641 49.7613 50.6297 49.4056 51.3162 48.7339C51.6323 48.4228 53.2918 46.7435 52.7683 46.22C52.5164 45.9681 51.0593 46.5706 50.6889 46.6645C50.6889 46.6645 51.1384 34.5984 49.1282 35.4924Z" fill="#CD8B6D"/>
<path d="M53.766 33.0919C53.766 33.0919 61.1894 31.2447 62.4735 38.11C62.4735 38.11 54.9119 34.949 53.1733 36.5048L53.766 33.0919Z" fill="#141E62"/>
<path d="M45.2662 33.2452C45.2662 33.2452 38.1689 30.3805 35.9463 37.0038C35.9463 37.0038 43.8734 34.9244 45.3798 36.7025L45.2662 33.2452Z" fill="#141E62"/>
<path d="M65.2789 29.5655C63.6243 27.0812 56.522 24.1227 56.522 24.1227L39.2452 24.2412C39.2452 24.2412 39.0082 27.7924 47.8836 29.0913C56.7591 30.3953 64.3108 28.227 64.3207 37.947C64.3207 37.947 66.9335 32.0498 65.2789 29.5655Z" fill="#CD8B6D"/>
<path d="M53.292 40.9698C53.292 43.1677 55.0997 44.9507 57.3321 44.9507C59.5646 44.9507 61.3722 43.1677 61.3722 40.9698C61.3722 38.772 59.5646 36.9939 57.3321 36.9939C55.0997 36.989 53.292 38.772 53.292 40.9698Z" fill="white"/>
<path d="M59.8016 41.1181C59.8016 42.906 58.6706 44.3581 57.2778 44.3581C55.8849 44.3581 54.7539 42.906 54.7539 41.1181C54.7539 39.3301 55.8849 37.8781 57.2778 37.8781C58.6706 37.8781 59.8016 39.3301 59.8016 41.1181Z" fill="#95BCD1"/>
<path d="M57.2729 43.4196C58.263 43.4196 59.0657 42.3891 59.0657 41.118C59.0657 39.8469 58.263 38.8164 57.2729 38.8164C56.2827 38.8164 55.48 39.8469 55.48 41.118C55.48 42.3891 56.2827 43.4196 57.2729 43.4196Z" fill="#141E62"/>
<path d="M59.1842 38.94C59.1842 39.2857 58.7693 39.5673 58.2556 39.5673C57.742 39.5673 57.332 39.2857 57.332 38.94C57.332 38.5943 57.7469 38.3127 58.2556 38.3127C58.7693 38.3127 59.1842 38.5943 59.1842 38.94Z" fill="white"/>
<path d="M54.5269 37.8977C54.4232 38.0558 54.5565 38.2928 54.7491 38.2829C55.9197 38.2138 56.9026 37.8829 58.0978 38.1447C59.2486 38.3965 60.8884 39.0534 61.2193 40.3228C61.2687 40.5105 61.5206 40.4512 61.5403 40.2783C61.8367 37.2853 56.0728 35.4825 54.5269 37.8977Z" fill="#141E62"/>
<path d="M37.2007 40.9697C37.2007 43.1676 39.0084 44.9506 41.2408 44.9506C43.4733 44.9506 45.2809 43.1676 45.2809 40.9697C45.2809 38.7718 43.4733 36.9938 41.2408 36.9938C39.0084 36.9888 37.2007 38.7718 37.2007 40.9697Z" fill="white"/>
<path d="M43.7054 41.1179C43.7054 42.9059 42.5744 44.3579 41.1816 44.3579C39.7888 44.3579 38.6577 42.9059 38.6577 41.1179C38.6577 39.33 39.7888 37.8779 41.1816 37.8779C42.5744 37.8779 43.7054 39.33 43.7054 41.1179Z" fill="#95BCD1"/>
<path d="M42.9744 41.118C42.9744 42.3873 42.1693 43.4196 41.1815 43.4196C40.1888 43.4196 39.3887 42.3873 39.3887 41.118C39.3887 39.8487 40.1937 38.8164 41.1815 38.8164C42.1743 38.8164 42.9744 39.8437 42.9744 41.118Z" fill="#141E62"/>
<path d="M43.0929 38.9399C43.0929 39.2856 42.678 39.5671 42.1643 39.5671C41.6507 39.5671 41.2407 39.2856 41.2407 38.9399C41.2407 38.5941 41.6556 38.3126 42.1643 38.3126C42.678 38.3126 43.0929 38.5941 43.0929 38.9399Z" fill="white"/>
<path d="M43.9966 37.4235C44.1003 37.5816 43.967 37.8186 43.7744 37.8088C42.6038 37.7396 41.6259 37.4087 40.4257 37.6705C39.2749 37.9224 37.6302 38.5792 37.3042 39.8436C37.2548 40.0313 37.0029 39.972 36.9832 39.7992C36.6868 36.8111 42.4507 35.0083 43.9966 37.4235Z" fill="#141E62"/>
<path d="M41.305 24.5425C35.9462 25.2142 33.2643 40.4067 33.042 40.4067C32.7012 39.7004 32.3703 39.0337 32.0493 38.4015C31.8418 37.9965 31.6393 37.5964 31.4418 37.2062C30.6812 35.7146 30.0243 34.3762 29.5452 33.0574C29.2834 32.3413 29.0809 31.6301 28.9426 30.909C28.6364 29.2544 28.6808 27.5208 29.239 25.4365C30.8046 19.6233 39.5171 21.4112 39.5171 21.4112L39.6998 21.7372L39.9764 22.2212L41.305 24.5425Z" fill="#141E62"/>
<path d="M39.9762 22.2261C39.912 22.2854 39.8133 22.3051 39.7145 22.2607C38.1488 21.5297 35.5805 22.6163 34.1729 23.4263C32.3109 24.4981 30.7402 25.9007 30.0735 28.0097C29.5154 29.7631 29.4512 31.393 29.5401 33.0623C29.2783 32.3462 29.0758 31.635 28.9375 30.9139C29.1153 28.8395 29.7673 26.8194 30.9971 25.3871C32.7307 23.367 36.8893 20.6802 39.6997 21.747C39.7836 21.7767 39.8725 21.8162 39.9515 21.8507C40.1343 21.9298 40.0948 22.1273 39.9762 22.2261Z" fill="#343A80"/>
<path d="M40.248 23.5893C32.6073 23.2436 31.9702 32.3907 32.0442 38.4015C31.8368 37.9965 31.6343 37.5964 31.4367 37.2062C31.1355 31.0571 33.2543 22.8583 40.243 23.3522C40.3962 23.367 40.4011 23.5942 40.248 23.5893Z" fill="#343A80"/>
<path d="M64.3209 37.9471L63.8714 33.0327C62.5329 26.775 56.7246 29.9063 46.896 27.8912C37.0673 25.881 37.6452 21.8903 37.7341 21.1889C37.8773 20.0727 38.0798 19.3121 38.3465 18.8034C38.4255 18.6453 38.5194 18.5169 38.6132 18.4033C39.3442 17.539 40.4505 17.8403 42.0063 18.1218C42.036 18.1317 42.0705 18.4033 42.0952 18.4083C42.4212 18.4675 42.7669 18.7441 43.1275 18.7441H43.3399C44.3079 18.7441 45.4241 18.591 46.6836 18.1465C46.7132 18.1366 46.7429 17.9934 46.7725 17.9835C46.8071 17.9736 46.8416 17.8995 46.8811 17.8897L46.9849 17.8255L47.0046 17.8057C47.0787 17.7909 47.1577 17.7662 47.2368 17.7316C47.2516 17.7267 47.2664 17.7168 47.2812 17.7119C47.6615 17.5538 48.0566 17.3859 48.4616 17.1537C53.4155 14.3484 58.1323 15.7017 62.0588 19.4899C62.0637 19.4948 62.0637 19.4948 62.0687 19.4998C62.2662 19.6825 62.4638 19.8949 62.6614 20.1023L62.6663 20.1073C63.4565 20.942 64.2122 21.8656 64.9333 22.883C64.9333 22.883 64.9333 22.888 64.9382 22.888C65.1062 23.13 65.2692 23.3769 65.4322 23.6288C65.5902 23.856 65.7384 24.0931 65.8865 24.3302C66.5089 25.3229 66.9237 26.3058 67.1855 27.2541C67.2349 27.422 67.2744 27.5949 67.309 27.7628C68.5388 33.418 64.3209 37.9471 64.3209 37.9471Z" fill="#343A80"/>
<path d="M67.3042 27.7529C65.4916 27.3824 63.6345 27.259 62.1281 27.1947C58.2362 27.0268 54.3738 27.1256 50.5461 26.3057C47.3308 25.6143 44.2834 24.6462 41.6262 22.6508C40.2383 21.6087 39.2505 20.2455 38.3467 18.8083C38.4257 18.6502 38.5195 18.5218 38.6134 18.4082C39.1419 19.2231 39.6407 20.0578 40.3025 20.7691C41.6163 22.1816 43.1672 23.3571 44.9502 24.1276C48.9557 25.8513 53.3762 26.5576 57.7077 26.6465C60.2365 26.7008 63.8914 26.6021 67.1857 27.2491C67.2252 27.417 67.2697 27.5849 67.3042 27.7529Z" fill="#4B55AA"/>
<path d="M65.4274 23.619C63.8765 23.4263 62.3207 23.4214 60.7501 23.5646C57.8361 23.8215 54.9615 24.0635 52.0376 23.7622C48.0963 23.3523 44.3377 21.3026 41.9966 18.1218C42.0262 18.1317 42.0608 18.1366 42.0855 18.1416C42.4115 18.1959 42.7572 18.2058 43.1177 18.2058C44.7871 19.8406 46.4565 21.347 48.852 22.1373C51.8203 23.1152 54.922 23.2041 58.0188 23.046C60.2759 22.9275 62.6467 22.6262 64.9285 22.8781C65.0964 23.1251 65.2644 23.372 65.4274 23.619Z" fill="#4B55AA"/>
<path d="M62.6614 20.0974C58.2904 23.2288 51.1683 21.51 46.6787 17.8748L46.98 17.7909L46.9997 17.7859L47.2319 17.7168C49.1581 19.1788 51.4251 20.2604 53.3859 20.6753C56.6556 21.3717 59.3868 20.8778 62.0687 19.4899C62.2663 19.6727 62.4639 19.885 62.6614 20.0925V20.0974Z" fill="#4B55AA"/>
<path d="M58.9518 49.7959C58.9172 49.8848 58.3986 51.1443 57.5244 52.7247C57.4158 52.9174 57.3022 53.1149 57.1836 53.3174C55.9439 55.4215 54.1412 57.9009 52.0322 58.9529C48.6885 60.6223 44.2631 58.9825 40.4205 53.6237C40.3712 53.5545 40.3218 53.4804 40.2724 53.4113C39.5463 52.379 38.845 51.2134 38.1782 49.9194C38.1782 49.9194 40.6329 50.4627 45.9967 51.1294C51.2765 51.7913 58.7098 49.8552 58.9518 49.7959Z" fill="white"/>
<path d="M57.5245 52.7247C57.4158 52.9174 57.3022 53.1149 57.1837 53.3174C54.6846 53.8459 52.1508 54.1916 49.6665 54.2805C46.6241 54.3892 43.4038 54.3941 40.4206 53.6286C40.3712 53.5594 40.3219 53.4853 40.2725 53.4162C43.5668 54.2805 47.2711 54.2262 50.5457 53.9299C52.9312 53.7125 55.2328 53.2581 57.5245 52.7247Z" fill="#CD8B6D"/>
<path d="M40.2824 49.3316C39.1513 49.0155 37.8524 49.7169 36.9782 50.3787C36.8251 50.4972 36.9634 50.759 37.1362 50.6454C37.6005 50.3441 38.1043 50.1317 38.6278 49.949C39.1711 49.7564 39.744 49.7366 40.2873 49.5588C40.391 49.5242 40.4009 49.3612 40.2824 49.3316Z" fill="#CD8B6D"/>
<path d="M60.4484 50.0725C60.2212 49.6823 59.7718 49.5539 59.3717 49.3859C58.9371 49.2032 58.4926 49.0501 58.053 48.8871C57.8258 48.8031 57.6826 49.1587 57.89 49.2723C58.2802 49.4897 58.6753 49.6971 59.0803 49.8848C59.4656 50.0675 59.8607 50.349 60.3052 50.3194C60.4287 50.3145 60.5176 50.1861 60.4484 50.0725Z" fill="#CD8B6D"/>
</g>
<path d="M41.3102 89V84.71L39.3002 86.54L37.2902 84.71V89H35.8902V81.99H36.3702L39.3002 84.65L42.2202 81.99H42.7102V89H41.3102ZM48.6755 81.99V83.39H45.4055V84.68H48.1055V86.08H45.4055V87.6H48.6455V89H44.0055V81.99H48.6755ZM55.3123 89L51.3723 84.91V89H49.9723V81.99H50.4123L54.2823 85.91V81.99H55.6823V89H55.3123ZM62.254 86.41H62.264C62.264 87.91 61.044 89.12 59.554 89.12C58.054 89.12 56.844 87.91 56.834 86.42V81.99H58.234V86.41C58.234 86.76 58.374 87.09 58.624 87.34C58.874 87.59 59.204 87.72 59.554 87.72C59.904 87.72 60.224 87.59 60.474 87.34C60.724 87.09 60.854 86.77 60.864 86.42H60.854V81.99H62.254V86.41Z" fill="white"/>
<path opacity="0.3" d="M74.6359 132.694C74.0029 132.344 73.3648 132.094 72.7519 131.909C72.4956 129.474 71.6064 126.32 68.3808 124.765C63.2713 122.241 57.6593 125.8 57.1367 130.594C52.9014 130.479 48.6811 130.494 44.511 130.654C43.888 125.035 36.8441 121.861 32.0762 125.47C28.9612 128.195 29.2526 130.069 28.8457 132.364C23.4798 133.529 20.1589 138.508 19.6866 143.902C18.3954 153.955 18.9732 165.294 19.9478 174.137C20.2744 180.081 23.2487 185.555 29.8203 186.74C41.6322 188.685 55.8757 188.06 67.3207 186.99C70.1594 186.7 73.3548 186.685 76.2135 184.401C81.6195 179.721 80.7403 169.613 80.9965 162.949C81.0317 157.725 80.8207 146.587 79.7807 140.958C79.0371 136.953 77.3038 134.174 74.6359 132.694Z" fill="#231F20"/>
<path d="M72.6965 130.764C72.0634 130.414 71.4254 130.164 70.8124 129.979C70.5562 127.545 69.6669 124.39 66.4414 122.835C61.3318 120.311 55.7198 123.87 55.1973 128.665C50.9619 128.55 46.7416 128.565 42.5716 128.725C41.9486 123.105 34.9047 119.931 30.1367 123.54C27.0218 126.265 27.3132 128.14 26.9062 130.434C21.5404 131.599 18.2194 136.578 17.7471 141.972C16.4559 152.026 17.0337 163.364 18.0084 172.208C18.335 178.152 21.3093 183.626 27.8809 184.811C39.6927 186.755 53.9362 186.13 65.3813 185.061C68.2199 184.771 71.4153 184.756 74.2741 182.471C79.6801 177.792 78.8008 167.683 79.0571 161.019C79.0922 155.795 78.8812 144.657 77.8412 139.028C77.0977 135.024 75.3643 132.244 72.6965 130.764Z" fill="white"/>
<path d="M70.8878 133.989C70.0086 133.504 69.0088 133.294 68.0039 133.174C67.401 133.099 67.2151 132.889 67.2101 132.274C67.185 130.049 67.0192 127.215 64.8236 126.155C63.4269 125.48 61.6685 125.555 60.4124 126.495C59.3975 127.25 59.0107 128.34 58.8147 129.539C58.659 130.504 58.5635 131.484 58.5284 132.474C52.0824 132.194 45.6112 132.199 39.1702 132.589C39.1501 130.324 39.0798 127.265 36.7787 126.155C35.382 125.48 33.6235 125.555 32.3675 126.495C31.3526 127.25 30.9658 128.34 30.7698 129.539C30.599 130.579 30.5035 131.644 30.4734 132.714C30.4533 133.549 30.6593 133.419 29.7147 133.589C27.067 134.059 24.5549 134.884 23.0426 137.338C22.078 138.903 21.6761 140.708 21.4148 142.502C20.7114 147.347 20.6913 152.301 20.7717 157.185C20.8521 162.039 21.0681 166.923 21.6811 171.743C21.872 173.222 22.0378 174.772 22.5352 176.192C23.5199 178.981 25.7406 180.611 28.6145 181.196C31.428 181.766 34.3521 181.956 37.2158 182.121C40.4212 182.301 43.6367 182.356 46.8522 182.336C52.8963 182.301 58.9655 182.041 64.9744 181.391C67.2352 181.146 70.0689 181.146 71.8927 179.636C73.5155 178.292 74.2289 175.987 74.5705 173.977C75.299 169.658 75.3141 165.184 75.3392 160.819C75.3794 154.31 75.0478 144.332 74.1887 139.708C73.7868 137.523 72.9327 135.124 70.8878 133.989Z" fill="#68182B"/>
<path d="M28.6143 155.465C28.5993 154.67 28.6244 153.876 28.6746 153.081C28.75 151.801 28.6043 151.741 29.6091 151.491C31.036 151.141 36.9997 150.301 37.6629 151.976C38.2205 153.391 37.9894 155.37 37.9693 156.865C37.9693 156.995 37.9693 157.41 37.9543 157.845C37.9241 159.095 37.5624 159.205 36.3013 159.43C34.4323 159.765 32.086 159.99 30.0713 159.63C29.4182 159.515 28.7851 159.18 28.6646 158.24C28.539 157.29 28.6244 156.125 28.6143 155.465Z" fill="#FFC522"/>
<path d="M37.9744 169.943C37.9895 170.738 37.9644 171.533 37.9142 172.328C37.8388 173.607 37.9845 173.667 36.9796 173.917C35.9296 174.177 32.4278 174.697 30.3829 174.287C28.9812 174.007 28.8505 173.507 28.6747 172.528C28.4486 171.248 28.5993 169.738 28.6144 168.543C28.6144 168.403 28.6194 167.923 28.6295 167.443C28.6596 166.299 29.2726 166.159 30.2824 165.979C32.0359 165.664 34.2063 165.449 36.1356 165.719C37.4469 165.899 37.8488 166.369 37.9493 167.393C38.0397 168.298 37.9644 169.333 37.9744 169.943Z" fill="#FFC522"/>
<path d="M43.3654 155.465C43.3503 154.67 43.3755 153.876 43.4257 153.081C43.5011 151.801 43.3554 151.741 44.3602 151.491C45.7871 151.141 51.7507 150.301 52.4139 151.976C52.9766 153.391 52.7405 155.37 52.7254 156.865C52.7053 158.35 52.5998 159.155 51.0574 159.43C49.2186 159.755 46.9275 159.98 44.933 159.65C43.7673 159.46 43.5714 159.655 43.4006 158.115C43.3001 157.185 43.3755 156.095 43.3654 155.465Z" fill="#FFC522"/>
<path d="M60.714 130.584C60.8597 129.264 61.0054 128.24 62.1258 127.85C62.7739 127.625 64.457 127.41 64.8991 129.614C65.09 130.549 65.1453 131.594 65.1654 132.664C65.1704 133.009 65.0699 135.878 64.9594 136.713C64.7836 138.038 64.5977 139.268 63.3266 139.588C61.7791 139.978 61.126 138.768 60.8547 137.238C60.4929 135.199 60.4728 132.759 60.714 130.584Z" fill="#DDA96B"/>
<path d="M32.6692 130.584C32.6842 130.429 32.8199 128.745 33.5584 128.13C34.3874 127.435 35.8495 127.83 36.2413 128.22C36.7538 128.73 36.9297 129.924 36.995 130.444C37.0804 131.149 37.1155 131.899 37.1256 132.659C37.1507 134.009 37.1005 135.373 36.9196 136.708C36.7237 138.203 36.372 139.698 34.7944 139.638C33.6891 139.593 33.1113 138.918 32.8149 137.233C32.4481 135.198 32.428 132.759 32.6692 130.584Z" fill="#DDA96B"/>
<path d="M23.2234 144.082C23.5047 141.113 24.1679 137.848 26.8961 136.458C28.0114 135.893 29.2926 135.663 30.5436 135.478C30.6039 136.218 30.6943 136.948 30.8149 137.668C31.046 139.048 31.458 140.143 32.6487 140.978C33.6938 141.712 35 141.857 36.1405 141.467C38.0145 140.828 38.5622 139.493 38.8888 137.218C39.0144 136.353 39.0897 135.483 39.1299 134.614C45.586 134.224 52.0671 134.219 58.5282 134.499C58.5734 135.568 58.684 136.628 58.8598 137.663C59.0909 139.043 59.5029 140.138 60.6936 140.973C61.9145 141.827 63.477 141.887 64.7281 141.233C66.2052 140.458 66.6272 139.378 66.9337 137.218C67.0341 136.513 67.1045 135.808 67.1497 135.103C68.3053 135.203 69.5312 135.368 70.3953 136.113C71.2846 136.883 71.6966 138.093 71.988 139.198C72.3648 140.618 72.4904 141.947 72.6361 143.387C72.7768 144.797 72.5607 144.937 71.38 144.872C55.77 144.007 40.0795 144.012 24.4844 145.137C23.4947 145.217 23.1229 145.167 23.2234 144.082Z" fill="#00EBED"/>
<path d="M67.4814 169.943C67.4965 170.738 67.4714 171.533 67.4211 172.328C67.3457 173.607 67.4915 173.667 66.4866 173.917C65.0598 174.267 59.0961 175.107 58.4329 173.432C57.8752 172.018 58.1063 170.038 58.1264 168.543C58.1515 166.733 58.4379 166.219 59.7944 165.979C61.5931 165.659 63.8339 165.439 65.7983 165.739C67.396 165.984 67.401 166.349 67.4814 167.688C67.5266 168.518 67.4714 169.403 67.4814 169.943Z" fill="#FF2E60"/>
<path d="M58.1161 155.465C58.1011 154.67 58.1262 153.876 58.1764 153.081C58.2518 151.801 58.1061 151.741 59.1109 151.491C60.5378 151.141 66.5015 150.301 67.1647 151.976C67.7274 153.391 67.4912 155.37 67.4762 156.865C67.4561 158.5 67.2551 159.17 65.8081 159.43C64.1703 159.72 62.1706 159.93 60.3418 159.74C59.0205 159.6 58.2367 159.19 58.1312 157.93C58.0609 157.045 58.1262 156.055 58.1161 155.465Z" fill="#FFC522"/>
<path d="M73.2944 157.47C73.2642 154.52 73.1989 151.566 73.0381 148.616C72.9628 147.282 72.7668 146.987 71.1993 146.902C55.765 146.052 40.2605 146.057 24.8413 147.157C23.5099 147.252 22.9723 147.516 22.912 148.861C22.7211 152.941 22.7763 157.04 22.9321 161.114C23.0929 165.239 23.2838 169.448 23.9972 173.502C24.2685 175.057 24.6554 176.647 25.8662 177.762C27.7302 179.481 30.8502 179.541 33.2467 179.776C39.2355 180.366 45.2896 180.386 51.2985 180.216C56.589 180.066 61.9146 179.796 67.1649 179.091C68.1798 178.951 69.3152 178.886 70.2095 178.347C71.2445 177.727 71.7419 176.532 72.1036 175.437C72.5809 174.007 72.7417 172.647 72.8824 171.198C73.3094 166.643 73.3396 162.044 73.2944 157.47ZM27.9713 149.871C29.8654 149.101 32.1916 149.066 34.2063 149.111C35.3116 149.136 37.9343 148.906 38.7633 149.881C40.2152 151.586 40.0545 154.145 40.0293 156.25C40.0143 157.63 40.2856 160.299 38.6628 160.929C36.1406 161.904 32.3223 162.229 29.4233 161.604C27.8909 161.274 27.273 161.114 26.8057 159.22C26.454 157.79 26.5545 156.055 26.5696 154.825C26.5897 153.421 26.3234 150.546 27.9713 149.871ZM38.6226 175.537C36.7285 176.307 34.4023 176.342 32.3876 176.297C31.7244 176.282 30.5186 176.357 29.4786 176.212C28.112 176.017 27.3333 175.477 26.8308 173.502C26.4741 172.103 26.5495 170.533 26.5646 169.158C26.5796 167.778 26.3083 165.109 27.9311 164.479C30.805 163.364 35.3619 163.099 38.3261 164.124C38.5271 164.144 38.7331 164.239 38.919 164.429C40.2605 165.854 40.0545 168.763 40.0293 170.578C40.0042 171.988 40.2655 174.867 38.6226 175.537ZM42.7223 149.871C44.6164 149.101 46.9426 149.066 48.9573 149.111C50.0626 149.136 52.6852 148.906 53.5142 149.881C54.9662 151.586 54.8054 154.145 54.7803 156.25C54.7652 157.63 55.0365 160.299 53.4137 160.929C50.5399 162.044 45.983 162.309 43.0187 161.289C42.8178 161.269 42.6118 161.174 42.4309 160.984C41.0894 159.565 41.2954 156.65 41.3206 154.835C41.3407 153.421 41.0794 150.546 42.7223 149.871ZM53.3735 175.537C51.4794 176.307 49.1583 176.342 47.1436 176.297C46.0382 176.272 43.4156 176.502 42.5866 175.527C41.1347 173.822 41.2954 171.263 41.3206 169.158C41.3356 167.778 41.0643 165.109 42.6871 164.479C45.561 163.364 50.1179 163.099 53.0821 164.124C53.2831 164.144 53.4891 164.239 53.67 164.429C55.0114 165.849 54.8054 168.763 54.7803 170.578C54.7552 171.988 55.0164 174.867 53.3735 175.537ZM57.4783 149.871C59.3724 149.101 61.6986 149.066 63.7083 149.111C64.8136 149.136 67.4362 148.906 68.2652 149.881C69.7172 151.586 69.5564 154.145 69.5313 156.25C69.5162 157.63 69.7875 160.299 68.1647 160.929C65.6476 161.904 61.8443 162.229 58.9504 161.609C57.4833 161.294 56.8804 161.254 56.3629 159.42C55.9459 157.95 56.0564 156.115 56.0765 154.825C56.0916 153.421 55.8304 150.546 57.4783 149.871ZM68.1245 175.537C66.2304 176.307 63.9092 176.342 61.8945 176.297C60.7892 176.272 58.1666 176.502 57.3376 175.527C55.8856 173.822 56.0464 171.263 56.0715 169.158C56.0866 167.778 55.8153 165.109 57.4381 164.479C60.3119 163.364 64.8688 163.099 67.8281 164.124C68.029 164.144 68.235 164.239 68.4159 164.429C69.7574 165.849 69.5514 168.763 69.5262 170.578C69.5112 171.988 69.7724 174.867 68.1245 175.537Z" fill="#E5E5E5"/>
<path d="M52.7305 169.943C52.7456 170.738 52.7205 171.533 52.6702 172.328C52.5949 173.607 52.7405 173.667 51.7357 173.917C50.3088 174.267 44.3452 175.107 43.682 173.432C43.1193 172.018 43.3554 170.038 43.3705 168.543C43.3906 166.828 43.6016 166.234 45.0385 165.979C46.802 165.664 48.9875 165.449 50.9268 165.724C52.0723 165.884 52.6099 166.439 52.7054 167.368C52.7908 168.278 52.7205 169.328 52.7305 169.943Z" fill="#FFC522"/>
<path d="M72.6411 143.392C72.5959 142.912 72.5457 142.452 72.4904 141.992C72.0633 142.672 71.3298 143.202 70.1541 143.492C67.9184 144.042 65.4365 143.672 63.1555 143.637C58.0057 143.552 52.8559 143.592 47.7112 143.637C42.6619 143.682 37.6076 143.747 32.5583 143.887C30.8953 143.932 29.2222 144.072 27.5592 144.067C26.3183 144.067 24.9416 143.842 24.2182 142.727C23.8514 142.162 23.761 141.452 23.7911 140.728C23.4897 141.807 23.3289 142.967 23.2234 144.077C23.1229 145.162 23.4947 145.212 24.4844 145.142C40.0795 144.017 55.77 144.012 71.38 144.877C72.5658 144.942 72.7818 144.802 72.6411 143.392Z" fill="#19BFBB"/>
<path d="M31.0362 138.648C30.9458 138.338 30.8754 138.013 30.8202 137.673C30.6996 136.953 30.6091 136.218 30.5489 135.483C29.2928 135.663 28.0167 135.893 26.9013 136.463C25.9819 136.933 25.3036 137.618 24.7861 138.428C25.7156 137.888 26.6853 137.453 27.7956 137.163C29.0717 136.818 30.1419 137.668 31.0362 138.648Z" fill="#6CFFFB"/>
<path d="M70.4003 136.118C69.5362 135.368 68.3103 135.209 67.1547 135.109C67.1095 135.818 67.0391 136.523 66.9387 137.223C66.8131 138.088 66.6674 138.773 66.4463 139.343C66.7176 139.098 66.9638 138.803 67.1798 138.493C67.838 137.553 68.3354 136.823 69.6065 136.838C70.1793 136.848 70.7369 137.008 71.2695 137.243C71.0434 136.823 70.7621 136.433 70.4003 136.118Z" fill="#6CFFFB"/>
<path d="M55.9559 136.138C57.021 136.338 57.9504 136.858 58.8347 137.458C58.679 136.488 58.5734 135.503 58.5332 134.509C52.0722 134.229 45.591 134.234 39.1349 134.624C39.0947 135.493 39.0194 136.363 38.8938 137.228C38.8335 137.653 38.7581 138.033 38.6777 138.393C38.7782 138.258 38.8787 138.123 38.9842 137.993C39.6776 137.138 40.7075 136.743 41.7425 136.498C44.1038 135.938 46.6913 135.948 49.1079 135.913C51.3437 135.873 53.7553 135.718 55.9559 136.138Z" fill="#6CFFFB"/>
<path d="M64.2659 136.428C63.5776 137.623 62.6281 138.063 61.6785 136.833C60.9751 135.928 60.8093 134.809 60.5581 133.734C60.5682 134.949 60.6636 136.148 60.8545 137.238C61.1258 138.773 61.779 139.983 63.3264 139.588C64.5975 139.263 64.7834 138.038 64.9593 136.713C65.0145 136.318 65.0648 135.468 65.1 134.644C64.8538 135.264 64.5875 135.868 64.2659 136.428Z" fill="#C48D51"/>
<path d="M35.9847 137.123C34.9497 138.428 33.975 137.728 33.2214 136.548C32.8546 135.973 32.6737 135.333 32.5381 134.684C32.5783 135.568 32.6687 136.433 32.8094 137.238C33.1058 138.923 33.6836 139.598 34.7889 139.643C36.3715 139.703 36.7182 138.208 36.9141 136.713C36.9744 136.248 37.0197 135.783 37.0498 135.313C36.7584 135.948 36.4318 136.563 35.9847 137.123Z" fill="#C48D51"/>
<path d="M63.9242 128.855C64.4015 129.114 64.7331 129.584 64.9793 130.074C64.9542 129.919 64.9341 129.764 64.9039 129.614C64.4618 127.41 62.7787 127.625 62.1306 127.85C61.2061 128.17 60.9499 128.924 60.8042 129.919C61.4925 128.84 62.5124 128.08 63.9242 128.855Z" fill="#F4C38E"/>
<path d="M35.3468 128.779C36.1909 128.929 36.6631 129.639 36.9797 130.419C36.9143 129.884 36.7335 128.729 36.2311 128.225C35.8392 127.835 34.3822 127.435 33.5481 128.135C33.0558 128.545 32.8347 129.434 32.7393 130.024C33.312 129.159 34.1008 128.56 35.3468 128.779Z" fill="#F4C38E"/>
<path d="M48.8419 158.99C47.9174 159.01 46.9729 158.975 46.0484 158.945C44.7974 158.9 43.873 158.57 43.3555 157.295C43.3605 157.57 43.3756 157.85 43.4057 158.115C43.5765 159.655 43.7725 159.46 44.9381 159.65C46.9327 159.98 49.2237 159.755 51.0625 159.43C52.605 159.155 52.7105 158.35 52.7306 156.865C52.7406 156.235 52.7808 155.515 52.7909 154.79C52.7456 155.31 52.6803 155.835 52.5648 156.355C52.1327 158.3 50.6807 158.955 48.8419 158.99Z" fill="#FFA222"/>
<path d="M34.2012 158.99C33.2768 159.01 32.3322 158.975 31.4078 158.945C30.1166 158.9 29.167 158.555 28.6595 157.175C28.6344 157.105 28.6143 157.035 28.5942 156.96C28.5942 157.39 28.6093 157.835 28.6646 158.24C28.7902 159.18 29.4182 159.515 30.0713 159.63C32.0911 159.985 34.4323 159.76 36.3013 159.43C37.5624 159.205 37.9241 159.095 37.9543 157.845C37.9643 157.41 37.9643 156.995 37.9693 156.865C37.9744 156.565 37.9844 156.24 37.9995 155.91C37.9744 156.06 37.9492 156.205 37.9191 156.355C37.4971 158.3 36.0401 158.955 34.2012 158.99Z" fill="#FFA222"/>
<path d="M37.9195 170.833C37.4974 172.777 36.0404 173.427 34.2016 173.467C33.2771 173.487 32.3326 173.452 31.4081 173.422C30.1169 173.377 29.1674 173.032 28.6599 171.653C28.6247 171.553 28.5946 171.448 28.5645 171.343C28.5795 171.748 28.6097 172.148 28.675 172.528C28.8508 173.507 28.9815 174.007 30.3832 174.287C32.428 174.697 35.9299 174.172 36.9799 173.917C37.9848 173.672 37.8391 173.607 37.9144 172.328C37.9496 171.733 37.9647 171.138 37.9697 170.543C37.9546 170.643 37.9396 170.738 37.9195 170.833Z" fill="#FFA222"/>
<path d="M67.3556 156.355C66.9336 158.3 65.4766 158.95 63.6377 158.99C62.7133 159.01 61.7687 158.975 60.8443 158.945C59.5581 158.9 58.6085 158.56 58.1011 157.195C58.1061 157.44 58.1111 157.69 58.1362 157.935C58.2418 159.195 59.0255 159.61 60.3469 159.745C62.1757 159.935 64.1753 159.73 65.8132 159.435C67.2601 159.175 67.4611 158.505 67.4812 156.87C67.4862 156.39 67.5164 155.855 67.5314 155.305C67.4862 155.65 67.431 156.005 67.3556 156.355Z" fill="#FFA222"/>
<path d="M48.8418 173.467C47.9174 173.487 46.9728 173.452 46.0484 173.422C44.7873 173.377 43.8528 173.042 43.3403 171.743C43.3855 172.348 43.481 172.927 43.682 173.432C44.3452 175.107 50.3089 174.267 51.7357 173.917C52.7406 173.667 52.5949 173.607 52.6702 172.328C52.7154 171.533 52.7406 170.738 52.7305 169.943C52.7305 169.893 52.7305 169.838 52.7305 169.783C52.6853 170.133 52.6351 170.483 52.5597 170.833C52.1326 172.777 50.6807 173.432 48.8418 173.467Z" fill="#FFA222"/>
<path d="M31.0262 152.366C30.2927 152.451 29.9561 152.881 29.8053 153.551C29.5692 154.62 29.7601 155.445 30.3379 155.92C30.7197 156.23 31.2674 156.39 31.9657 156.36C32.9957 156.32 34.1462 156.325 35.1611 156.165C35.975 156.035 36.5578 155.49 36.7538 154.655C36.8995 154.04 36.8291 153.406 36.5829 152.931C36.3016 152.381 35.975 152.211 35.5279 152.181C35.1862 152.151 32.0964 152.241 31.0262 152.366Z" fill="#FBE134"/>
<path d="M31.0262 167.103C30.2927 167.188 29.9561 167.618 29.8053 168.288C29.5692 169.358 29.7601 170.183 30.3379 170.658C30.7197 170.968 31.2674 171.128 31.9657 171.103C32.9957 171.063 34.1462 171.068 35.1611 170.908C35.975 170.778 36.5578 170.233 36.7538 169.398C36.8995 168.783 36.8291 168.148 36.5829 167.673C36.3016 167.123 35.975 166.953 35.5279 166.923C35.1862 166.883 32.0964 166.978 31.0262 167.103Z" fill="#FBE134"/>
<path d="M45.7215 152.366C44.988 152.451 44.6514 152.881 44.5006 153.551C44.2645 154.62 44.4554 155.445 45.0332 155.92C45.415 156.23 45.9627 156.39 46.6611 156.36C47.691 156.32 48.8415 156.325 49.8564 156.165C50.6703 156.035 51.2531 155.49 51.4491 154.655C51.5898 154.04 51.5244 153.406 51.2783 152.931C50.9969 152.381 50.6703 152.211 50.2232 152.181C49.8866 152.151 46.7967 152.241 45.7215 152.366Z" fill="#FBE134"/>
<path d="M60.5731 152.366C59.8396 152.451 59.5029 152.881 59.3522 153.551C59.1161 154.62 59.307 155.445 59.8848 155.92C60.2666 156.23 60.8143 156.39 61.5126 156.36C62.5426 156.32 63.6931 156.325 64.708 156.165C65.5219 156.035 66.1047 155.49 66.3007 154.655C66.4413 154.04 66.376 153.406 66.1298 152.931C65.8485 152.381 65.5219 152.211 65.0748 152.181C64.7381 152.151 61.6483 152.241 60.5731 152.366Z" fill="#FBE134"/>
<path d="M45.7215 167.103C44.988 167.188 44.6514 167.618 44.5006 168.288C44.2645 169.358 44.4554 170.183 45.0332 170.658C45.415 170.968 45.9627 171.128 46.6611 171.103C47.691 171.063 48.8415 171.068 49.8564 170.908C50.6703 170.778 51.2531 170.233 51.4491 169.398C51.5898 168.783 51.5244 168.148 51.2783 167.673C50.9969 167.123 50.6703 166.953 50.2232 166.923C49.8866 166.883 46.7967 166.978 45.7215 167.103Z" fill="#FBE134"/>
<path d="M66.4864 173.917C67.4913 173.672 67.3455 173.607 67.4209 172.327C67.4511 171.853 67.4661 171.378 67.4762 170.908C67.1446 172.063 66.4914 172.862 65.0294 173.277C63.6076 173.682 61.8793 173.677 60.4222 173.417C58.5131 173.077 58.6889 170.873 58.7542 169.418C58.7944 168.523 58.7944 167.028 59.3571 166.073C58.3674 166.353 58.1362 166.938 58.1162 168.538C58.0961 170.028 57.8649 172.013 58.4226 173.427C59.0959 175.107 65.0596 174.267 66.4864 173.917Z" fill="#EA0F4D"/>
<path d="M64.2158 166.838C63.3617 166.898 62.3971 166.993 61.975 167.038C61.2214 167.118 60.8295 167.618 60.6989 168.323C60.5783 168.963 60.508 170.158 60.9451 170.703C61.5028 171.403 62.5679 171.358 63.3919 171.383C64.04 171.408 65.2156 171.473 65.7633 171.013C66.3109 170.553 66.4265 169.733 66.4717 169.003C66.5772 167.308 65.5623 166.743 64.2158 166.838Z" fill="#FF6699"/>
<path d="M40.3459 169.603C40.3911 167.723 40.4816 165.614 39.2758 164.044C38.1001 162.514 35.4675 163.024 33.8296 163.069C31.8601 163.119 28.5843 162.854 27.1223 164.459C25.8612 165.844 26.3787 168.998 26.4792 170.633C26.4993 170.928 26.5295 171.213 26.5697 171.493C26.5345 170.698 26.5596 169.903 26.5697 169.168C26.5847 167.788 26.3134 165.119 27.9362 164.489C30.81 163.374 35.367 163.109 38.3312 164.134C38.5322 164.154 38.7382 164.249 38.9241 164.439C40.2655 165.864 40.0595 168.773 40.0344 170.588C40.0244 171.278 40.0796 172.323 39.949 173.282C40.3761 172.143 40.3208 170.768 40.3459 169.603Z" fill="#C6C6C6"/>
<path d="M39.2758 149.716C38.1001 148.186 35.4675 148.696 33.8296 148.741C31.8601 148.791 28.5843 148.526 27.1223 150.131C25.8612 151.516 26.3787 154.67 26.4792 156.305C26.4943 156.565 26.5194 156.82 26.5546 157.07C26.5295 156.265 26.5646 155.48 26.5697 154.835C26.5897 153.431 26.3285 150.551 27.9714 149.881C29.8655 149.111 32.1917 149.076 34.2064 149.121C35.3117 149.146 37.9343 148.916 38.7633 149.891C40.2153 151.596 40.0545 154.156 40.0294 156.26C40.0194 156.98 40.0897 158.045 39.9289 158.995C40.3811 157.855 40.3208 156.46 40.351 155.285C40.3962 153.396 40.4816 151.286 39.2758 149.716Z" fill="#C6C6C6"/>
<path d="M55.0115 169.603C55.0567 167.723 55.1471 165.614 53.9413 164.044C52.7656 162.514 50.133 163.024 48.4951 163.069C46.5256 163.119 43.2499 162.854 41.7878 164.459C40.5268 165.844 41.0443 168.998 41.1447 170.633C41.1749 171.173 41.2502 171.688 41.3658 172.178C41.2703 171.163 41.3105 170.118 41.3206 169.168C41.3357 167.788 41.0644 165.119 42.6872 164.489C45.561 163.374 50.1179 163.109 53.0822 164.134C53.2831 164.154 53.4891 164.249 53.67 164.439C55.0114 165.859 54.8054 168.773 54.7803 170.588C54.7703 171.188 54.8105 172.048 54.7401 172.897C55.0265 171.838 54.9863 170.638 55.0115 169.603Z" fill="#C6C6C6"/>
<path d="M69.7572 169.603C69.8024 167.723 69.8929 165.614 68.6871 164.044C67.5114 162.514 64.8787 163.024 63.2409 163.069C61.2714 163.119 57.9906 162.854 56.5286 164.459C55.2675 165.844 55.785 168.998 55.8855 170.633C55.9206 171.183 55.991 171.713 56.1166 172.208C56.0161 171.183 56.0563 170.123 56.0663 169.163C56.0814 167.783 55.8101 165.114 57.4329 164.484C60.3067 163.369 64.8637 163.104 67.8229 164.129C68.0239 164.149 68.2298 164.244 68.4107 164.434C69.7522 165.854 69.5462 168.768 69.5211 170.583C69.511 171.173 69.5512 172.023 69.4809 172.862C69.7723 171.818 69.7321 170.628 69.7572 169.603Z" fill="#C6C6C6"/>
<path d="M68.6871 149.716C67.5114 148.186 64.8787 148.696 63.2409 148.741C61.2714 148.791 57.9906 148.526 56.5286 150.131C55.2675 151.516 55.785 154.67 55.8855 156.305C55.9156 156.82 55.9809 157.31 56.0864 157.78C56.006 156.735 56.0563 155.67 56.0663 154.835C56.0864 153.431 55.8252 150.551 57.4681 149.881C59.3622 149.111 61.6884 149.076 63.698 149.121C64.8034 149.146 67.426 148.916 68.255 149.891C69.707 151.596 69.5462 154.156 69.5211 156.26C69.511 156.865 69.5613 157.715 69.4809 158.535C69.7622 157.495 69.722 156.31 69.7471 155.285C69.8074 153.396 69.8929 151.286 68.6871 149.716Z" fill="#C6C6C6"/>
<path d="M53.9413 149.716C52.7656 148.186 50.133 148.696 48.4951 148.741C46.5256 148.791 43.2499 148.526 41.7878 150.131C40.5268 151.516 41.0443 154.67 41.1447 156.305C41.1749 156.815 41.2402 157.305 41.3457 157.77C41.2653 156.725 41.3105 155.665 41.3206 154.835C41.3407 153.431 41.0794 150.551 42.7223 149.881C44.6164 149.111 46.9426 149.076 48.9573 149.121C50.0626 149.146 52.6853 148.916 53.5142 149.891C54.9662 151.596 54.8054 154.156 54.7803 156.26C54.7703 156.87 54.8205 157.74 54.7401 158.57C55.0315 157.52 54.9913 156.32 55.0165 155.285C55.0617 153.396 55.1471 151.286 53.9413 149.716Z" fill="#C6C6C6"/>
<path d="M72.8775 171.203C73.2895 166.843 73.3347 162.444 73.2945 158.065C73.2041 162.499 72.9328 166.933 72.2093 171.283C71.8727 173.292 71.4958 176.427 69.7173 177.622C68.7275 178.287 67.1148 178.277 65.9743 178.442C63.9697 178.731 61.9399 178.906 59.9202 179.076C52.1126 179.726 44.305 179.861 36.4824 179.331C33.8497 179.151 31.0613 179.041 28.5292 178.257C23.9823 176.842 24.1682 170.728 23.8567 166.883C23.4447 161.794 23.088 156.68 22.8116 151.576C22.7413 154.755 22.7966 157.94 22.9222 161.114C23.083 165.239 23.2739 169.448 23.9873 173.502C24.2586 175.057 24.6455 176.647 25.8563 177.762C27.7203 179.481 30.8403 179.541 33.2368 179.776C39.2256 180.366 45.2797 180.386 51.2886 180.216C56.5791 180.066 61.9047 179.796 67.155 179.091C68.1698 178.951 69.3053 178.886 70.1996 178.347C71.2346 177.727 71.732 176.532 72.0937 175.437C72.5811 174.007 72.7418 172.647 72.8775 171.203Z" fill="#C6C6C6"/>
<path d="M41.3102 198V193.71L39.3002 195.54L37.2902 193.71V198H35.8902V190.99H36.3702L39.3002 193.65L42.2202 190.99H42.7102V198H41.3102ZM48.6755 190.99V192.39H45.4055V193.68H48.1055V195.08H45.4055V196.6H48.6455V198H44.0055V190.99H48.6755ZM55.3123 198L51.3723 193.91V198H49.9723V190.99H50.4123L54.2823 194.91V190.99H55.6823V198H55.3123ZM62.254 195.41H62.264C62.264 196.91 61.044 198.12 59.554 198.12C58.054 198.12 56.844 196.91 56.834 195.42V190.99H58.234V195.41C58.234 195.76 58.374 196.09 58.624 196.34C58.874 196.59 59.204 196.72 59.554 196.72C59.904 196.72 60.224 196.59 60.474 196.34C60.724 196.09 60.854 195.77 60.864 195.42H60.854V190.99H62.254V195.41Z" fill="white"/>
<path d="M73.6282 269.567C71.804 268.528 69.9576 267.616 68.0946 266.814C68.5271 265.112 68.7655 263.316 68.7655 261.431C68.7655 259.762 68.5936 258.137 68.272 256.568C70.1572 256.159 71.9703 255.705 73.6836 255.197C74.6872 254.898 75.2362 253.826 74.8979 252.837C73.4452 248.62 71.621 244.746 69.2368 241.396C68.6768 240.606 67.5845 240.396 66.7583 240.905C64.9396 242.026 63.2208 243.226 61.6017 244.497C59.2064 242.248 56.301 240.545 53.0462 239.584C53.6284 237.71 54.133 235.881 54.5433 234.112C54.7762 233.095 54.1108 232.089 53.0795 231.896C48.677 231.083 44.3965 230.763 40.3045 231.188C39.3398 231.288 38.6189 232.134 38.6578 233.101C38.752 235.444 38.9849 237.721 39.3564 239.943C36.6173 240.893 34.1166 242.358 31.9597 244.21C30.5237 242.529 29.0876 240.96 27.6515 239.534C26.9141 238.799 25.6998 238.832 24.99 239.6C21.9682 242.889 19.4287 246.337 17.6211 250.024C17.1942 250.891 17.5324 251.947 18.3752 252.428C20.4877 253.633 22.628 254.666 24.7904 255.551C24.2859 257.419 24.0142 259.381 24.0142 261.398C24.0142 262.741 24.1306 264.04 24.3413 265.289C22.2343 265.736 20.2161 266.228 18.3142 266.792C17.3106 267.091 16.7617 268.163 17.0999 269.152C18.5527 273.369 20.3769 277.243 22.7611 280.593C23.3211 281.383 24.4134 281.593 25.2396 281.084C27.219 279.869 29.071 278.559 30.812 277.16C33.1408 279.25 35.9741 280.825 39.1568 281.753C38.4914 283.853 37.9148 285.904 37.4601 287.877C37.2272 288.894 37.8926 289.9 38.9239 290.093C43.3264 290.906 47.6069 291.226 51.6989 290.801C52.6637 290.701 53.3845 289.855 53.3457 288.888C53.2514 286.495 53.0074 284.163 52.6193 281.897C55.497 281.134 58.1307 279.874 60.3985 278.194C61.7126 279.714 63.0323 281.145 64.3519 282.455C65.0894 283.19 66.3036 283.157 67.0134 282.389C70.0352 279.1 72.5747 275.652 74.3823 271.965C74.8092 271.103 74.471 270.047 73.6282 269.567Z" fill="url(#paint1_linear_483_2536)"/>
<path d="M20.1772 248.576C19.9277 249.029 19.6948 249.515 19.6948 250.029C19.6948 250.543 19.9942 251.096 20.4933 251.229C21.0699 251.378 21.6299 250.958 22.0347 250.527C23.0494 249.443 24.3025 247.658 24.247 246.105C24.1916 244.58 22.4616 245.519 21.8794 246.144C21.2085 246.862 20.6485 247.719 20.1772 248.576Z" fill="white"/>
<path d="M24.4302 242.43C24.1641 242.784 23.909 243.198 23.9755 243.635C24.0199 243.939 24.2306 244.221 24.5189 244.342C24.8017 244.464 25.151 244.431 25.4061 244.254C25.7332 244.027 25.8774 243.624 25.9217 243.231C25.9716 242.756 25.9328 241.988 25.5669 241.629C25.1566 241.225 24.6409 242.154 24.4302 242.43Z" fill="white"/>
<path d="M46.7088 243.861C37.1164 243.861 29.2651 251.687 29.2651 261.249C29.2651 270.81 36.5841 277.575 46.1765 277.575C55.7688 277.575 63.5148 270.827 63.5148 261.271C63.5148 251.704 56.3011 243.861 46.7088 243.861Z" fill="url(#paint2_linear_483_2536)"/>
<path d="M46.5093 254.594C43.0272 254.594 40.1772 257.435 40.1772 260.906C40.1772 264.377 42.8332 266.836 46.3208 266.836C49.8084 266.836 52.6196 264.388 52.6196 260.912C52.6085 257.441 49.9914 254.594 46.5093 254.594Z" fill="white"/>
<path d="M41.2748 246.194C39.4284 246.757 37.7151 247.957 36.8557 249.681C36.7281 249.941 36.6172 250.212 36.6006 250.499C36.584 250.786 36.6727 251.09 36.8889 251.284C37.1994 251.56 37.6707 251.533 38.0755 251.461C39.1179 251.273 40.1048 250.88 41.0918 250.488C42.7441 249.83 44.3965 249.167 46.0488 248.509C46.4535 248.349 46.8805 248.172 47.1688 247.846C47.4294 247.553 47.5569 247.15 47.5181 246.757C47.4848 246.448 47.313 245.967 46.9969 245.851C46.6642 245.724 46.1486 245.774 45.7993 245.757C44.8289 245.702 43.8531 245.713 42.8883 245.845C42.3449 245.917 41.8015 246.033 41.2748 246.194Z" fill="white"/>
<path opacity="0.2" d="M74.898 252.842C73.4453 248.625 71.6211 244.751 69.2369 241.402C68.6768 240.612 67.5845 240.402 66.7584 240.91C64.9397 242.032 63.2209 243.231 61.6018 244.502C59.2065 242.253 56.3011 240.551 53.0463 239.589C53.6285 237.716 54.1331 235.886 54.5434 234.118C54.7763 233.101 54.1109 232.095 53.0796 231.901C52.2313 231.747 51.3885 231.614 50.5512 231.498C49.8748 236.417 50.9449 241.562 53.9446 245.591C56.3676 248.841 59.8552 251.345 61.5574 255.02C63.6145 259.447 62.55 264.963 59.4671 268.754C56.3842 272.54 51.5437 274.673 46.6644 275.088C41.785 275.502 36.878 274.314 32.3868 272.374C27.5573 270.285 22.6059 267.251 17.5325 267.284C17.0612 267.765 16.8671 268.483 17.1 269.163C18.5527 273.38 20.3769 277.254 22.7611 280.604C23.3212 281.394 24.4135 281.604 25.2396 281.095C27.2191 279.88 29.071 278.57 30.8121 277.171C33.1408 279.261 35.9742 280.836 39.1568 281.764C38.4915 283.864 37.9148 285.915 37.4602 287.888C37.2273 288.905 37.8926 289.911 38.924 290.104C43.3265 290.917 47.607 291.237 51.699 290.812C52.6637 290.712 53.3846 289.867 53.3457 288.899C53.2515 286.506 53.0075 284.174 52.6194 281.908C55.4971 281.145 58.1308 279.885 60.3986 278.205C61.7127 279.725 63.0323 281.156 64.352 282.466C65.0894 283.201 66.3037 283.168 67.0134 282.4C70.0353 279.111 72.5748 275.663 74.3824 271.976C74.8093 271.109 74.4711 270.053 73.6283 269.572C71.8041 268.533 69.9577 267.621 68.0947 266.82C68.5271 265.117 68.7656 263.321 68.7656 261.437C68.7656 259.768 68.5937 258.143 68.2721 256.573C70.1573 256.164 71.9704 255.711 73.6837 255.202C74.6873 254.904 75.2418 253.826 74.898 252.842Z" fill="#093F95"/>
<path d="M41.3102 307V302.71L39.3002 304.54L37.2902 302.71V307H35.8902V299.99H36.3702L39.3002 302.65L42.2202 299.99H42.7102V307H41.3102ZM48.6755 299.99V301.39H45.4055V302.68H48.1055V304.08H45.4055V305.6H48.6455V307H44.0055V299.99H48.6755ZM55.3123 307L51.3723 302.91V307H49.9723V299.99H50.4123L54.2823 303.91V299.99H55.6823V307H55.3123ZM62.254 304.41H62.264C62.264 305.91 61.044 307.12 59.554 307.12C58.054 307.12 56.844 305.91 56.834 304.42V299.99H58.234V304.41C58.234 304.76 58.374 305.09 58.624 305.34C58.874 305.59 59.204 305.72 59.554 305.72C59.904 305.72 60.224 305.59 60.474 305.34C60.724 305.09 60.854 304.77 60.864 304.42H60.854V299.99H62.254V304.41Z" fill="white"/>
<path opacity="0.3" d="M83.9969 372.346C84.0182 368.139 83.9543 363.172 83.2992 358.248C83.0329 356.224 82.3725 351.252 77.9628 349.095C76.4077 344.575 71.966 343.162 68.6321 342.965C56.2603 341.595 46.7005 341.637 35.4472 342.338C23.5867 342.376 19.651 348.601 19.2782 359.018C18.6231 367.172 18.7456 375.326 19.6456 383.23C19.635 385.248 21.0516 388.914 23.4962 390.019C25.014 394.953 30.0256 395.915 32.0707 396.303C36.9065 397.232 41.8275 397.509 46.0614 397.7C55.4881 398.321 68.877 398.21 76.1467 395.086C80.0079 393.62 82.3725 390.645 83.1661 386.242C84.0129 381.583 83.9756 376.93 83.9969 372.346Z" fill="#231F20"/>
<path d="M21.6372 388.159C23.1551 393.094 28.1666 394.056 30.2117 394.444C35.0475 395.373 39.9685 395.649 44.2025 395.841C53.6291 396.462 67.0181 396.351 74.2878 393.227C78.149 391.761 80.5136 388.786 81.3071 384.383C82.1433 379.719 82.106 375.065 82.1326 370.487C82.154 366.279 82.09 361.313 81.435 356.389C81.1687 354.365 80.5083 349.393 76.0985 347.236C74.5434 342.716 70.1017 341.303 66.7678 341.106C54.396 339.736 44.8363 339.778 33.5829 340.479C21.7225 340.516 17.7867 346.742 17.4139 357.159C16.7588 365.313 16.8813 373.467 17.7814 381.371C17.7707 383.389 19.1874 387.055 21.6372 388.159Z" fill="white"/>
<path d="M22.1485 383.889C22.7396 384.797 23.6397 385.296 24.7847 385.61C25.0297 389.206 27.4689 390.29 30.8827 390.943C35.3084 391.793 39.862 392.08 44.3569 392.282C53.5119 392.691 64.2806 393.211 73.0149 389.897C75.8961 388.802 77.2595 386.683 77.7868 383.751C78.5697 379.416 78.5324 374.853 78.5537 370.465C78.5803 365.934 78.4845 361.35 77.888 356.851C77.4726 353.706 76.5991 350.774 73.2599 349.988C72.9883 348.989 72.6048 348.022 72.0296 347.125C70.7088 345.053 68.1471 344.862 65.9423 344.591C59.2265 343.762 52.4042 343.581 45.6404 343.581C42.1201 343.581 38.6051 343.698 35.0954 343.948C32.2728 344.15 28.4968 344.155 25.9671 345.542C21.52 347.985 21.275 353.43 20.9289 357.94C20.3537 365.44 20.4549 373.174 21.291 380.664C21.4082 381.636 21.4561 382.837 22.1485 383.889Z" fill="#68182B"/>
<path d="M72.2265 359.788C72.1413 356.904 72.1999 353.807 71.5129 350.986C70.5915 347.199 68.1044 346.763 64.7012 346.418C58.3795 345.775 52.0046 345.515 45.6509 345.547C42.1359 345.563 38.6103 345.637 35.1059 345.913C32.2353 346.142 27.4261 345.956 25.397 348.352C22.111 352.24 22.7075 359.549 22.6436 364.287C22.569 370.03 22.6862 375.814 23.3679 381.519C23.9271 384.59 27.9055 384.186 30.2967 384.457C32.5602 384.717 34.829 384.956 37.0977 385.137C41.2465 385.472 45.4059 385.716 49.5707 385.764C53.7248 385.806 57.9002 385.764 62.0383 385.376C64.6373 385.132 67.6197 384.988 70.0643 383.979C72.1892 383.102 71.923 380.855 71.9975 378.917C72.0934 376.489 72.1733 374.061 72.2212 371.629C72.3011 367.687 72.3437 363.735 72.2265 359.788ZM43.0413 374.911C42.9295 376.208 42.7484 376.919 41.9868 377.514C40.8897 378.375 38.1949 378.035 36.9167 378.056C34.371 378.104 31.7666 378.157 29.2316 377.881C27.2983 377.674 26.7924 376.771 26.6592 374.768C26.4941 372.282 25.9775 368.224 27.6498 366.115C28.6937 364.803 30.7121 365.105 32.23 365.074C34.7757 365.02 37.3534 364.967 39.8938 365.18C41.0282 365.275 41.7312 365.743 42.1892 366.476C42.8975 367.618 42.9614 369.297 43.0946 370.683C43.2011 371.852 43.1478 373.668 43.0413 374.911ZM67.6677 360.739C66.9487 362.035 65.9102 362.295 64.5361 362.38C60.7122 362.619 56.8723 362.619 53.0431 362.646C45.6243 362.699 38.1522 362.832 30.7388 362.407C29.7322 362.349 28.8055 362.333 27.9321 361.764C26.622 360.909 26.5953 358.604 26.5793 357.254C26.5527 354.338 26.4995 349.961 30.2115 349.812C37.4918 349.52 44.8041 349.616 52.0898 349.642C55.658 349.658 59.2263 349.669 62.7892 349.754C63.7053 349.775 64.6266 349.786 65.5427 349.865C67.2043 350.009 67.6677 351.953 67.9606 353.27C68.3121 355.416 68.7861 358.72 67.6677 360.739Z" fill="#DDA96B"/>
<path d="M27.9802 368.325C28.3371 365.902 30.3715 366.306 32.2302 366.258C34.1102 366.21 35.9955 366.221 37.8809 366.269C38.5519 366.285 39.2229 366.317 39.894 366.365C41.3 366.46 41.561 367.751 41.742 368.962C41.9125 371.198 42.0136 373.514 41.6568 375.74C41.4172 377.233 38.5466 376.829 37.4175 376.866C35.6813 376.919 33.9398 376.909 32.2036 376.866C30.936 376.834 28.1613 377.27 27.9643 375.74C27.6181 372.989 27.6554 370.534 27.9802 368.325Z" fill="#00EBED"/>
<path d="M73.9681 378.922C74.3196 370.449 74.6232 361.839 73.835 353.382C73.7604 352.553 73.9148 352.171 74.6818 353.138C76.0398 354.864 76.0718 357.823 76.2475 359.932C76.5618 363.719 76.6044 367.533 76.5831 371.331C76.5618 374.965 76.4286 378.609 76.0292 382.221C75.6138 385.987 74.0746 387.634 70.4265 388.68C63.2686 390.746 55.2534 390.55 47.8772 390.422C43.9361 390.353 39.9897 390.125 36.0699 389.716C33.3272 389.429 28.5393 389.387 27.1333 386.784C26.7978 386.162 26.9789 386.008 27.8576 386.12C32.0011 386.656 36.1658 387.055 40.3359 387.347C48.5802 387.92 56.9736 388.048 65.1859 386.996C67.4547 386.709 69.8832 386.38 71.907 385.259C74.0586 384.069 73.8829 380.983 73.9681 378.922Z" fill="#FFC522"/>
<path d="M27.7989 355.241C27.8468 354.248 28.0439 351.13 29.5138 351.024C29.9771 350.992 30.4405 350.976 30.8985 350.96C34.1632 350.848 37.4385 350.843 40.7086 350.822C48.351 350.779 56.0042 350.731 63.6466 350.949C65.5426 351.002 66.3308 351.385 66.8155 353.579C67.0818 355.22 67.886 360.856 65.2604 361.138C64.1952 361.254 63.1141 361.27 62.0436 361.308C58.3688 361.43 54.694 361.456 51.0192 361.472C43.9999 361.509 36.8847 361.695 29.8813 361.169C27.2503 360.973 27.7137 357.042 27.7989 355.241Z" fill="#FF2E60"/>
<path d="M32.2086 376.866C33.9448 376.909 35.6864 376.919 37.4226 376.866C38.5516 376.834 41.4222 377.238 41.6619 375.74C41.8909 374.316 41.9281 372.856 41.8802 371.406C41.7151 372.494 41.353 373.525 40.6393 374.37C39.3718 375.873 36.5811 375.474 34.8236 375.597C33.0235 375.719 31.1328 375.846 29.5138 374.927C28.4167 374.306 27.9587 373.137 27.719 371.884C27.7137 373.1 27.7936 374.386 27.964 375.745C28.1664 377.27 30.9411 376.834 32.2086 376.866Z" fill="#19BFBB"/>
<path d="M37.9019 367.523C35.7929 367.432 30.8453 367.353 30.1956 367.953C29.6151 368.489 29.6417 369.748 29.7322 370.402C29.8121 370.997 30.3766 371.188 30.9784 371.289C31.9477 371.448 36.1551 371.459 38.2801 371.257C39.6009 371.135 40.1388 371.028 40.1973 370.125C40.2186 369.785 40.1015 369.063 39.9311 368.553C39.6488 367.687 38.9085 367.565 37.9019 367.523Z" fill="#6CFFFB"/>
<path d="M42.8283 376.245C43.1851 375.602 43.3715 374.821 43.4514 374.136C43.6964 371.937 43.4195 369.376 42.9135 367.22C42.4821 365.355 40.8791 364.856 39.1802 364.755C36.6558 364.601 34.1047 364.633 31.5803 364.734C30.0518 364.797 28.6245 364.755 27.57 366.014C27.1066 366.566 26.8457 367.337 26.7285 368.176C26.9096 367.395 27.1972 366.683 27.6499 366.12C28.6937 364.808 30.7122 365.111 32.23 365.079C34.7758 365.026 37.3534 364.973 39.8938 365.185C41.0282 365.281 41.7312 365.748 42.1892 366.481C42.8976 367.623 42.9615 369.302 43.0946 370.688C43.2064 371.852 43.1532 373.668 43.0467 374.911C42.9987 375.448 42.9348 375.878 42.8283 376.245Z" fill="#C48D51"/>
<path d="M32.0915 349.302C30.8453 349.372 29.1836 349.207 28.1291 350.041C26.9521 350.976 26.6805 352.187 26.5261 353.637C26.4036 354.774 26.2971 356.405 26.59 357.833C26.5847 357.626 26.5793 357.43 26.5793 357.249C26.5527 354.333 26.4995 349.956 30.2115 349.807C37.4918 349.515 44.8041 349.611 52.0898 349.637C55.658 349.653 59.2263 349.664 62.7892 349.749C63.7053 349.77 64.6266 349.781 65.5427 349.86C67.2043 350.004 67.6676 351.948 67.9606 353.265C68.2961 355.305 68.7381 358.402 67.8114 360.431C68.2055 359.921 68.4452 359.31 68.5943 358.423C68.9192 356.468 68.7115 354.418 68.2801 352.5C68.0351 351.427 67.5505 350.296 66.5546 349.738C65.6332 349.217 64.2964 349.366 63.2792 349.334C57.6765 349.164 52.0578 349.164 46.4551 349.154C41.6779 349.148 36.8634 349.032 32.0915 349.302Z" fill="#C48D51"/>
<path d="M72.285 367.183C72.1466 369.419 71.9761 371.655 71.7365 373.881C71.5394 375.751 71.2731 377.615 70.9749 379.474C70.7459 380.914 70.2666 382.12 68.9351 382.853C66.6823 384.091 63.6253 384.133 61.1382 384.361C57.4368 384.701 53.7247 384.877 50.0074 384.893C45.7308 384.909 41.4542 384.728 37.1882 384.452C34.8396 384.298 32.4962 384.101 30.1529 383.878C28.6936 383.74 26.9361 383.814 25.6313 383.023C24.6194 382.412 24.3212 381.089 24.1081 380.022C23.714 378.051 23.6341 376 23.4744 374.003C23.2241 370.832 22.9791 367.666 22.8459 364.489C22.7075 361.212 22.6862 357.918 22.9684 354.652C22.4944 357.956 22.6702 361.557 22.6382 364.293C22.5637 370.035 22.6808 375.82 23.3625 381.525C23.9217 384.595 27.9001 384.192 30.2914 384.462C32.5548 384.723 34.8236 384.962 37.0924 385.142C41.2411 385.477 45.4006 385.721 49.5653 385.769C53.7194 385.812 57.8948 385.769 62.0329 385.381C64.6319 385.137 67.6143 384.994 70.0589 383.984C72.1838 383.108 71.9176 380.861 71.9921 378.922C72.088 376.494 72.1679 374.067 72.2158 371.634C72.2531 370.152 72.2744 368.67 72.285 367.183Z" fill="#C48D51"/>
<path d="M72.2107 359.23C72.1468 356.505 72.1521 353.626 71.513 350.981C70.5917 347.194 68.1045 346.758 64.7014 346.413C58.3797 345.77 52.0048 345.51 45.6511 345.542C42.1361 345.557 38.6104 345.632 35.1061 345.908C32.2355 346.136 27.4263 345.951 25.3972 348.346C24.9285 348.904 24.5451 349.536 24.2202 350.216C25.6955 348.697 27.5648 347.719 29.8442 347.279C31.623 346.933 33.4764 346.859 35.2818 346.731C42.1734 346.253 49.1022 346.216 56.0044 346.503C59.5514 346.652 63.3646 346.641 66.8264 347.518C69.6969 348.245 70.6396 350.482 71.2095 353.09C71.6409 355.114 71.9604 357.164 72.2107 359.23Z" fill="#F4C38E"/>
<path d="M74.4797 354.338C74.4424 353.796 74.3998 353.265 74.3199 352.745C73.8726 352.341 73.7714 352.707 73.8353 353.382C74.6288 361.839 74.3253 370.449 73.9684 378.922C73.8832 380.988 74.059 384.069 71.902 385.265C69.8782 386.385 67.4444 386.709 65.1809 387.002C56.9686 388.053 48.5752 387.921 40.3309 387.352C36.1608 387.06 32.0014 386.662 27.8526 386.125C27.1816 386.04 26.9206 386.109 26.9792 386.417C32.502 387.703 38.3284 388.032 43.9471 388.271C51.1209 388.579 58.3693 388.622 65.5218 387.894C67.7906 387.66 70.7996 387.586 72.6903 386.12C74.3412 384.84 74.5756 382.715 74.7087 380.771C75.1188 374.672 74.9164 368.484 74.7833 362.375C74.73 359.693 74.6555 357.01 74.4797 354.338Z" fill="#FFA222"/>
<path d="M29.8815 361.169C36.8902 361.695 44.0001 361.509 51.0195 361.472C54.6943 361.456 58.3691 361.43 62.0438 361.307C63.1143 361.27 64.1955 361.254 65.2606 361.137C66.5068 361.005 66.9755 359.666 67.1033 358.126C65.3298 359.645 62.8427 360.181 60.1638 360.325C55.8979 360.548 51.5947 360.569 47.3287 360.543C42.8817 360.516 38.3548 360.787 33.9185 360.447C31.7083 360.277 29.0773 359.958 27.9536 357.786C27.8577 357.6 27.7832 357.408 27.7139 357.212C27.7086 359.018 28.0175 361.031 29.8815 361.169Z" fill="#EA0F4D"/>
<path d="M62.1397 352.065C57.7193 351.804 53.2351 351.879 48.8147 351.857C43.899 351.831 38.9833 351.804 34.0729 351.879C33.1303 351.895 32.0811 351.879 31.1704 352.075C30.3129 352.261 29.7058 352.925 29.4768 353.621C29.0188 355.018 29.9508 355.687 31.5911 355.735C37.4761 355.9 55.9618 355.799 62.3581 355.725C64.3659 355.703 65.4843 355.443 64.9517 353.791C64.6854 352.962 63.8067 352.166 62.1397 352.065Z" fill="#FF6699"/>
<path d="M67.6464 372.266C60.5311 372.447 53.4106 372.42 46.3007 372.42C45.5391 372.42 45.5391 371.241 46.3007 371.241C53.4159 371.241 60.5365 371.267 67.6464 371.087C68.4079 371.071 68.4079 372.25 67.6464 372.266Z" fill="#68182B"/>
<path d="M67.6465 381.642C54.2629 382.215 40.5277 382.97 27.1653 381.796C26.4144 381.732 26.4038 380.553 27.1653 380.616C40.533 381.79 54.2629 381.036 67.6465 380.462C68.4081 380.431 68.4081 381.61 67.6465 381.642Z" fill="#68182B"/>
<path d="M67.6464 367.48C60.5311 367.661 53.4106 367.634 46.3007 367.634C45.5391 367.634 45.5391 366.455 46.3007 366.455C53.4159 366.455 60.5365 366.481 67.6464 366.301C68.4079 366.279 68.4079 367.459 67.6464 367.48Z" fill="#68182B"/>
<path d="M67.6464 377.057C60.5311 377.238 53.4106 377.212 46.3007 377.212C45.5391 377.212 45.5391 376.032 46.3007 376.032C53.4159 376.032 60.5365 376.059 67.6464 375.878C68.4079 375.862 68.4079 377.042 67.6464 377.057Z" fill="#68182B"/>
<path d="M41.3102 416V411.71L39.3002 413.54L37.2902 411.71V416H35.8902V408.99H36.3702L39.3002 411.65L42.2202 408.99H42.7102V416H41.3102ZM48.6755 408.99V410.39H45.4055V411.68H48.1055V413.08H45.4055V414.6H48.6455V416H44.0055V408.99H48.6755ZM55.3123 416L51.3723 411.91V416H49.9723V408.99H50.4123L54.2823 412.91V408.99H55.6823V416H55.3123ZM62.254 413.41H62.264C62.264 414.91 61.044 416.12 59.554 416.12C58.054 416.12 56.844 414.91 56.834 413.42V408.99H58.234V413.41C58.234 413.76 58.374 414.09 58.624 414.34C58.874 414.59 59.204 414.72 59.554 414.72C59.904 414.72 60.224 414.59 60.474 414.34C60.724 414.09 60.854 413.77 60.864 413.42H60.854V408.99H62.254V413.41Z" fill="white"/>
<path d="M48.8674 511C66.0956 511 80.0619 497.121 80.0619 480C80.0619 462.879 66.0956 449 48.8674 449C31.6391 449 17.6729 462.879 17.6729 480C17.6729 497.121 31.6391 511 48.8674 511Z" fill="white"/>
<path d="M20.2532 458.662C18.3915 467.164 17.4981 477.976 17.004 489.746C16.9191 491.755 18.2068 493.571 20.1384 494.176C35.3513 498.917 50.2448 502.538 64.7091 504.636C66.5309 504.899 68.3427 504.046 69.2461 502.449C73.803 494.404 77.5263 483.656 80.8404 471.573C81.4693 469.286 80.1866 466.911 77.9206 466.177C58.6599 459.937 40.622 455.721 24.7851 455.155C22.614 455.081 20.7124 456.559 20.2532 458.662Z" fill="url(#paint3_linear_483_2536)"/>
<path d="M68.3925 503.515C63.1867 494.885 56.9029 486.552 49.6508 478.482C48.5677 477.277 46.8508 476.87 45.3385 477.465C34.9669 481.548 25.5736 486.329 17.5679 492.102C18.1119 493.07 19.0153 493.829 20.1333 494.176C35.3463 498.917 50.2398 502.538 64.704 504.636C66.0666 504.835 67.4192 504.408 68.3925 503.515Z" fill="url(#paint4_linear_483_2536)"/>
<path d="M80.6408 468.671C80.1567 467.526 79.1934 466.593 77.9157 466.177C58.6549 459.937 40.617 455.721 24.7802 455.155C23.2629 455.101 21.8803 455.81 21.0269 456.961C28.2839 466.831 36.2747 475.313 45.5083 481.443C46.6663 482.212 48.0837 482.49 49.4463 482.212C60.4967 479.985 70.7983 475.134 80.6408 468.671Z" fill="url(#paint5_linear_483_2536)"/>
<path opacity="0.3" d="M64.7091 504.641C66.5309 504.904 68.3427 504.051 69.2461 502.454C73.803 494.409 77.5263 483.66 80.8404 471.578C81.4494 469.356 80.2515 467.049 78.1003 466.246C77.691 466.097 76.5281 471.355 76.4233 471.816C73.4037 485.253 62.0738 495.842 48.0637 496.705C39.1745 497.256 30.5549 494.022 21.8603 492.083C20.383 491.755 18.8108 491.487 17.2485 491.393C17.7077 492.693 18.7559 493.744 20.1334 494.176C35.3463 498.917 50.2399 502.543 64.7091 504.641Z" fill="#FD8E00"/>
<path d="M27.6303 458.027C25.9583 457.997 24.5458 458.583 23.4827 459.957C22.3896 461.375 21.9254 463.161 21.4862 464.897C21.1868 466.092 20.8823 467.292 20.8224 468.523C20.7525 469.961 21.1418 473.021 23.328 472.629C23.9169 472.525 24.416 472.114 24.7704 471.628C25.1248 471.146 25.3593 470.591 25.6339 470.06C27.261 466.861 30.0011 464.703 33.395 463.627C34.6478 463.23 36.1751 462.561 36.0603 461.008C35.9655 459.768 34.8525 458.801 33.7145 458.469C31.758 457.893 29.8164 458.131 27.8349 458.037C27.7601 458.032 27.6952 458.027 27.6303 458.027Z" fill="white"/>
<path d="M54.9912 483.502C54.4571 485.56 55.7049 487.658 57.7762 488.184C59.8475 488.715 61.9588 487.475 62.4878 485.416C63.0219 483.358 61.7741 481.26 59.7028 480.734C57.6315 480.203 55.5202 481.443 54.9912 483.502Z" fill="#491768"/>
<path d="M28.8427 476.826C28.3087 478.884 29.5565 480.982 31.6278 481.508C33.6991 482.039 35.8103 480.799 36.3394 478.74C36.8734 476.682 35.6257 474.584 33.5543 474.058C31.483 473.532 29.3768 474.767 28.8427 476.826Z" fill="#491768"/>
<path d="M41.9145 480.164C41.3805 482.222 42.6282 484.32 44.6995 484.846C46.7709 485.377 48.8821 484.137 49.4112 482.078" stroke="#491768" stroke-width="2.8347" stroke-miterlimit="10" stroke-linecap="round" stroke-linejoin="round"/>
<path d="M41.3102 525V520.71L39.3002 522.54L37.2902 520.71V525H35.8902V517.99H36.3702L39.3002 520.65L42.2202 517.99H42.7102V525H41.3102ZM48.6755 517.99V519.39H45.4055V520.68H48.1055V522.08H45.4055V523.6H48.6455V525H44.0055V517.99H48.6755ZM55.3123 525L51.3723 520.91V525H49.9723V517.99H50.4123L54.2823 521.91V517.99H55.6823V525H55.3123ZM62.254 522.41H62.264C62.264 523.91 61.044 525.12 59.554 525.12C58.054 525.12 56.844 523.91 56.834 522.42V517.99H58.234V522.41C58.234 522.76 58.374 523.09 58.624 523.34C58.874 523.59 59.204 523.72 59.554 523.72C59.904 523.72 60.224 523.59 60.474 523.34C60.724 523.09 60.854 522.77 60.864 522.42H60.854V517.99H62.254V522.41Z" fill="white"/>
<path d="M47.5 619C64.3447 619 78 605.345 78 588.5C78 571.655 64.3447 558 47.5 558C30.6553 558 17 571.655 17 588.5C17 605.345 30.6553 619 47.5 619Z" fill="white"/>
<path d="M69.2169 588.133C69.2169 600.957 58.9232 609.145 46.0989 609.145C33.2746 609.145 22.876 598.746 22.876 585.922C22.876 573.097 34.547 564.915 47.3713 564.915C60.2004 564.915 69.2169 575.304 69.2169 588.133Z" fill="url(#paint6_linear_483_2536)"/>
<path d="M50.7501 610.703C51.2314 609.931 51.6603 609.14 51.6937 608.258C51.7318 607.305 51.2981 606.404 51.0312 605.489C50.7644 604.574 50.6929 603.478 51.3315 602.768C52.1083 601.901 53.4951 602.049 54.6054 602.382C55.7206 602.716 56.9358 603.164 57.9986 602.692C59.1376 602.182 59.5998 600.833 59.9096 599.623C60.2194 598.412 60.6054 597.059 61.6967 596.454C62.8309 595.82 64.2558 596.268 65.3996 596.883C66.3765 597.407 67.282 598.055 68.1065 598.799C65.066 605.356 58.5943 609.64 50.7501 610.703ZM59.209 569.733C59.2996 570.167 59.3472 570.61 59.3044 571.063C59.1376 572.812 57.9557 574.427 56.3401 575.113C55.4013 575.514 54.3672 575.614 53.395 575.919C52.4228 576.224 51.4458 576.815 51.117 577.782C50.7596 578.84 51.3124 580.022 52.1369 580.775C52.9613 581.523 54.024 581.952 55.0248 582.448C56.0256 582.943 57.0312 583.563 57.5697 584.54C58.2226 585.717 58.0701 587.147 58.2464 588.481C58.4227 589.815 59.2233 591.312 60.5625 591.369C62.178 591.44 63.2741 589.386 64.8944 589.405C66.6053 589.42 67.3773 591.593 68.8499 592.455C69.1454 592.632 69.4694 592.746 69.7983 592.803C69.9126 591.879 69.9841 590.93 69.9841 589.949C69.9841 581.275 65.8523 573.717 59.209 569.733ZM43.8542 610.765C44.326 609.879 44.5833 608.873 44.5643 607.867C44.5262 605.842 43.3729 603.874 41.6287 602.849C40.361 602.106 38.6358 601.62 38.3022 600.19C37.9734 598.789 39.2649 597.555 39.6176 596.158C39.9416 594.862 39.3412 593.385 38.2022 592.684C37.0632 591.984 35.4715 592.112 34.4612 592.989C33.6987 593.652 33.2602 594.662 32.4072 595.196C31.2587 595.911 29.7337 595.534 28.5661 594.853C27.3985 594.171 26.3834 593.213 25.1301 592.708C24.806 592.579 24.4676 592.489 24.1245 592.427C26.0832 602.039 33.9989 609.488 43.8542 610.765ZM30.5343 576.024C30.5438 577.072 30.6344 578.178 31.2158 579.055C31.7972 579.931 33.0124 580.46 33.9369 579.96C34.9044 579.431 35.2618 577.992 36.3483 577.792C37.2729 577.62 38.0211 578.473 38.755 579.064C39.6604 579.798 40.8661 580.213 42.0051 579.97C43.1441 579.726 44.1354 578.721 44.1687 577.563C44.1973 576.529 43.5349 575.623 43.0726 574.704C42.6104 573.779 42.3816 572.53 43.1298 571.811C43.5826 571.372 44.264 571.282 44.8216 570.996C45.8844 570.443 46.4372 569.152 46.3133 567.96C46.2704 567.565 46.1608 567.188 46.0083 566.826C40.0083 567.255 34.3944 569.471 30.296 573.107C30.5724 574.036 30.5295 575.042 30.5343 576.024Z" fill="url(#paint7_linear_483_2536)"/>
<path opacity="0.2" d="M57.2792 568.708C57.303 568.742 57.3316 568.78 57.3602 568.813C58.8566 570.872 60.1576 573.088 61.0631 575.476C63.8891 582.91 62.5166 591.784 57.5842 598.022C54.0719 602.459 48.4485 605.613 42.8536 604.76C38.0547 604.031 34.1802 600.624 30.2104 597.826C28.5377 596.649 26.6791 595.553 24.749 594.8C27.7371 604.174 36.5106 610.965 46.8758 610.965C59.7001 610.965 69.9939 602.778 69.9939 589.954C69.9843 580.46 65.0424 572.311 57.2792 568.708Z" fill="#003D00"/>
<path d="M29.2952 576.848C27.265 579.364 26.2023 582.643 26.3691 585.869C26.412 586.703 26.574 587.614 27.2126 588.147C28.0704 588.867 29.4 588.581 30.3389 587.981C32.0926 586.856 33.1029 584.888 33.9322 582.972C34.7614 581.056 35.5286 579.035 37.0107 577.572C37.5826 577.01 38.245 576.548 38.7788 575.952C39.9702 574.622 39.8082 571.901 37.5683 572.025C35.6668 572.13 33.5414 573.25 32.0164 574.313C30.9965 575.023 30.0768 575.876 29.2952 576.848Z" fill="#DBFFDA"/>
<path d="M51.9323 588.915C51.5129 590.549 52.4946 592.212 54.1292 592.632C55.7638 593.051 57.427 592.069 57.8464 590.435C58.2658 588.8 57.2841 587.137 55.6495 586.718C54.0148 586.298 52.3516 587.285 51.9323 588.915Z" fill="#491768"/>
<path d="M31.3161 583.62C30.8967 585.255 31.8784 586.918 33.513 587.337C35.1476 587.757 36.8108 586.775 37.2302 585.14C37.6496 583.506 36.6679 581.842 35.0332 581.423C33.3986 581.004 31.7354 581.99 31.3161 583.62Z" fill="#491768"/>
<path d="M41.6242 586.27C41.2048 587.904 42.1865 589.568 43.8211 589.987C45.4557 590.406 47.1189 589.425 47.5383 587.79" stroke="#491768" stroke-width="2.8347" stroke-miterlimit="10" stroke-linecap="round" stroke-linejoin="round"/>
<path d="M41.3102 634V629.71L39.3002 631.54L37.2902 629.71V634H35.8902V626.99H36.3702L39.3002 629.65L42.2202 626.99H42.7102V634H41.3102ZM48.6755 626.99V628.39H45.4055V629.68H48.1055V631.08H45.4055V632.6H48.6455V634H44.0055V626.99H48.6755ZM55.3123 634L51.3723 629.91V634H49.9723V626.99H50.4123L54.2823 630.91V626.99H55.6823V634H55.3123ZM62.254 631.41H62.264C62.264 632.91 61.044 634.12 59.554 634.12C58.054 634.12 56.844 632.91 56.834 631.42V626.99H58.234V631.41C58.234 631.76 58.374 632.09 58.624 632.34C58.874 632.59 59.204 632.72 59.554 632.72C59.904 632.72 60.224 632.59 60.474 632.34C60.724 632.09 60.854 631.77 60.864 631.42H60.854V626.99H62.254V631.41Z" fill="white"/>
<defs>
<linearGradient id="paint0_linear_483_2536" x1="49" y1="0" x2="49" y2="660" gradientUnits="userSpaceOnUse">
<stop stop-color="#B2D5FD"/>
<stop offset="1" stop-color="#393E82"/>
</linearGradient>
<linearGradient id="paint1_linear_483_2536" x1="42.0435" y1="222.427" x2="62.8282" y2="426.257" gradientUnits="userSpaceOnUse">
<stop stop-color="#B0C8FF"/>
<stop offset="0.33" stop-color="#2469DF"/>
<stop offset="0.66" stop-color="#093F95"/>
<stop offset="1" stop-color="#000121"/>
</linearGradient>
<linearGradient id="paint2_linear_483_2536" x1="42.3244" y1="221.609" x2="53.9023" y2="335.15" gradientUnits="userSpaceOnUse">
<stop stop-color="#B0C8FF"/>
<stop offset="0.33" stop-color="#2469DF"/>
<stop offset="0.66" stop-color="#093F95"/>
<stop offset="1" stop-color="#000121"/>
</linearGradient>
<linearGradient id="paint3_linear_483_2536" x1="49.5025" y1="491.848" x2="61.6366" y2="775.375" gradientUnits="userSpaceOnUse">
<stop stop-color="#FFD184"/>
<stop offset="0.5" stop-color="#FD8E00"/>
<stop offset="1" stop-color="#673300"/>
</linearGradient>
<linearGradient id="paint4_linear_483_2536" x1="41.9428" y1="473.838" x2="48.6374" y2="630.266" gradientUnits="userSpaceOnUse">
<stop stop-color="#FFD184"/>
<stop offset="0.5" stop-color="#FD8E00"/>
<stop offset="1" stop-color="#673300"/>
</linearGradient>
<linearGradient id="paint5_linear_483_2536" x1="49.5169" y1="432.409" x2="56.187" y2="588.265" gradientUnits="userSpaceOnUse">
<stop stop-color="#FFD184"/>
<stop offset="0.5" stop-color="#FD8E00"/>
<stop offset="1" stop-color="#673300"/>
</linearGradient>
<linearGradient id="paint6_linear_483_2536" x1="-7.59291" y1="430.087" x2="74.5336" y2="670" gradientUnits="userSpaceOnUse">
<stop stop-color="#DBFFDA"/>
<stop offset="0.5" stop-color="#8DD700"/>
<stop offset="1" stop-color="#003D00"/>
</linearGradient>
<linearGradient id="paint7_linear_483_2536" x1="39.129" y1="562.344" x2="69.8817" y2="667.535" gradientUnits="userSpaceOnUse">
<stop stop-color="#86F3E8"/>
<stop offset="0.5" stop-color="#00BA9D"/>
<stop offset="1" stop-color="#004735"/>
</linearGradient>
</defs>
</svg>
