<svg width="334" height="54" viewBox="0 0 334 54" fill="none" xmlns="http://www.w3.org/2000/svg">
<rect width="334" height="54" rx="27" fill="#88EAFB"/>
<path d="M127.426 41.5373H124.472L133.017 18.2646H135.926L144.472 41.5373H141.517L134.563 21.9464H134.381L127.426 41.5373ZM128.517 32.4464H140.426V34.9464H128.517V32.4464ZM150.415 18.2646V41.5373H147.733V18.2646H150.415ZM166.327 34.401V24.0828H169.009V41.5373H166.327V38.5828H166.145C165.736 39.4691 165.1 40.2229 164.236 40.8441C163.372 41.4578 162.281 41.7646 160.963 41.7646C159.872 41.7646 158.903 41.526 158.054 41.0487C157.206 40.5638 156.539 39.8366 156.054 38.8669C155.569 37.8896 155.327 36.6585 155.327 35.1737V24.0828H158.009V34.9919C158.009 36.2646 158.365 37.2797 159.077 38.0373C159.797 38.7949 160.713 39.1737 161.827 39.1737C162.494 39.1737 163.172 39.0032 163.861 38.6623C164.558 38.3214 165.141 37.7987 165.611 37.0941C166.088 36.3896 166.327 35.4919 166.327 34.401ZM176.602 31.0373V41.5373H173.921V24.0828H176.512V26.8101H176.739C177.148 25.9237 177.769 25.2116 178.602 24.6737C179.436 24.1282 180.512 23.8555 181.83 23.8555C183.012 23.8555 184.046 24.0979 184.932 24.5828C185.818 25.0601 186.508 25.7873 187 26.7646C187.493 27.7343 187.739 28.9616 187.739 30.4464V41.5373H185.057V30.6282C185.057 29.257 184.701 28.1888 183.989 27.4237C183.277 26.651 182.299 26.2646 181.057 26.2646C180.201 26.2646 179.436 26.4502 178.762 26.8214C178.095 27.1926 177.568 27.7343 177.182 28.4464C176.796 29.1585 176.602 30.0222 176.602 31.0373ZM199.73 41.901C198.155 41.901 196.772 41.526 195.583 40.776C194.401 40.026 193.476 38.9767 192.81 37.6282C192.151 36.2797 191.821 34.704 191.821 32.901C191.821 31.0828 192.151 29.4957 192.81 28.1396C193.476 26.7835 194.401 25.7305 195.583 24.9805C196.772 24.2305 198.155 23.8555 199.73 23.8555C201.306 23.8555 202.685 24.2305 203.867 24.9805C205.056 25.7305 205.98 26.7835 206.639 28.1396C207.306 29.4957 207.639 31.0828 207.639 32.901C207.639 34.704 207.306 36.2797 206.639 37.6282C205.98 38.9767 205.056 40.026 203.867 40.776C202.685 41.526 201.306 41.901 199.73 41.901ZM199.73 39.4919C200.927 39.4919 201.912 39.1851 202.685 38.5714C203.458 37.9578 204.03 37.151 204.401 36.151C204.772 35.151 204.958 34.0676 204.958 32.901C204.958 31.7343 204.772 30.6472 204.401 29.6396C204.03 28.632 203.458 27.8176 202.685 27.1964C201.912 26.5752 200.927 26.2646 199.73 26.2646C198.533 26.2646 197.548 26.5752 196.776 27.1964C196.003 27.8176 195.431 28.632 195.06 29.6396C194.689 30.6472 194.503 31.7343 194.503 32.901C194.503 34.0676 194.689 35.151 195.06 36.151C195.431 37.151 196.003 37.9578 196.776 38.5714C197.548 39.1851 198.533 39.4919 199.73 39.4919Z" fill="black"/>
<path d="M38.5073 13.1716C46.6674 13.1716 53.2476 19.7433 53.2476 27.8064C53.2473 35.8693 46.6673 42.4402 38.5073 42.4402C30.3474 42.4402 23.7673 35.8693 23.7671 27.8064C23.7671 19.7433 30.3473 13.1717 38.5073 13.1716Z" stroke="white" stroke-width="7"/>
</svg>
