<svg width="105" height="109" viewBox="0 0 105 109" fill="none" xmlns="http://www.w3.org/2000/svg">
<path d="M102.13 69.7809C98.8402 67.9009 95.5102 66.2509 92.1502 64.8009C92.9302 61.7209 93.3602 58.4709 93.3602 55.0609C93.3602 52.0409 93.0502 49.1009 92.4702 46.2609C95.8702 45.5209 99.1402 44.7009 102.23 43.7809C104.04 43.2409 105.03 41.3009 104.42 39.5109C101.8 31.8809 98.5102 24.8709 94.2102 18.8109C93.2002 17.3809 91.2302 17.0009 89.7402 17.9209C86.4602 19.9509 83.3602 22.1209 80.4402 24.4209C76.1202 20.3509 70.8802 17.2709 65.0102 15.5309C66.0602 12.1409 66.9702 8.83093 67.7102 5.63093C68.1302 3.79093 66.9302 1.97093 65.0702 1.62093C57.1302 0.150932 49.4102 -0.429082 42.0302 0.340918C40.2902 0.520918 38.9902 2.05092 39.0602 3.80092C39.2302 8.04092 39.6502 12.1609 40.3202 16.1809C35.3802 17.9009 30.8702 20.5509 26.9802 23.9009C24.3902 20.8609 21.8002 18.0209 19.2102 15.4409C17.8802 14.1109 15.6902 14.1709 14.4102 15.5609C8.96024 21.5109 4.38024 27.7509 1.12024 34.4209C0.350243 35.9909 0.960228 37.9009 2.48023 38.7709C6.29023 40.9509 10.1502 42.8209 14.0502 44.4209C13.1402 47.8009 12.6502 51.3509 12.6502 55.0009C12.6502 57.4309 12.8602 59.7809 13.2402 62.0409C9.44024 62.8509 5.80024 63.7409 2.37024 64.7609C0.560243 65.3009 -0.42976 67.2409 0.18024 69.0309C2.80024 76.6609 6.09023 83.6709 10.3902 89.7309C11.4002 91.1609 13.3702 91.5409 14.8602 90.6209C18.4302 88.4209 21.7702 86.0509 24.9102 83.5209C29.1102 87.3009 34.2202 90.1509 39.9602 91.8309C38.7602 95.6309 37.7202 99.3409 36.9002 102.911C36.4802 104.751 37.6802 106.571 39.5402 106.921C47.4802 108.391 55.2002 108.971 62.5802 108.201C64.3202 108.021 65.6202 106.491 65.5502 104.741C65.3802 100.411 64.9402 96.1909 64.2402 92.0909C69.4302 90.7109 74.1802 88.4309 78.2702 85.3909C80.6402 88.1409 83.0202 90.7309 85.4002 93.1009C86.7302 94.4309 88.9202 94.3709 90.2002 92.9809C95.6502 87.0309 100.23 80.7909 103.49 74.1209C104.26 72.5609 103.65 70.6509 102.13 69.7809Z" fill="url(#paint0_linear_483_334)"/>
<path d="M5.73035 31.8009C5.28035 32.6209 4.86035 33.5009 4.86035 34.4309C4.86035 35.3609 5.40035 36.3609 6.30035 36.6009C7.34035 36.8709 8.35035 36.1109 9.08035 35.3309C10.9104 33.3709 13.1704 30.1409 13.0704 27.3309C12.9704 24.5709 9.85035 26.2709 8.80035 27.4009C7.59035 28.7009 6.58035 30.2509 5.73035 31.8009Z" fill="white"/>
<path d="M13.4003 20.6809C12.9203 21.3209 12.4603 22.0709 12.5803 22.8609C12.6603 23.4109 13.0403 23.9209 13.5603 24.1409C14.0703 24.3609 14.7003 24.3009 15.1603 23.9809C15.7503 23.5709 16.0103 22.8409 16.0903 22.1309C16.1803 21.2709 16.1103 19.8809 15.4503 19.2309C14.7103 18.5009 13.7803 20.1809 13.4003 20.6809Z" fill="white"/>
<path d="M53.5801 23.2709C36.2801 23.2709 22.1201 37.4309 22.1201 54.7309C22.1201 72.0309 35.3201 84.2709 52.6201 84.2709C69.9201 84.2709 83.8901 72.0609 83.8901 54.7709C83.8901 37.4609 70.8801 23.2709 53.5801 23.2709Z" fill="url(#paint1_linear_483_334)"/>
<path d="M53.2203 42.6909C46.9403 42.6909 41.8003 47.8309 41.8003 54.1109C41.8003 60.3909 46.5903 64.8409 52.8803 64.8409C59.1703 64.8409 64.2403 60.4109 64.2403 54.1209C64.2203 47.8409 59.5003 42.6909 53.2203 42.6909Z" fill="white"/>
<path d="M43.7802 27.4909C40.4502 28.5109 37.3602 30.6809 35.8102 33.8009C35.5802 34.2709 35.3802 34.7608 35.3502 35.2808C35.3202 35.8008 35.4802 36.3508 35.8702 36.7008C36.4302 37.2008 37.2802 37.1509 38.0102 37.0209C39.8902 36.6809 41.6702 35.9709 43.4502 35.2609C46.4302 34.0709 49.4102 32.8709 52.3902 31.6809C53.1202 31.3909 53.8902 31.0709 54.4102 30.4809C54.8802 29.9509 55.1102 29.2209 55.0402 28.5109C54.9802 27.9509 54.6702 27.0809 54.1002 26.8709C53.5002 26.6409 52.5702 26.7308 51.9402 26.7008C50.1902 26.6008 48.4302 26.6208 46.6902 26.8608C45.7102 26.9908 44.7302 27.2009 43.7802 27.4909Z" fill="white"/>
<path opacity="0.2" d="M104.42 39.5209C101.8 31.8909 98.5102 24.8809 94.2102 18.8209C93.2002 17.3909 91.2302 17.0109 89.7402 17.9309C86.4602 19.9609 83.3602 22.1309 80.4402 24.4309C76.1202 20.3609 70.8802 17.2809 65.0102 15.5409C66.0602 12.1509 66.9702 8.84087 67.7102 5.64087C68.1302 3.80087 66.9302 1.98087 65.0702 1.63087C63.5402 1.35087 62.0202 1.11088 60.5102 0.900879C59.2902 9.80088 61.2202 19.1109 66.6302 26.4009C71.0002 32.2809 77.2902 36.8109 80.3602 43.4609C84.0702 51.4709 82.1502 61.4509 76.5902 68.3109C71.0302 75.1609 62.3002 79.0209 53.5002 79.7709C44.7002 80.5209 35.8502 78.3709 27.7502 74.8609C19.0402 71.0809 10.1102 65.5909 0.960171 65.6509C0.110171 66.5209 -0.239828 67.8209 0.180172 69.0509C2.80017 76.6809 6.09016 83.6909 10.3902 89.7509C11.4002 91.1809 13.3702 91.5609 14.8602 90.6409C18.4302 88.4409 21.7702 86.0709 24.9102 83.5409C29.1102 87.3209 34.2202 90.1709 39.9602 91.8509C38.7602 95.6509 37.7202 99.3609 36.9002 102.931C36.4802 104.771 37.6802 106.591 39.5402 106.941C47.4802 108.411 55.2002 108.991 62.5802 108.221C64.3202 108.041 65.6202 106.511 65.5502 104.761C65.3802 100.431 64.9402 96.2109 64.2402 92.1109C69.4302 90.7309 74.1802 88.4509 78.2702 85.4109C80.6402 88.1609 83.0202 90.7509 85.4002 93.1209C86.7302 94.4509 88.9202 94.3909 90.2002 93.0009C95.6502 87.0509 100.23 80.8109 103.49 74.1409C104.26 72.5709 103.65 70.6609 102.13 69.7909C98.8402 67.9109 95.5102 66.2609 92.1502 64.8109C92.9302 61.7309 93.3602 58.4809 93.3602 55.0709C93.3602 52.0509 93.0502 49.1109 92.4702 46.2709C95.8702 45.5309 99.1402 44.7109 102.23 43.7909C104.04 43.2509 105.04 41.3009 104.42 39.5209Z" fill="#093F95"/>
<defs>
<linearGradient id="paint0_linear_483_334" x1="45.1665" y1="-15.512" x2="82.8929" y2="353.267" gradientUnits="userSpaceOnUse">
<stop stop-color="#B0C8FF"/>
<stop offset="0.33" stop-color="#2469DF"/>
<stop offset="0.66" stop-color="#093F95"/>
<stop offset="1" stop-color="#000121"/>
</linearGradient>
<linearGradient id="paint1_linear_483_334" x1="45.6728" y1="-16.9908" x2="66.6878" y2="188.432" gradientUnits="userSpaceOnUse">
<stop stop-color="#B0C8FF"/>
<stop offset="0.33" stop-color="#2469DF"/>
<stop offset="0.66" stop-color="#093F95"/>
<stop offset="1" stop-color="#000121"/>
</linearGradient>
</defs>
</svg>
