<svg width="129" height="125" viewBox="0 0 129 125" fill="none" xmlns="http://www.w3.org/2000/svg">
<path d="M63.8479 125C98.3657 125 126.348 97.0178 126.348 62.5C126.348 27.9822 98.3657 0 63.8479 0C29.3301 0 1.3479 27.9822 1.3479 62.5C1.3479 97.0178 29.3301 125 63.8479 125Z" fill="white"/>
<path d="M6.51793 19.4799C2.78793 36.6199 0.997925 58.4199 0.00792547 82.1499C-0.162075 86.2 2.41793 89.8599 6.28793 91.0799C36.7679 100.64 66.6079 107.94 95.5879 112.17C99.2379 112.7 102.868 110.98 104.678 107.76C113.808 91.5399 121.268 69.8699 127.908 45.5099C129.168 40.8999 126.598 36.11 122.058 34.63C83.4679 22.05 47.3279 13.55 15.5979 12.41C11.2479 12.26 7.43793 15.2399 6.51793 19.4799Z" fill="url(#paint0_linear_483_335)"/>
<path d="M102.968 109.91C92.5379 92.5099 79.9479 75.7099 65.4179 59.4399C63.2479 57.0099 59.8079 56.1899 56.7779 57.3899C35.9979 65.6199 17.1779 75.2599 1.13794 86.8999C2.22794 88.8499 4.03794 90.3799 6.27794 91.0799C36.7579 100.64 66.5979 107.94 95.5779 112.17C98.3079 112.57 101.018 111.71 102.968 109.91Z" fill="url(#paint1_linear_483_335)"/>
<path d="M127.508 39.66C126.538 37.35 124.608 35.47 122.048 34.63C83.4579 22.05 47.3179 13.55 15.5879 12.41C12.5479 12.3 9.77787 13.73 8.06787 16.05C22.6079 35.95 38.6179 53.05 57.1179 65.41C59.4379 66.96 62.2779 67.52 65.0079 66.96C87.1479 62.47 107.788 52.69 127.508 39.66Z" fill="url(#paint2_linear_483_335)"/>
<path opacity="0.3" d="M95.588 112.18C99.238 112.71 102.868 110.99 104.678 107.77C113.808 91.5499 121.268 69.8799 127.908 45.5199C129.128 41.0399 126.728 36.3899 122.418 34.7699C121.598 34.4699 119.268 45.0699 119.058 45.9999C113.008 73.0899 90.308 94.4399 62.238 96.1799C44.428 97.2899 27.158 90.7699 9.73805 86.8599C6.77805 86.1999 3.62805 85.6599 0.498047 85.4699C1.41805 88.0899 3.51805 90.2099 6.27805 91.0799C36.758 100.64 66.598 107.95 95.588 112.18Z" fill="#FD8E00"/>
<path d="M21.298 18.1999C17.948 18.1399 15.118 19.3199 12.988 22.0899C10.798 24.9499 9.86803 28.5499 8.98803 32.0499C8.38803 34.4599 7.77803 36.8799 7.65803 39.3599C7.51803 42.2599 8.29803 48.4299 12.678 47.6399C13.858 47.4299 14.858 46.5999 15.568 45.6199C16.278 44.6499 16.748 43.5299 17.298 42.4599C20.558 36.0099 26.048 31.6599 32.848 29.4899C35.358 28.6899 38.418 27.3399 38.188 24.2099C37.998 21.7099 35.768 19.7599 33.488 19.0899C29.568 17.9299 25.678 18.4099 21.708 18.2199C21.558 18.2099 21.428 18.1999 21.298 18.1999Z" fill="white"/>
<path d="M76.118 69.56C75.048 73.71 77.548 77.94 81.698 79C85.848 80.07 90.078 77.57 91.138 73.42C92.208 69.27 89.708 65.04 85.558 63.98C81.408 62.91 77.178 65.41 76.118 69.56Z" fill="#491768"/>
<path d="M23.7279 56.1C22.6579 60.25 25.1579 64.4799 29.3079 65.5399C33.4579 66.6099 37.6879 64.11 38.7479 59.96C39.8179 55.81 37.3179 51.58 33.1679 50.52C29.0179 49.46 24.7979 51.95 23.7279 56.1Z" fill="#491768"/>
<path d="M49.9178 62.83C48.8478 66.98 51.3478 71.21 55.4978 72.27C59.6478 73.34 63.8778 70.84 64.9378 66.69" stroke="#491768" stroke-width="2.8347" stroke-miterlimit="10" stroke-linecap="round" stroke-linejoin="round"/>
<defs>
<linearGradient id="paint0_linear_483_335" x1="65.1206" y1="86.3864" x2="89.7375" y2="658" gradientUnits="userSpaceOnUse">
<stop stop-color="#FFD184"/>
<stop offset="0.5" stop-color="#FD8E00"/>
<stop offset="1" stop-color="#673300"/>
</linearGradient>
<linearGradient id="paint1_linear_483_335" x1="49.9744" y1="50.0765" x2="63.5561" y2="365.449" gradientUnits="userSpaceOnUse">
<stop stop-color="#FFD184"/>
<stop offset="0.5" stop-color="#FD8E00"/>
<stop offset="1" stop-color="#673300"/>
</linearGradient>
<linearGradient id="paint2_linear_483_335" x1="65.1492" y1="-33.4502" x2="78.6812" y2="280.769" gradientUnits="userSpaceOnUse">
<stop stop-color="#FFD184"/>
<stop offset="0.5" stop-color="#FD8E00"/>
<stop offset="1" stop-color="#673300"/>
</linearGradient>
</defs>
</svg>
