<svg width="98" height="98" viewBox="0 0 98 98" fill="none" xmlns="http://www.w3.org/2000/svg">
<rect width="98" height="98" rx="17" fill="url(#paint0_linear_483_2535)"/>
<path d="M81 45C81 62.6719 66.6719 77 49 77C31.3281 77 17 62.6719 17 45C17 27.3281 31.3281 13 49 13C66.6719 13 81 27.3281 81 45Z" fill="#E5E3D0"/>
<mask id="mask0_483_2535" style="mask-type:luminance" maskUnits="userSpaceOnUse" x="17" y="13" width="64" height="64">
<path d="M81 45C81 62.6719 66.6719 77 49 77C31.3281 77 17 62.6719 17 45C17 27.3281 31.3281 13 49 13C66.6719 13 81 27.3281 81 45Z" fill="white"/>
</mask>
<g mask="url(#mask0_483_2535)">
<path d="M74.7175 78.5657C74.5298 82.6108 57.2037 82.1564 50.1211 81.8008C43.0336 82.1564 25.7074 82.6108 25.5198 78.5657C25.2827 73.4785 26.9422 69.8236 28.7153 68.9938C29.5401 68.6135 32.9925 68.0258 36.4449 67.5072C37.4821 67.3541 38.5242 67.2059 39.4873 67.0726C42.1939 66.6922 44.3325 66.4255 44.3325 66.4255L50.1211 67.0577L55.9047 66.4255C55.9047 66.4255 57.989 66.6922 60.6511 67.0577C61.6488 67.201 62.7304 67.3491 63.8071 67.5121C67.2546 68.0208 70.6971 68.6086 71.5219 68.9938C73.3 69.8236 74.9545 73.4785 74.7175 78.5657Z" fill="#BF9837"/>
<path d="M63.812 67.5121L52.5016 80.324C47.5132 78.8275 38.9983 70.1841 36.4448 67.5072C37.482 67.3541 38.5242 67.2059 39.4873 67.0726C42.1939 66.6922 44.3325 66.4255 44.3325 66.4255L50.121 67.0577L55.9046 66.4255C55.9046 66.4255 57.9889 66.6922 60.651 67.0577C61.6537 67.201 62.7304 67.3541 63.812 67.5121Z" fill="white"/>
<path d="M60.6511 67.0577C58.5965 71.3498 52.0226 79.2621 52.0226 79.2621C46.3526 77.0494 41.3049 69.9273 39.4824 67.0726C42.189 66.6922 44.3276 66.4255 44.3276 66.4255L50.1162 67.0577L55.8998 66.4255C55.9047 66.4255 57.9939 66.6922 60.6511 67.0577Z" fill="#CD8B6D"/>
<path d="M41.6113 60.4049C41.6113 60.4049 42.4411 67.1121 42.5596 69.1272C42.5596 69.1272 50.3682 74.1157 56.8779 68.9099C56.8779 68.9099 56.9964 63.4967 56.9964 60.4098H41.6113V60.4049Z" fill="#CD8B6D"/>
<path d="M64.1578 38.7126C64.1578 38.7126 70.5983 33.6698 71.517 39.8683C72.4356 46.0717 64.064 47.6522 64.064 47.6522L64.1578 38.7126Z" fill="#CD8B6D"/>
<path d="M64.5283 41.5674C64.5283 41.5674 68.04 37.5766 68.771 39.5078C69.5019 41.439 68.8747 43.6763 68.8747 43.6763C68.8747 43.6763 68.682 41.0982 66.6126 42.244C66.6126 42.244 67.793 46.5015 64.3308 44.8173C64.3308 44.8123 63.017 43.38 64.5283 41.5674Z" fill="#B66C50"/>
<path d="M33.3681 38.7126C33.3681 38.7126 26.9276 33.6698 26.0089 39.8683C25.0902 46.0717 33.4619 47.6522 33.4619 47.6522L33.3681 38.7126Z" fill="#CD8B6D"/>
<path d="M32.9976 41.5674C32.9976 41.5674 29.486 37.5766 28.755 39.5078C28.024 41.439 28.6513 43.6763 28.6513 43.6763C28.6513 43.6763 28.8439 41.0982 30.9134 42.244C30.9134 42.244 29.7329 46.5015 33.1952 44.8173C33.1952 44.8123 34.509 43.38 32.9976 41.5674Z" fill="#B66C50"/>
<path d="M43.0926 23.4263C43.0926 23.4263 35.9458 21.8606 34.1579 28.5628C32.37 35.2651 33.0417 42.8614 32.37 45.7655C31.6983 48.6697 31.2537 58.9478 46.4462 63.4176C46.4462 63.4176 49.7949 64.3116 53.8202 62.5236C57.8406 60.7357 63.9946 56.745 64.3206 51.3516C64.6861 45.3012 65.664 38.3915 63.8761 33.0327C62.0832 27.6738 53.8152 16.5017 43.0926 23.4263Z" fill="#E8B299"/>
<path d="M49.1282 35.4924C49.1282 35.4924 48.012 34.3762 47.7897 38.3965C47.5675 42.4169 47.7897 46.6645 47.7897 46.6645C47.7897 46.6645 45.1078 45.0988 46.0018 47.3362C46.4858 48.5413 47.6218 49.1587 48.817 49.4797C49.8641 49.7613 50.6297 49.4056 51.3162 48.7339C51.6323 48.4228 53.2918 46.7435 52.7683 46.22C52.5164 45.9681 51.0593 46.5706 50.6889 46.6645C50.6889 46.6645 51.1384 34.5984 49.1282 35.4924Z" fill="#CD8B6D"/>
<path d="M53.766 33.0919C53.766 33.0919 61.1894 31.2447 62.4735 38.11C62.4735 38.11 54.9119 34.949 53.1733 36.5048L53.766 33.0919Z" fill="#141E62"/>
<path d="M45.2662 33.2452C45.2662 33.2452 38.1689 30.3805 35.9463 37.0038C35.9463 37.0038 43.8734 34.9244 45.3798 36.7025L45.2662 33.2452Z" fill="#141E62"/>
<path d="M65.2789 29.5655C63.6243 27.0812 56.522 24.1227 56.522 24.1227L39.2452 24.2412C39.2452 24.2412 39.0082 27.7924 47.8836 29.0913C56.7591 30.3953 64.3108 28.227 64.3207 37.947C64.3207 37.947 66.9335 32.0498 65.2789 29.5655Z" fill="#CD8B6D"/>
<path d="M53.292 40.9698C53.292 43.1677 55.0997 44.9507 57.3321 44.9507C59.5646 44.9507 61.3722 43.1677 61.3722 40.9698C61.3722 38.772 59.5646 36.9939 57.3321 36.9939C55.0997 36.989 53.292 38.772 53.292 40.9698Z" fill="white"/>
<path d="M59.8016 41.1181C59.8016 42.906 58.6706 44.3581 57.2778 44.3581C55.8849 44.3581 54.7539 42.906 54.7539 41.1181C54.7539 39.3301 55.8849 37.8781 57.2778 37.8781C58.6706 37.8781 59.8016 39.3301 59.8016 41.1181Z" fill="#95BCD1"/>
<path d="M57.2729 43.4196C58.263 43.4196 59.0657 42.3891 59.0657 41.118C59.0657 39.8469 58.263 38.8164 57.2729 38.8164C56.2827 38.8164 55.48 39.8469 55.48 41.118C55.48 42.3891 56.2827 43.4196 57.2729 43.4196Z" fill="#141E62"/>
<path d="M59.1842 38.94C59.1842 39.2857 58.7693 39.5673 58.2556 39.5673C57.742 39.5673 57.332 39.2857 57.332 38.94C57.332 38.5943 57.7469 38.3127 58.2556 38.3127C58.7693 38.3127 59.1842 38.5943 59.1842 38.94Z" fill="white"/>
<path d="M54.5269 37.8977C54.4232 38.0558 54.5565 38.2928 54.7491 38.2829C55.9197 38.2138 56.9026 37.8829 58.0978 38.1447C59.2486 38.3965 60.8884 39.0534 61.2193 40.3228C61.2687 40.5105 61.5206 40.4512 61.5403 40.2783C61.8367 37.2853 56.0728 35.4825 54.5269 37.8977Z" fill="#141E62"/>
<path d="M37.2007 40.9697C37.2007 43.1676 39.0084 44.9506 41.2408 44.9506C43.4733 44.9506 45.2809 43.1676 45.2809 40.9697C45.2809 38.7718 43.4733 36.9938 41.2408 36.9938C39.0084 36.9888 37.2007 38.7718 37.2007 40.9697Z" fill="white"/>
<path d="M43.7054 41.1179C43.7054 42.9059 42.5744 44.3579 41.1816 44.3579C39.7888 44.3579 38.6577 42.9059 38.6577 41.1179C38.6577 39.33 39.7888 37.8779 41.1816 37.8779C42.5744 37.8779 43.7054 39.33 43.7054 41.1179Z" fill="#95BCD1"/>
<path d="M42.9744 41.118C42.9744 42.3873 42.1693 43.4196 41.1815 43.4196C40.1888 43.4196 39.3887 42.3873 39.3887 41.118C39.3887 39.8487 40.1937 38.8164 41.1815 38.8164C42.1743 38.8164 42.9744 39.8437 42.9744 41.118Z" fill="#141E62"/>
<path d="M43.0929 38.9399C43.0929 39.2856 42.678 39.5671 42.1643 39.5671C41.6507 39.5671 41.2407 39.2856 41.2407 38.9399C41.2407 38.5941 41.6556 38.3126 42.1643 38.3126C42.678 38.3126 43.0929 38.5941 43.0929 38.9399Z" fill="white"/>
<path d="M43.9966 37.4235C44.1003 37.5816 43.967 37.8186 43.7744 37.8088C42.6038 37.7396 41.6259 37.4087 40.4257 37.6705C39.2749 37.9224 37.6302 38.5792 37.3042 39.8436C37.2548 40.0313 37.0029 39.972 36.9832 39.7992C36.6868 36.8111 42.4507 35.0083 43.9966 37.4235Z" fill="#141E62"/>
<path d="M41.305 24.5425C35.9462 25.2142 33.2643 40.4067 33.042 40.4067C32.7012 39.7004 32.3703 39.0337 32.0493 38.4015C31.8418 37.9965 31.6393 37.5964 31.4418 37.2062C30.6812 35.7146 30.0243 34.3762 29.5452 33.0574C29.2834 32.3413 29.0809 31.6301 28.9426 30.909C28.6364 29.2544 28.6808 27.5208 29.239 25.4365C30.8046 19.6233 39.5171 21.4112 39.5171 21.4112L39.6998 21.7372L39.9764 22.2212L41.305 24.5425Z" fill="#141E62"/>
<path d="M39.9762 22.2261C39.912 22.2854 39.8133 22.3051 39.7145 22.2607C38.1488 21.5297 35.5805 22.6163 34.1729 23.4263C32.3109 24.4981 30.7402 25.9007 30.0735 28.0097C29.5154 29.7631 29.4512 31.393 29.5401 33.0623C29.2783 32.3462 29.0758 31.635 28.9375 30.9139C29.1153 28.8395 29.7673 26.8194 30.9971 25.3871C32.7307 23.367 36.8893 20.6802 39.6997 21.747C39.7836 21.7767 39.8725 21.8162 39.9515 21.8507C40.1343 21.9298 40.0948 22.1273 39.9762 22.2261Z" fill="#343A80"/>
<path d="M40.248 23.5893C32.6073 23.2436 31.9702 32.3907 32.0442 38.4015C31.8368 37.9965 31.6343 37.5964 31.4367 37.2062C31.1355 31.0571 33.2543 22.8583 40.243 23.3522C40.3962 23.367 40.4011 23.5942 40.248 23.5893Z" fill="#343A80"/>
<path d="M64.3209 37.9471L63.8714 33.0327C62.5329 26.775 56.7246 29.9063 46.896 27.8912C37.0673 25.881 37.6452 21.8903 37.7341 21.1889C37.8773 20.0727 38.0798 19.3121 38.3465 18.8034C38.4255 18.6453 38.5194 18.5169 38.6132 18.4033C39.3442 17.539 40.4505 17.8403 42.0063 18.1218C42.036 18.1317 42.0705 18.4033 42.0952 18.4083C42.4212 18.4675 42.7669 18.7441 43.1275 18.7441H43.3399C44.3079 18.7441 45.4241 18.591 46.6836 18.1465C46.7132 18.1366 46.7429 17.9934 46.7725 17.9835C46.8071 17.9736 46.8416 17.8995 46.8811 17.8897L46.9849 17.8255L47.0046 17.8057C47.0787 17.7909 47.1577 17.7662 47.2368 17.7316C47.2516 17.7267 47.2664 17.7168 47.2812 17.7119C47.6615 17.5538 48.0566 17.3859 48.4616 17.1537C53.4155 14.3484 58.1323 15.7017 62.0588 19.4899C62.0637 19.4948 62.0637 19.4948 62.0687 19.4998C62.2662 19.6825 62.4638 19.8949 62.6614 20.1023L62.6663 20.1073C63.4565 20.942 64.2122 21.8656 64.9333 22.883C64.9333 22.883 64.9333 22.888 64.9382 22.888C65.1062 23.13 65.2692 23.3769 65.4322 23.6288C65.5902 23.856 65.7384 24.0931 65.8865 24.3302C66.5089 25.3229 66.9237 26.3058 67.1855 27.2541C67.2349 27.422 67.2744 27.5949 67.309 27.7628C68.5388 33.418 64.3209 37.9471 64.3209 37.9471Z" fill="#343A80"/>
<path d="M67.3042 27.7529C65.4916 27.3824 63.6345 27.259 62.1281 27.1947C58.2362 27.0268 54.3738 27.1256 50.5461 26.3057C47.3308 25.6143 44.2834 24.6462 41.6262 22.6508C40.2383 21.6087 39.2505 20.2455 38.3467 18.8083C38.4257 18.6502 38.5195 18.5218 38.6134 18.4082C39.1419 19.2231 39.6407 20.0578 40.3025 20.7691C41.6163 22.1816 43.1672 23.3571 44.9502 24.1276C48.9557 25.8513 53.3762 26.5576 57.7077 26.6465C60.2365 26.7008 63.8914 26.6021 67.1857 27.2491C67.2252 27.417 67.2697 27.5849 67.3042 27.7529Z" fill="#4B55AA"/>
<path d="M65.4274 23.619C63.8765 23.4263 62.3207 23.4214 60.7501 23.5646C57.8361 23.8215 54.9615 24.0635 52.0376 23.7622C48.0963 23.3523 44.3377 21.3026 41.9966 18.1218C42.0262 18.1317 42.0608 18.1366 42.0855 18.1416C42.4115 18.1959 42.7572 18.2058 43.1177 18.2058C44.7871 19.8406 46.4565 21.347 48.852 22.1373C51.8203 23.1152 54.922 23.2041 58.0188 23.046C60.2759 22.9275 62.6467 22.6262 64.9285 22.8781C65.0964 23.1251 65.2644 23.372 65.4274 23.619Z" fill="#4B55AA"/>
<path d="M62.6614 20.0974C58.2904 23.2288 51.1683 21.51 46.6787 17.8748L46.98 17.7909L46.9997 17.7859L47.2319 17.7168C49.1581 19.1788 51.4251 20.2604 53.3859 20.6753C56.6556 21.3717 59.3868 20.8778 62.0687 19.4899C62.2663 19.6727 62.4639 19.885 62.6614 20.0925V20.0974Z" fill="#4B55AA"/>
<path d="M58.9518 49.7959C58.9172 49.8848 58.3986 51.1443 57.5244 52.7247C57.4158 52.9174 57.3022 53.1149 57.1836 53.3174C55.9439 55.4215 54.1412 57.9009 52.0322 58.9529C48.6885 60.6223 44.2631 58.9825 40.4205 53.6237C40.3712 53.5545 40.3218 53.4804 40.2724 53.4113C39.5463 52.379 38.845 51.2134 38.1782 49.9194C38.1782 49.9194 40.6329 50.4627 45.9967 51.1294C51.2765 51.7913 58.7098 49.8552 58.9518 49.7959Z" fill="white"/>
<path d="M57.5245 52.7247C57.4158 52.9174 57.3022 53.1149 57.1837 53.3174C54.6846 53.8459 52.1508 54.1916 49.6665 54.2805C46.6241 54.3892 43.4038 54.3941 40.4206 53.6286C40.3712 53.5594 40.3219 53.4853 40.2725 53.4162C43.5668 54.2805 47.2711 54.2262 50.5457 53.9299C52.9312 53.7125 55.2328 53.2581 57.5245 52.7247Z" fill="#CD8B6D"/>
<path d="M40.2824 49.3316C39.1513 49.0155 37.8524 49.7169 36.9782 50.3787C36.8251 50.4972 36.9634 50.759 37.1362 50.6454C37.6005 50.3441 38.1043 50.1317 38.6278 49.949C39.1711 49.7564 39.744 49.7366 40.2873 49.5588C40.391 49.5242 40.4009 49.3612 40.2824 49.3316Z" fill="#CD8B6D"/>
<path d="M60.4484 50.0725C60.2212 49.6823 59.7718 49.5539 59.3717 49.3859C58.9371 49.2032 58.4926 49.0501 58.053 48.8871C57.8258 48.8031 57.6826 49.1587 57.89 49.2723C58.2802 49.4897 58.6753 49.6971 59.0803 49.8848C59.4656 50.0675 59.8607 50.349 60.3052 50.3194C60.4287 50.3145 60.5176 50.1861 60.4484 50.0725Z" fill="#CD8B6D"/>
</g>
<path d="M41.3102 89V84.71L39.3002 86.54L37.2902 84.71V89H35.8902V81.99H36.3702L39.3002 84.65L42.2202 81.99H42.7102V89H41.3102ZM48.6755 81.99V83.39H45.4055V84.68H48.1055V86.08H45.4055V87.6H48.6455V89H44.0055V81.99H48.6755ZM55.3123 89L51.3723 84.91V89H49.9723V81.99H50.4123L54.2823 85.91V81.99H55.6823V89H55.3123ZM62.254 86.41H62.264C62.264 87.91 61.044 89.12 59.554 89.12C58.054 89.12 56.844 87.91 56.834 86.42V81.99H58.234V86.41C58.234 86.76 58.374 87.09 58.624 87.34C58.874 87.59 59.204 87.72 59.554 87.72C59.904 87.72 60.224 87.59 60.474 87.34C60.724 87.09 60.854 86.77 60.864 86.42H60.854V81.99H62.254V86.41Z" fill="white"/>
<defs>
<linearGradient id="paint0_linear_483_2535" x1="49" y1="0" x2="49" y2="98" gradientUnits="userSpaceOnUse">
<stop stop-color="#BBE0FF"/>
<stop offset="1" stop-color="#4C57EC"/>
</linearGradient>
</defs>
</svg>
