<svg width="128" height="128" viewBox="0 0 128 128" fill="none" xmlns="http://www.w3.org/2000/svg">
<path d="M64 128C99.3462 128 128 99.3462 128 64C128 28.6538 99.3462 0 64 0C28.6538 0 0 28.6538 0 64C0 99.3462 28.6538 128 64 128Z" fill="white"/>
<path d="M109.57 63.23C109.57 90.14 87.9701 107.32 61.0601 107.32C34.1501 107.32 12.3301 85.5 12.3301 58.59C12.3301 31.68 36.8201 14.51 63.7301 14.51C90.6501 14.51 109.57 36.31 109.57 63.23Z" fill="url(#paint0_linear_483_332)"/>
<path d="M70.8202 110.59C71.8302 108.97 72.7302 107.31 72.8002 105.46C72.8802 103.46 71.9702 101.57 71.4102 99.65C70.8502 97.73 70.7002 95.43 72.0402 93.94C73.6702 92.12 76.5802 92.43 78.9102 93.13C81.2502 93.83 83.8002 94.77 86.0302 93.78C88.4202 92.71 89.3902 89.88 90.0402 87.34C90.6902 84.8 91.5002 81.96 93.7902 80.69C96.1702 79.36 99.1602 80.3 101.56 81.59C103.61 82.69 105.51 84.05 107.24 85.61C100.86 99.37 87.2802 108.36 70.8202 110.59ZM88.5702 24.62C88.7602 25.53 88.8602 26.46 88.7702 27.41C88.4202 31.08 85.9402 34.47 82.5502 35.91C80.5802 36.75 78.4102 36.96 76.3702 37.6C74.3302 38.24 72.2802 39.48 71.5902 41.51C70.8402 43.73 72.0002 46.21 73.7302 47.79C75.4602 49.36 77.6902 50.26 79.7902 51.3C81.8902 52.34 84.0002 53.64 85.1302 55.69C86.5002 58.16 86.1802 61.16 86.5502 63.96C86.9202 66.76 88.6002 69.9 91.4102 70.02C94.8002 70.17 97.1002 65.86 100.5 65.9C104.09 65.93 105.71 70.49 108.8 72.3C109.42 72.67 110.1 72.91 110.79 73.03C111.03 71.09 111.18 69.1 111.18 67.04C111.18 48.84 102.51 32.98 88.5702 24.62ZM56.3502 110.72C57.3402 108.86 57.8802 106.75 57.8402 104.64C57.7602 100.39 55.3402 96.26 51.6802 94.11C49.0202 92.55 45.4002 91.53 44.7002 88.53C44.0102 85.59 46.7202 83 47.4602 80.07C48.1402 77.35 46.8802 74.25 44.4902 72.78C42.1002 71.31 38.7602 71.58 36.6402 73.42C35.0402 74.81 34.1202 76.93 32.3302 78.05C29.9202 79.55 26.7202 78.76 24.2702 77.33C21.8202 75.9 19.6902 73.89 17.0602 72.83C16.3802 72.56 15.6702 72.37 14.9502 72.24C19.0602 92.41 35.6702 108.04 56.3502 110.72ZM28.4002 37.82C28.4202 40.02 28.6102 42.34 29.8302 44.18C31.0502 46.02 33.6002 47.13 35.5402 46.08C37.5702 44.97 38.3202 41.95 40.6002 41.53C42.5402 41.17 44.1102 42.96 45.6502 44.2C47.5502 45.74 50.0802 46.61 52.4702 46.1C54.8602 45.59 56.9402 43.48 57.0102 41.05C57.0702 38.88 55.6802 36.98 54.7102 35.05C53.7402 33.11 53.2602 30.49 54.8302 28.98C55.7802 28.06 57.2102 27.87 58.3802 27.27C60.6102 26.11 61.7702 23.4 61.5102 20.9C61.4202 20.07 61.1902 19.28 60.8702 18.52C48.2802 19.42 36.5002 24.07 27.9002 31.7C28.4802 33.65 28.3902 35.76 28.4002 37.82Z" fill="url(#paint1_linear_483_332)"/>
<path opacity="0.2" d="M84.5202 22.47C84.5703 22.54 84.6302 22.62 84.6902 22.69C87.8302 27.01 90.5602 31.66 92.4603 36.67C98.3903 52.27 95.5102 70.89 85.1602 83.98C77.7902 93.29 65.9903 99.91 54.2503 98.12C44.1803 96.59 36.0503 89.44 27.7203 83.57C24.2103 81.1 20.3103 78.8 16.2603 77.22C22.5303 96.89 40.9403 111.14 62.6903 111.14C89.6003 111.14 111.2 93.96 111.2 67.05C111.18 47.13 100.81 30.03 84.5202 22.47Z" fill="#003D00"/>
<path d="M25.8003 39.55C21.5403 44.83 19.3103 51.71 19.6603 58.48C19.7503 60.23 20.0903 62.14 21.4303 63.26C23.2303 64.77 26.0203 64.17 27.9903 62.91C31.6703 60.55 33.7903 56.42 35.5303 52.4C37.2703 48.38 38.8803 44.14 41.9903 41.07C43.1903 39.89 44.5803 38.92 45.7003 37.67C48.2003 34.88 47.8603 29.17 43.1603 29.43C39.1703 29.65 34.7103 32 31.5103 34.23C29.3703 35.72 27.4403 37.51 25.8003 39.55Z" fill="#DBFFDA"/>
<path d="M73.2998 64.87C72.4198 68.3 74.4798 71.79 77.9098 72.67C81.3398 73.55 84.8298 71.49 85.7098 68.06C86.5898 64.63 84.5298 61.14 81.0998 60.26C77.6698 59.38 74.1798 61.45 73.2998 64.87Z" fill="#491768"/>
<path d="M30.0401 53.7601C29.1601 57.1901 31.2201 60.6801 34.6501 61.5601C38.0801 62.4401 41.5701 60.3801 42.4501 56.9501C43.3301 53.5201 41.2701 50.0301 37.8401 49.1501C34.4101 48.2701 30.9201 50.3401 30.0401 53.7601Z" fill="#491768"/>
<path d="M51.67 59.3201C50.79 62.7501 52.85 66.2401 56.28 67.1201C59.71 68.0001 63.2 65.9401 64.08 62.5101" stroke="#491768" stroke-width="2.8347" stroke-miterlimit="10" stroke-linecap="round" stroke-linejoin="round"/>
<defs>
<linearGradient id="paint0_linear_483_332" x1="-51.6046" y1="-268.408" x2="120.727" y2="235.016" gradientUnits="userSpaceOnUse">
<stop stop-color="#DBFFDA"/>
<stop offset="0.5" stop-color="#8DD700"/>
<stop offset="1" stop-color="#003D00"/>
</linearGradient>
<linearGradient id="paint1_linear_483_332" x1="46.4351" y1="9.11552" x2="110.965" y2="229.844" gradientUnits="userSpaceOnUse">
<stop stop-color="#86F3E8"/>
<stop offset="0.5" stop-color="#00BA9D"/>
<stop offset="1" stop-color="#004735"/>
</linearGradient>
</defs>
</svg>
